{"glyphs":{"0":{"ha":925,"x_min":44,"x_max":885,"o":"m 865 390 q 819 344 847 357 q 847 313 838 333 q 854 271 857 292 q 837 229 853 247 q 799 203 821 211 q 808 115 819 161 q 760 39 796 68 q 674 19 721 8 q 643 32 657 22 q 626 -18 644 6 q 560 -50 604 -46 q 499 -45 529 -54 q 453 -14 468 -36 q 439 -37 446 -29 q 394 -58 421 -60 q 340 8 353 -54 q 254 -10 303 -15 q 175 28 206 -6 q 142 102 146 58 q 161 179 139 146 q 107 186 121 181 q 72 232 76 200 q 82 296 69 265 q 107 326 89 317 q 75 350 88 335 q 44 440 44 386 q 71 538 46 489 q 97 576 83 560 q 114 594 104 585 q 124 600 119 599 q 100 644 96 614 q 119 676 103 664 q 138 688 126 682 q 144 689 140 689 q 128 757 126 719 q 156 824 131 794 q 208 856 176 847 q 268 853 239 864 q 297 913 275 888 q 353 946 319 938 q 422 941 388 954 q 471 897 456 928 q 518 933 489 919 q 578 946 547 946 q 656 907 629 946 q 668 854 672 881 q 771 822 732 867 q 797 769 792 800 q 792 710 803 738 q 822 682 813 703 q 822 617 833 654 q 785 558 811 582 q 833 538 810 557 q 876 469 867 511 q 865 390 885 426 m 794 354 q 805 363 799 357 q 815 371 811 368 q 824 378 819 374 q 833 389 829 383 q 840 400 838 394 q 851 461 857 428 q 821 519 844 497 q 789 539 806 533 q 765 544 781 542 q 735 533 751 536 q 728 537 731 533 q 731 543 726 540 q 793 606 774 567 q 804 651 804 629 q 797 677 804 665 q 776 688 790 689 q 763 692 768 686 q 763 706 758 697 q 773 756 775 728 q 753 805 771 785 q 708 831 736 825 q 657 825 681 836 q 649 824 653 824 q 642 828 644 825 q 638 834 639 831 q 639 842 636 838 q 631 899 656 871 q 568 921 608 925 q 499 896 532 918 q 458 842 465 874 q 456 839 458 839 q 453 842 453 839 q 465 889 453 868 q 361 919 415 935 q 313 888 333 913 q 290 835 293 864 q 283 826 289 829 q 272 825 278 822 q 220 832 249 839 q 175 804 192 825 q 156 747 157 781 q 169 688 156 713 q 169 677 172 682 q 161 672 167 672 q 138 663 151 672 q 124 644 126 654 q 126 624 121 635 q 142 611 132 613 q 147 605 147 610 q 144 597 147 600 q 132 582 144 597 q 117 565 122 571 q 96 532 104 546 q 74 454 76 496 q 90 372 69 407 q 119 341 101 356 q 153 325 136 326 q 156 322 156 325 q 153 319 156 319 q 121 322 139 318 q 119 322 121 322 q 99 281 106 311 q 96 233 93 254 q 131 206 100 211 q 158 203 139 204 q 189 201 178 203 q 197 192 196 200 q 194 181 199 185 q 167 114 167 154 q 194 47 168 74 q 266 17 222 19 q 343 36 310 15 q 352 36 347 39 q 358 26 357 33 q 363 1 360 13 q 376 -23 367 -11 q 397 -35 385 -35 q 428 -18 415 -36 q 443 21 440 0 q 453 28 444 28 q 463 21 461 28 q 497 -19 469 -8 q 556 -26 524 -31 q 605 -3 586 -24 q 626 47 624 17 q 615 71 618 58 q 617 76 614 75 q 624 75 621 78 q 681 40 644 44 q 746 61 718 36 q 785 128 775 86 q 772 201 794 169 q 769 213 768 206 q 778 221 771 221 q 814 239 799 224 q 831 275 829 254 q 793 342 833 307 q 792 347 792 344 q 794 354 792 351 m 632 440 q 640 439 635 440 q 650 437 646 438 q 658 435 654 436 q 660 431 660 433 q 660 428 660 429 q 599 426 640 411 q 593 419 596 424 q 583 394 586 408 q 582 368 578 379 q 590 358 585 364 q 597 356 594 358 q 599 351 599 354 q 596 342 603 344 q 593 342 594 342 q 592 342 592 342 q 581 324 590 339 q 571 294 572 311 q 589 228 568 268 q 587 218 592 222 q 578 219 582 214 q 543 228 568 228 q 510 219 526 228 q 472 176 488 207 q 447 135 465 140 q 444 136 444 135 q 446 163 442 142 q 450 194 450 188 q 436 253 453 228 q 394 287 421 278 q 340 286 367 296 q 332 289 335 283 q 332 299 329 294 q 378 392 374 340 q 351 468 382 433 q 342 463 349 465 q 335 463 339 463 q 331 463 332 463 q 326 465 328 463 q 326 468 325 467 q 330 474 328 469 q 335 479 332 478 q 340 483 336 481 q 344 488 343 486 q 350 494 347 490 q 356 501 353 497 q 363 507 360 504 q 390 547 379 524 q 406 604 404 572 q 397 663 408 643 q 400 675 393 669 q 414 675 407 681 q 475 643 449 643 q 518 664 503 644 q 528 685 519 674 q 529 688 528 688 q 535 692 531 689 q 540 691 538 693 q 540 688 542 689 q 540 642 532 657 q 558 626 546 632 q 582 622 569 619 q 591 617 588 622 q 590 607 594 613 q 556 556 565 588 q 560 496 547 525 q 603 453 572 469 q 632 440 624 442 m 578 432 q 581 436 578 432 q 538 486 551 454 q 531 549 525 517 q 560 604 538 581 q 524 631 536 608 q 519 644 522 635 q 483 619 506 625 q 425 632 453 614 q 428 601 428 617 q 414 538 426 568 q 379 486 401 508 q 365 476 375 483 q 400 396 403 450 q 385 338 400 368 q 365 310 378 325 q 415 303 390 314 q 454 271 439 292 q 475 210 474 244 q 506 236 488 226 q 547 246 525 247 q 558 244 550 246 q 549 296 547 268 q 560 332 551 314 q 572 347 567 343 q 565 357 568 353 q 563 397 556 375 q 578 432 567 417 z "},"1":{"ha":613,"x_min":17,"x_max":556,"o":"m 542 131 q 552 90 553 113 q 539 50 551 68 q 485 14 521 22 q 422 22 450 6 q 403 -15 421 -3 q 361 -21 385 -28 q 336 -6 343 -18 q 306 -21 322 -17 q 225 -3 261 -33 q 192 73 190 28 q 229 146 194 118 q 210 175 217 157 q 208 219 203 197 q 235 256 215 242 q 190 299 206 268 q 174 364 174 331 q 224 468 174 426 q 178 549 182 494 q 204 643 175 604 q 172 651 186 640 q 101 618 144 615 q 56 635 76 619 q 26 676 36 651 q 23 728 17 701 q 47 772 29 754 q 121 785 81 801 q 196 889 136 869 q 258 878 233 900 l 261 875 q 271 896 264 886 q 288 913 278 906 q 310 922 297 919 q 343 913 329 924 q 351 903 349 907 q 387 938 358 926 q 446 945 415 949 q 496 929 476 942 q 527 895 517 917 q 533 850 538 874 q 514 811 529 828 q 494 797 507 804 q 531 770 517 790 q 544 728 544 750 q 486 629 546 667 q 533 594 524 626 q 518 544 542 567 q 548 493 540 529 q 547 431 556 457 q 511 371 540 396 q 485 356 499 361 q 506 340 494 351 q 533 279 532 315 q 508 222 533 243 q 515 219 513 221 q 535 193 529 213 q 536 161 539 178 q 529 146 533 154 l 528 144 q 542 131 536 140 m 513 57 q 526 111 536 82 q 513 135 524 125 q 504 140 507 135 q 476 142 489 149 q 474 146 474 143 q 508 154 489 157 q 508 156 508 154 l 510 157 q 511 158 511 157 q 514 163 511 158 q 515 165 514 164 q 515 165 515 165 l 515 168 l 517 171 l 517 172 l 517 175 l 517 182 l 517 183 l 515 185 q 506 206 513 197 q 494 213 501 211 q 478 208 483 208 q 470 208 475 208 q 463 207 465 208 q 449 210 453 207 q 450 211 447 211 q 463 214 450 211 q 475 219 468 215 q 493 235 489 231 q 508 282 510 256 q 489 329 507 308 q 468 346 481 339 q 454 354 457 353 q 453 355 454 354 q 453 356 453 356 l 451 357 q 449 358 450 357 q 447 358 447 358 l 446 364 l 447 364 l 453 364 q 471 374 458 368 q 493 389 486 383 q 522 431 514 404 q 526 492 533 456 q 489 532 519 528 q 481 542 481 533 q 489 554 481 551 q 509 567 501 556 q 513 590 517 578 q 471 621 504 619 q 469 619 471 621 q 464 621 467 618 q 461 623 461 621 q 464 626 461 625 q 474 638 467 629 q 485 649 482 646 q 494 660 488 653 q 503 673 500 668 q 511 685 507 678 q 517 699 515 693 q 521 714 519 706 q 511 762 526 740 q 469 785 496 783 q 463 790 463 785 q 468 797 463 796 q 495 820 482 803 q 511 854 508 838 q 506 887 515 871 q 481 913 497 903 q 414 923 456 929 q 360 886 372 917 q 355 881 358 882 q 350 883 351 881 l 349 885 q 325 899 343 896 q 318 900 324 900 l 317 900 l 317 899 q 313 899 314 899 q 311 897 313 897 q 308 897 310 897 q 307 896 308 896 q 303 893 304 894 q 301 893 301 893 l 301 892 q 294 886 300 892 l 294 885 l 293 885 q 290 881 292 882 q 289 878 289 878 l 289 875 l 288 875 q 286 869 288 872 q 285 865 285 867 q 282 846 282 854 q 280 840 281 844 q 279 832 279 835 q 279 831 279 832 q 276 825 279 828 l 276 824 q 275 822 275 822 q 274 822 275 822 q 268 822 271 821 l 268 824 q 268 825 268 824 q 260 843 263 832 q 239 864 253 857 q 192 861 217 875 q 140 765 149 838 q 133 756 139 758 q 121 758 126 754 q 88 765 106 769 q 58 746 69 761 q 54 681 38 715 q 107 644 72 646 q 163 672 144 643 q 171 676 165 676 q 179 672 176 676 q 201 659 186 661 q 226 667 217 657 q 228 667 226 667 q 267 686 247 682 q 271 684 269 688 q 269 679 272 681 q 203 576 211 638 q 213 520 200 546 q 253 482 226 494 q 258 471 258 478 q 253 460 258 464 q 197 364 199 425 q 244 261 197 318 q 278 269 260 269 q 281 266 281 269 q 278 261 282 263 q 248 244 261 257 q 231 214 235 231 q 253 153 222 178 q 256 147 256 151 q 253 139 256 142 q 219 80 224 115 q 240 18 214 44 q 300 2 265 -4 q 353 36 335 8 q 363 36 358 44 l 363 32 q 350 7 358 18 q 353 5 351 7 q 357 2 356 3 q 361 0 358 1 q 365 -1 364 -1 q 389 1 378 -4 q 401 19 399 7 q 400 42 404 32 q 394 47 397 43 q 397 59 392 54 q 408 58 403 64 q 460 37 428 38 q 513 57 492 36 z "},"2":{"ha":849,"x_min":10,"x_max":821,"o":"m 793 160 q 801 67 819 119 q 738 0 785 17 q 690 -8 713 -10 q 653 1 667 -7 q 644 -10 650 -4 q 588 -44 625 -36 q 526 -40 557 -51 q 474 -3 494 -28 q 472 -7 474 -4 q 457 -25 467 -19 q 410 -29 436 -42 q 376 8 385 -19 q 357 -19 369 -6 q 290 -53 331 -49 q 222 -35 254 -57 q 192 4 197 -18 q 167 -17 178 -10 q 117 -33 144 -31 q 69 -24 92 -35 q 35 10 47 -12 q 40 97 10 57 q 76 122 54 115 q 86 125 83 125 q 81 158 78 140 q 136 213 88 196 q 128 242 131 231 q 128 282 125 263 q 163 350 135 319 q 229 392 188 379 q 290 392 260 399 q 289 399 289 396 q 290 418 289 407 q 308 454 296 439 q 353 485 328 479 q 344 504 346 494 q 353 549 339 528 q 393 575 367 569 q 419 576 406 578 q 415 589 415 583 q 414 624 411 604 q 440 681 418 656 q 469 703 451 693 l 457 710 q 435 728 443 718 q 432 708 433 715 q 397 647 424 672 q 339 617 372 622 q 275 628 306 613 q 248 581 268 600 q 201 569 228 563 q 168 603 172 576 q 169 619 167 611 q 147 629 157 621 q 133 649 138 638 q 128 675 128 661 q 182 754 131 719 q 147 821 151 776 q 182 901 144 871 q 268 924 219 933 q 318 889 306 917 q 407 951 350 935 q 478 953 439 963 q 536 915 518 944 q 597 921 564 926 q 649 893 629 915 q 668 854 664 876 q 665 811 672 832 q 715 801 693 815 q 757 757 743 786 q 765 700 769 729 q 742 647 761 671 q 759 612 757 633 q 747 574 761 590 q 697 546 729 550 q 689 468 715 507 q 617 429 663 431 q 613 377 622 403 q 581 338 603 351 q 581 333 581 336 q 582 326 582 329 q 561 269 582 296 q 458 229 522 221 q 433 182 453 203 q 453 178 443 182 q 478 147 472 169 q 575 188 525 185 q 631 179 603 189 q 672 150 660 169 q 703 171 686 163 q 751 182 724 183 q 793 160 778 181 m 781 79 q 771 150 793 122 q 735 162 754 164 q 699 150 717 160 q 646 93 661 131 q 642 92 644 92 q 640 94 639 93 q 660 135 646 117 q 622 160 629 157 q 575 167 600 168 q 478 119 525 165 q 466 117 474 115 q 460 128 458 119 q 455 150 461 140 q 438 163 449 160 q 415 165 426 167 q 344 150 382 143 q 341 155 340 151 q 344 158 342 158 q 407 183 379 158 q 438 242 435 207 q 451 253 439 256 q 501 256 476 247 q 542 285 526 265 q 563 331 554 300 q 565 346 565 339 l 565 347 q 557 385 567 364 q 560 391 556 389 q 567 389 564 393 q 576 361 572 379 q 590 436 608 396 q 591 449 586 443 q 604 453 596 454 q 674 481 647 444 q 683 546 692 507 q 643 553 669 546 q 641 557 640 554 q 644 560 642 560 q 662 561 647 560 q 683 564 676 563 q 724 579 710 568 q 736 609 738 592 q 718 636 735 626 q 713 644 714 638 q 715 653 711 650 q 741 697 735 671 q 738 747 747 722 q 706 785 728 769 q 658 800 683 800 q 647 790 653 793 q 642 790 644 788 q 640 796 639 793 q 649 839 651 815 q 631 879 646 863 q 585 899 614 897 q 536 890 557 901 q 519 894 524 886 q 471 931 507 924 q 408 926 435 939 q 307 839 347 907 q 301 837 304 835 q 299 842 297 839 q 308 871 301 857 q 254 899 285 897 q 197 878 219 899 q 176 819 172 850 q 204 760 181 788 q 204 749 208 753 q 193 738 203 747 q 180 726 183 729 q 170 715 176 722 q 160 701 164 707 q 154 686 157 694 q 156 656 150 672 q 175 632 161 639 q 192 651 179 639 q 197 651 194 654 q 197 647 200 649 q 186 626 190 636 q 185 621 189 622 q 185 607 183 613 q 211 589 192 589 q 257 647 247 589 q 265 654 258 653 q 275 651 271 656 q 332 637 301 631 q 385 668 363 643 q 411 718 403 688 q 417 747 415 733 q 418 782 419 774 q 420 784 418 783 q 424 782 422 785 q 426 776 425 779 q 427 769 426 772 q 429 763 428 767 q 432 758 431 760 q 447 740 435 754 q 467 726 454 733 q 492 717 479 719 q 501 715 499 715 q 556 708 525 719 q 558 702 560 706 q 553 699 557 699 q 519 697 536 701 q 485 685 501 693 q 458 664 469 676 q 439 617 442 643 q 438 593 438 600 q 439 579 438 583 q 438 576 439 579 q 438 570 438 572 q 439 568 438 568 q 440 562 442 565 q 436 557 439 558 q 419 556 431 556 q 403 554 408 556 q 374 538 383 550 q 365 512 365 528 q 374 485 365 496 q 378 485 376 485 q 382 480 382 483 q 379 475 382 476 q 371 471 375 469 q 326 439 340 460 q 314 408 317 425 q 311 381 310 390 q 310 373 313 376 q 301 371 307 369 q 237 366 269 376 q 183 332 204 356 q 154 275 163 310 q 157 210 144 232 q 153 197 161 201 q 146 194 153 197 q 138 190 139 190 q 131 185 136 189 q 122 180 125 182 q 116 174 119 178 q 110 167 113 171 q 107 160 108 163 q 119 122 99 136 q 122 119 121 121 q 125 112 126 117 q 118 106 124 107 q 101 110 108 106 q 60 79 74 101 q 60 19 42 51 q 124 -7 79 -12 q 192 29 171 -1 q 201 33 194 35 q 208 24 208 31 q 243 -21 208 -3 q 297 -26 268 -32 q 346 3 321 -21 q 363 24 356 14 q 369 36 365 28 q 378 49 374 44 q 383 61 379 56 q 389 63 385 65 q 393 57 393 61 q 414 -6 385 11 q 442 -6 429 -12 q 455 4 449 -3 q 461 18 461 11 q 465 24 460 22 q 472 22 469 26 q 579 -22 525 -32 q 626 3 606 -17 q 657 50 647 24 q 658 51 657 51 q 660 50 660 51 q 660 21 664 33 q 675 17 674 17 q 696 15 682 15 q 735 24 715 15 q 781 79 771 43 z "},"3":{"ha":808,"x_min":36,"x_max":763,"o":"m 718 263 q 760 185 757 236 q 728 90 761 131 q 665 63 700 58 q 657 26 668 43 q 628 4 646 10 q 556 19 590 -8 q 543 -29 556 -6 q 475 -82 522 -69 q 386 -75 431 -94 q 347 -36 354 -62 q 308 -64 331 -56 q 256 -56 281 -74 q 235 -8 232 -37 q 172 -17 206 -22 q 113 10 138 -12 q 79 74 85 35 q 92 144 74 114 q 44 185 56 153 q 43 228 38 206 q 65 265 49 250 q 138 288 90 292 q 194 247 185 285 q 242 267 215 263 q 293 264 269 272 q 339 208 332 249 q 332 160 343 188 q 388 161 364 171 q 415 131 408 151 q 465 176 432 161 q 422 213 440 188 q 411 282 400 246 q 350 292 382 267 q 326 322 335 303 q 321 361 318 342 q 308 353 311 354 q 288 346 294 347 q 247 346 267 342 q 193 386 208 353 q 206 456 176 424 q 253 472 226 478 q 254 494 253 483 q 296 547 261 529 q 351 556 319 561 q 400 531 382 551 q 403 549 400 540 q 422 578 408 564 q 469 606 442 600 q 469 696 450 654 q 444 697 453 696 q 413 710 428 701 q 397 725 401 717 q 364 668 386 690 q 307 643 336 642 q 279 650 290 643 q 275 653 278 651 q 272 656 272 656 q 244 606 271 625 q 186 594 217 588 q 138 635 153 603 q 139 696 122 668 q 114 706 124 700 q 90 733 99 717 q 79 808 68 771 q 125 865 89 846 q 185 874 153 881 q 218 943 188 910 q 303 986 251 979 q 394 965 357 993 q 425 918 421 946 q 543 942 482 961 q 600 899 583 931 q 608 871 607 883 q 674 872 638 886 q 728 822 714 857 q 726 763 739 796 q 689 708 715 732 q 686 706 688 707 q 704 692 696 701 q 714 644 719 674 q 699 603 710 619 q 668 578 686 582 q 654 521 672 547 q 609 485 639 496 q 553 486 579 475 q 532 439 556 461 q 528 435 531 438 q 524 432 525 433 q 557 421 542 431 q 588 382 582 407 q 644 390 613 394 q 694 364 675 385 q 715 306 717 338 q 704 271 714 285 q 718 263 713 267 m 717 114 q 736 185 739 149 q 701 244 733 224 q 685 253 692 250 q 682 250 683 251 q 674 254 678 249 q 644 254 669 256 q 639 257 640 253 q 640 264 638 261 q 679 276 653 278 q 681 276 681 276 q 692 307 692 296 q 675 350 692 333 q 631 369 658 369 q 582 354 603 369 q 572 353 578 350 q 567 363 567 357 q 538 406 565 393 q 490 415 528 411 q 461 418 474 411 q 461 428 456 421 q 485 438 468 432 q 511 450 503 444 q 533 473 524 458 q 533 497 542 488 q 534 506 531 501 q 542 508 538 510 q 591 507 564 500 q 633 533 618 514 q 649 583 650 554 q 631 632 649 611 q 635 636 631 635 q 661 600 653 622 q 693 644 683 606 q 692 681 697 665 q 676 697 688 693 q 638 685 654 682 q 636 690 633 686 q 647 697 639 692 q 660 707 656 703 q 683 731 682 729 q 708 789 706 760 q 679 840 710 822 q 636 853 658 853 q 604 842 622 851 q 602 838 603 840 q 600 833 601 835 q 588 829 594 826 q 583 840 582 832 q 572 893 588 871 q 528 922 557 915 q 470 918 499 928 q 421 888 442 908 q 409 886 415 882 q 404 899 403 890 q 397 931 408 915 q 368 954 386 946 q 294 963 336 972 q 229 924 254 953 q 196 858 217 911 q 190 853 194 853 q 185 860 185 854 l 185 863 q 135 845 158 863 q 106 803 111 828 q 114 749 99 775 q 132 726 119 740 q 154 708 146 711 q 160 696 164 707 q 156 649 147 674 q 192 618 165 624 q 238 629 217 611 q 258 674 257 647 q 263 680 258 679 q 269 675 268 681 q 270 673 269 675 q 271 671 271 671 q 311 664 286 660 q 351 689 333 667 q 375 738 369 708 q 382 764 379 747 q 385 792 382 765 q 388 794 385 794 q 392 792 390 794 q 400 760 397 783 q 400 747 401 753 q 426 724 410 732 q 485 714 451 711 q 492 710 489 714 q 492 703 494 706 q 500 601 474 646 q 499 589 503 596 q 490 583 496 582 q 438 565 461 586 q 411 511 406 538 q 408 505 413 507 q 401 506 404 503 q 356 529 381 524 q 307 524 332 535 q 278 485 289 513 q 274 435 269 468 q 270 431 274 432 q 265 432 267 429 q 254 456 258 440 q 240 451 247 454 q 218 436 225 446 q 218 389 201 414 q 258 364 231 369 q 292 364 272 361 q 306 368 297 365 q 324 374 322 372 q 330 377 325 378 q 336 372 335 376 q 338 363 336 369 q 340 353 339 357 q 343 344 342 350 q 346 335 344 339 q 350 328 347 332 q 356 320 353 324 q 363 314 358 317 q 417 299 382 297 q 426 314 421 308 q 431 313 428 315 q 426 265 422 290 q 443 224 429 240 q 519 185 471 189 l 522 185 q 528 176 529 183 q 519 169 526 169 q 508 168 515 168 q 449 140 474 165 q 413 68 426 119 q 406 65 411 64 q 401 69 401 65 q 407 114 399 90 q 372 140 403 136 q 354 140 363 142 q 333 135 346 139 q 315 131 319 131 q 306 134 310 129 q 306 144 301 139 q 317 201 324 169 q 279 242 311 233 q 181 210 233 253 q 174 209 178 207 q 171 215 169 211 q 186 238 176 228 q 138 265 169 261 q 86 250 107 268 q 67 200 61 231 q 81 173 69 185 q 106 160 92 161 q 113 156 111 160 q 113 147 115 151 q 102 85 97 119 q 131 28 107 50 q 184 5 151 8 q 243 14 217 1 q 263 26 250 24 q 269 24 267 28 q 267 17 271 19 q 254 -15 251 4 q 275 -43 257 -35 q 316 -42 294 -50 q 347 -14 338 -33 q 355 -10 350 -10 q 361 -17 360 -11 q 406 -58 365 -49 q 472 -56 446 -68 q 522 -12 507 -44 q 531 49 533 11 q 535 56 529 56 q 543 53 540 57 q 546 49 544 51 q 547 46 547 47 q 610 22 586 19 q 640 39 628 24 q 639 71 651 54 q 639 85 633 78 q 651 88 644 92 q 689 87 672 79 q 717 114 706 94 z "},"4":{"ha":878,"x_min":50,"x_max":821,"o":"m 765 50 q 792 -3 792 31 q 779 -38 792 -24 q 747 -57 767 -53 q 692 -46 718 -62 q 657 -3 665 -29 q 629 -37 649 -22 q 543 -40 589 -67 q 511 -7 522 -28 q 501 36 500 14 q 517 78 504 61 q 532 93 525 88 q 542 99 538 97 q 522 140 525 111 q 529 182 519 164 q 493 200 507 182 q 485 214 489 206 q 433 178 465 185 q 397 178 417 174 q 363 196 376 183 q 363 186 363 190 q 346 163 358 172 q 292 146 321 140 q 253 167 269 149 q 235 207 236 185 q 233 206 235 206 q 215 194 226 199 q 174 188 194 186 q 104 236 125 193 q 106 321 82 282 q 115 333 110 326 q 94 344 103 335 q 79 403 76 361 q 104 460 83 439 q 69 483 85 465 q 53 551 50 508 q 94 656 58 625 q 71 674 79 661 q 54 717 56 693 q 93 783 53 760 q 75 810 79 803 q 64 851 65 832 q 90 922 60 897 q 161 936 121 946 q 197 919 181 932 q 217 899 207 911 q 229 917 221 911 q 268 919 251 935 q 281 896 278 911 q 325 908 303 910 q 374 882 356 906 q 376 832 390 858 q 353 807 368 814 q 373 774 367 796 q 375 733 379 753 q 343 682 368 704 q 304 663 328 669 q 333 565 339 638 q 308 501 328 524 q 290 485 301 492 q 336 458 319 483 q 343 410 350 438 q 335 383 342 394 q 372 382 356 388 q 406 360 394 375 q 417 376 411 369 q 460 403 436 397 q 515 396 488 410 q 510 442 508 417 q 535 497 514 478 q 499 528 514 503 q 479 601 482 553 q 522 717 476 681 q 505 752 504 731 q 522 786 506 774 q 497 817 506 796 q 492 857 489 838 q 532 917 496 893 q 578 944 550 935 q 633 950 607 953 q 689 928 664 949 q 717 879 714 907 q 786 853 776 892 q 783 822 790 838 q 760 797 775 806 q 793 753 789 788 q 763 682 797 717 q 776 672 771 678 q 796 646 789 663 q 804 571 808 618 q 781 501 799 525 q 751 475 767 483 q 775 461 764 471 q 794 438 786 451 q 804 410 801 424 q 797 349 810 376 q 771 314 788 328 q 794 261 799 294 q 774 228 792 240 q 797 207 786 219 q 819 149 818 181 q 765 50 821 89 m 733 -36 q 768 -3 767 -36 q 742 42 769 29 q 738 51 738 44 q 742 58 738 57 q 783 94 767 71 q 799 143 799 117 q 783 189 799 168 q 765 208 776 199 q 758 213 764 208 q 750 219 753 217 q 740 222 743 221 q 739 228 738 224 q 743 232 738 232 l 744 232 q 753 238 747 235 q 763 244 760 242 q 770 252 767 247 q 775 263 774 257 q 772 288 779 276 q 750 304 764 300 q 744 311 744 306 q 749 321 743 317 q 775 356 765 333 q 782 400 785 378 q 765 444 781 422 q 729 468 750 467 q 725 468 728 468 q 721 472 721 468 q 724 475 721 475 q 729 476 726 476 q 735 481 732 478 q 742 485 739 483 q 747 490 744 488 q 761 510 756 499 q 781 567 776 535 q 779 626 785 600 q 765 654 775 640 q 743 668 756 668 q 735 674 738 668 q 736 686 732 681 q 746 696 739 689 q 756 707 753 703 q 763 718 758 711 q 770 731 768 725 q 772 744 772 738 q 770 764 774 754 q 760 781 767 774 q 744 792 753 789 l 743 792 q 738 796 739 790 q 742 800 738 800 q 765 819 758 804 q 765 850 772 835 q 708 856 756 872 q 700 856 704 853 q 696 865 696 860 q 674 911 694 893 q 624 931 653 929 q 569 925 594 932 q 513 861 521 899 q 519 823 508 840 q 549 797 529 806 q 555 790 554 796 q 549 782 556 783 q 524 756 528 776 q 539 722 521 735 q 540 711 547 718 q 503 607 503 668 q 515 543 503 567 q 532 522 521 532 q 544 514 536 518 q 554 508 551 510 l 556 508 l 557 510 q 562 506 561 510 q 560 501 563 503 q 557 500 558 501 q 553 497 556 499 l 551 497 q 538 468 543 488 q 531 433 531 451 q 551 360 531 400 q 549 349 556 353 q 538 351 542 344 q 506 378 526 369 q 465 382 485 386 q 432 361 446 378 q 419 344 424 353 q 410 326 411 328 q 404 323 410 322 q 400 328 399 324 q 399 328 400 328 q 399 329 399 329 q 364 365 389 357 q 315 358 335 374 q 309 359 313 356 q 307 367 306 363 q 314 388 308 368 q 317 398 315 392 q 321 407 319 404 q 319 443 325 429 q 293 468 311 461 q 257 468 275 475 q 254 470 256 468 q 254 472 253 472 q 253 476 253 474 q 256 481 253 479 q 279 496 275 492 q 293 515 285 503 q 311 568 308 543 q 282 658 317 639 q 279 663 279 660 q 282 669 279 667 q 324 696 301 678 q 351 733 344 715 q 328 808 363 767 q 326 811 325 810 q 331 819 326 817 q 358 840 354 833 q 356 872 367 858 q 317 888 338 890 q 278 869 296 885 q 267 868 274 865 q 261 878 260 871 q 256 903 263 897 q 239 899 249 910 q 230 880 232 892 q 231 860 228 868 q 230 856 232 857 q 226 856 228 854 q 214 889 213 869 q 156 914 186 910 q 107 900 126 917 q 92 847 89 883 q 99 815 93 833 q 115 786 107 792 q 117 778 118 782 q 113 771 117 774 q 79 718 78 754 q 92 688 79 701 q 117 667 108 669 q 122 660 121 664 q 119 653 124 657 q 79 565 88 626 q 78 538 76 553 q 83 511 79 524 q 98 490 88 499 q 124 479 108 481 q 129 476 125 479 q 156 478 143 483 q 158 476 157 478 q 157 472 158 474 q 136 463 139 463 q 119 447 126 456 q 104 406 106 429 q 113 363 101 375 q 128 353 115 358 q 139 350 135 350 q 178 358 158 360 q 180 356 179 358 q 178 351 181 353 q 128 310 144 342 q 126 250 111 279 q 178 213 144 217 q 208 217 194 213 q 239 233 233 222 q 247 236 242 238 q 251 229 253 235 q 263 191 251 208 q 293 171 274 174 q 329 183 314 168 q 353 213 353 206 q 351 219 351 217 q 356 226 351 224 q 364 226 360 229 q 394 203 382 207 q 432 204 415 197 q 467 228 447 210 q 475 238 471 232 q 483 249 479 243 q 490 260 488 256 q 495 260 493 261 q 499 257 497 260 q 500 253 501 256 q 506 213 497 224 q 547 204 522 194 q 558 199 554 206 q 556 188 561 193 q 546 142 540 169 q 556 119 547 133 q 564 101 564 104 q 564 95 565 99 q 558 92 563 92 q 547 81 557 92 q 535 67 542 76 q 525 36 525 53 q 554 -19 521 0 q 619 -17 589 -39 q 642 10 631 -6 q 647 26 644 15 q 651 40 650 36 q 658 40 654 44 q 660 35 658 39 q 665 31 665 36 q 688 -17 669 4 q 733 -36 707 -37 z "},"5":{"ha":878,"x_min":33,"x_max":840,"o":"m 788 300 q 817 267 808 286 q 821 210 831 240 q 785 168 810 178 q 761 164 772 163 q 771 125 772 149 q 740 57 769 88 q 669 28 708 25 q 629 47 643 32 q 608 -4 625 15 q 547 -37 585 -35 q 497 -28 521 -40 q 461 7 472 -15 q 435 -24 453 -12 q 396 -35 417 -35 q 342 -6 364 -33 q 328 29 329 10 q 304 -1 317 8 q 256 -25 282 -18 q 153 0 199 -42 q 118 96 107 40 q 147 151 124 122 q 176 176 161 171 q 156 200 161 192 q 142 236 144 215 q 150 308 133 274 q 203 349 167 342 q 263 324 242 354 q 275 276 272 308 q 326 264 306 286 q 336 253 331 261 q 360 288 342 271 q 415 313 385 313 q 474 288 451 314 q 489 257 486 275 q 497 267 494 264 q 513 274 504 272 q 506 300 506 286 q 526 351 503 328 q 515 349 521 349 q 483 353 499 349 q 436 375 457 358 q 407 444 403 403 q 401 439 404 442 q 375 425 392 431 q 315 417 346 414 q 292 425 303 419 q 272 438 281 431 q 256 456 263 446 q 244 479 249 467 q 189 429 228 444 q 108 438 143 411 q 81 517 71 465 q 122 578 89 554 q 111 583 117 579 q 99 613 99 596 q 110 643 99 629 q 99 647 106 644 q 69 692 75 663 q 79 746 65 718 q 94 769 86 760 q 113 783 101 776 q 51 822 67 792 q 64 904 35 863 q 138 950 96 951 q 181 922 169 949 q 188 931 183 926 q 208 947 197 940 q 263 961 236 964 q 301 947 283 960 q 324 915 318 933 q 460 946 397 958 q 521 915 494 938 q 533 903 524 913 l 535 904 q 538 907 536 907 q 540 910 540 910 q 550 917 544 914 q 563 917 554 918 q 575 908 569 914 q 591 929 581 919 q 614 945 601 939 q 640 955 626 951 q 665 960 653 958 q 726 932 707 961 q 735 901 736 915 q 767 900 750 904 q 797 886 783 896 q 817 864 810 876 q 808 788 839 825 q 779 761 794 771 q 794 717 796 744 q 769 658 793 682 q 703 646 736 628 q 672 679 685 654 q 638 656 658 658 q 597 672 613 654 q 586 658 593 664 q 561 642 578 649 q 500 636 533 629 q 478 642 489 638 q 459 654 468 647 q 442 669 450 661 q 428 686 435 676 q 417 707 421 696 q 416 705 417 706 q 415 704 415 704 q 394 688 406 693 q 369 682 383 683 q 386 643 385 664 q 383 618 388 632 q 422 618 401 621 q 485 571 464 610 q 536 607 515 599 q 606 607 571 621 q 652 565 636 596 q 653 506 668 533 q 726 488 697 518 q 740 449 740 471 q 733 422 740 433 q 804 372 788 411 q 806 325 814 347 q 788 300 801 308 m 801 224 q 796 265 806 244 q 768 293 786 285 q 764 299 764 294 q 768 307 764 304 q 786 335 782 314 q 782 369 790 356 q 714 410 765 400 q 710 415 711 411 q 711 422 708 419 q 719 451 721 433 q 708 478 718 468 q 639 496 690 497 q 637 497 638 496 q 638 500 636 499 q 636 504 636 503 q 632 559 643 535 q 592 593 621 583 q 533 592 564 603 q 489 556 503 581 q 483 551 486 551 q 476 556 479 551 q 415 594 451 588 q 365 588 394 599 q 338 579 350 571 q 333 586 333 581 q 337 596 333 592 q 345 605 340 600 q 353 613 350 610 q 363 642 363 628 q 353 669 363 657 q 336 688 346 681 q 332 689 335 688 q 328 692 329 690 q 326 699 325 694 q 332 703 326 704 q 385 703 375 700 q 411 726 404 710 q 411 731 411 728 q 411 733 410 732 q 414 735 413 735 q 419 735 417 736 q 422 731 422 733 l 422 724 q 501 660 464 669 q 549 664 522 654 q 588 696 578 675 q 594 700 589 700 q 603 696 600 700 q 633 675 613 675 q 654 682 644 675 q 664 699 664 689 q 670 708 664 707 q 681 704 676 710 q 713 668 701 674 q 757 681 735 656 q 774 721 772 697 q 764 753 775 738 q 735 750 749 747 q 731 756 732 751 q 735 763 731 761 q 799 856 828 806 q 763 881 789 872 q 724 875 738 889 q 711 875 718 869 q 708 886 704 881 q 703 925 722 906 q 658 936 689 940 q 606 915 629 932 q 581 871 583 899 q 577 867 581 868 q 572 869 574 867 q 572 875 572 872 q 571 881 571 878 l 568 882 q 568 883 568 882 q 567 883 568 883 q 565 888 567 885 q 565 889 565 889 q 564 890 564 889 l 563 892 l 561 893 q 560 894 560 893 l 558 894 l 557 894 l 554 894 l 553 894 l 551 894 l 551 893 l 550 893 l 549 893 q 547 892 549 892 l 546 890 l 544 889 q 543 888 544 889 q 549 860 546 881 q 546 857 549 857 q 542 858 543 857 q 531 873 539 864 q 522 882 522 882 q 504 901 508 897 q 451 925 481 919 q 322 886 389 935 q 310 887 315 883 q 304 896 304 890 q 289 928 304 915 q 254 939 274 940 q 213 925 235 939 q 196 911 207 921 q 183 903 189 906 q 181 900 182 899 l 179 899 q 171 900 175 894 q 171 904 169 901 q 173 908 172 906 q 175 911 174 910 q 151 927 168 924 q 122 924 135 931 q 81 882 96 911 q 81 826 64 849 q 128 792 89 815 q 129 783 135 788 q 104 746 119 772 q 92 707 92 726 q 107 671 92 682 q 117 665 111 667 q 131 661 124 663 q 140 658 138 660 q 143 650 147 656 q 136 644 139 646 q 119 618 121 629 q 124 598 118 608 q 139 588 131 588 q 146 583 144 588 q 144 576 147 579 q 108 514 114 540 q 126 457 97 476 q 189 453 153 438 q 218 469 201 458 q 229 480 221 472 q 243 490 238 488 q 245 494 243 493 q 250 492 247 494 q 319 439 274 444 q 369 446 344 435 q 392 457 381 450 q 414 471 411 468 q 424 467 422 478 q 424 451 424 464 q 426 431 425 439 q 431 417 426 424 q 457 390 439 401 q 499 375 474 381 q 522 372 522 372 q 533 367 525 371 q 543 364 540 364 q 548 360 547 364 q 546 356 549 357 q 525 300 519 339 q 554 251 531 265 q 551 246 557 249 q 519 264 525 257 q 503 250 513 260 q 489 225 497 242 q 481 221 488 219 q 475 228 475 222 q 456 274 475 254 q 410 290 436 293 q 369 267 389 288 q 356 249 364 261 q 342 231 347 236 q 329 201 340 215 q 323 199 326 197 q 321 206 319 201 q 324 229 326 215 q 313 250 321 243 q 271 254 294 269 q 257 263 257 246 q 236 318 257 301 q 206 324 221 328 q 179 307 190 319 q 163 240 156 281 q 174 208 165 229 q 186 179 181 189 q 190 180 188 179 q 192 181 192 181 q 197 175 196 181 q 194 168 199 169 q 161 133 182 164 q 142 88 144 106 q 174 14 136 44 q 256 -1 208 -15 q 294 17 278 6 q 331 50 322 38 q 335 52 332 53 q 339 49 339 51 q 347 21 339 35 q 367 -2 354 7 q 396 -11 381 -11 q 435 6 417 -12 q 456 46 453 24 q 460 51 456 50 q 465 47 465 51 q 467 40 467 44 q 497 -1 474 15 q 544 -14 519 -18 q 593 15 569 -11 q 618 68 617 43 q 622 74 618 72 q 629 72 626 75 q 678 53 651 51 q 724 76 704 54 q 748 122 743 97 q 739 172 753 147 q 740 178 739 175 q 743 179 740 179 q 763 181 760 179 q 782 192 771 182 q 801 224 797 204 z "},"6":{"ha":894,"x_min":40,"x_max":856,"o":"m 771 403 q 832 346 810 385 q 851 263 854 307 q 814 183 850 211 q 778 168 797 172 q 790 149 786 160 q 792 83 803 118 q 751 31 781 49 q 682 21 725 14 q 650 31 665 22 l 649 31 q 631 -26 653 1 q 581 -62 610 -54 q 503 -57 542 -74 q 460 -24 474 -44 q 451 -35 458 -28 q 425 -51 440 -46 q 361 -47 392 -67 q 326 6 332 -31 q 326 8 326 7 q 325 11 325 10 q 253 -11 296 -14 q 156 43 186 -6 q 143 149 126 90 q 158 186 149 172 q 146 185 150 185 q 114 192 128 186 q 79 240 83 206 q 83 270 79 254 q 94 301 86 286 q 114 324 103 315 q 74 357 90 333 q 49 409 57 381 q 43 463 42 438 q 75 558 46 515 q 107 596 90 582 q 128 611 121 607 q 131 613 129 613 q 113 656 110 628 q 135 693 114 676 q 161 706 144 701 q 140 762 140 728 q 158 819 139 796 q 208 850 176 842 q 264 844 239 858 q 283 903 261 875 q 336 946 306 932 q 422 954 385 965 q 463 924 450 947 q 525 954 490 947 q 594 949 560 961 q 642 910 621 938 q 657 854 663 882 q 724 875 683 875 q 786 831 771 872 q 774 749 801 790 q 746 719 761 728 q 758 690 756 710 q 754 654 763 667 q 721 610 746 626 q 647 604 682 583 q 618 649 622 618 q 590 628 607 633 q 553 628 572 622 q 524 647 535 633 q 511 672 514 658 q 493 657 504 663 q 421 654 460 636 q 425 638 424 649 q 413 593 425 613 q 365 553 397 561 q 394 504 390 533 q 394 503 394 504 q 394 501 394 501 q 453 531 421 526 q 501 526 478 535 q 539 496 525 517 q 668 544 606 565 q 713 503 701 533 q 715 469 718 486 q 758 461 738 476 q 774 433 771 450 q 771 403 778 417 m 750 185 q 805 213 783 189 q 825 272 826 238 q 806 342 825 307 q 756 389 786 378 q 749 403 744 392 q 743 447 764 431 q 707 451 729 457 q 706 449 706 449 q 699 449 701 444 q 694 454 694 449 q 696 456 696 456 q 694 467 694 461 q 692 481 693 474 q 690 492 692 488 q 654 522 683 515 q 543 472 599 536 q 535 469 540 468 q 528 474 531 469 q 496 506 518 496 q 450 511 474 515 q 393 475 421 504 q 356 414 385 433 q 350 415 353 413 q 349 419 347 417 q 361 451 350 425 q 372 494 372 478 q 364 529 374 511 q 339 549 354 547 q 331 556 332 549 q 336 564 329 563 q 393 603 376 574 q 403 639 403 617 q 400 672 406 663 q 397 675 399 672 q 394 679 396 678 q 396 688 392 683 q 406 690 400 693 q 481 678 449 665 q 510 704 499 685 q 517 742 521 724 q 518 747 515 746 q 521 744 521 747 q 522 693 532 718 q 554 651 528 664 q 582 650 565 647 q 599 654 588 650 q 611 661 603 656 q 622 664 621 667 q 624 658 624 663 q 660 623 631 631 q 710 633 689 615 q 733 676 729 647 q 732 704 733 697 q 728 713 732 708 q 725 717 728 714 q 719 721 722 718 q 714 725 718 722 q 708 729 710 728 q 707 731 707 729 q 710 733 707 733 q 728 731 715 733 q 732 732 729 731 q 746 744 738 736 q 761 769 754 757 q 761 828 775 801 q 738 845 753 840 q 712 849 722 850 q 678 842 701 847 q 651 835 656 836 q 650 833 650 833 q 646 831 649 831 q 642 833 643 832 q 625 886 638 868 q 582 924 608 914 q 519 924 551 935 q 463 890 488 914 q 449 888 457 885 q 442 899 440 892 q 439 913 443 907 q 428 923 435 919 q 414 928 421 926 q 400 929 407 929 q 340 915 365 928 q 283 829 292 892 q 282 822 283 826 q 278 817 281 818 q 274 819 275 817 q 271 824 272 822 q 179 806 211 843 q 165 756 163 782 q 186 707 168 729 q 187 698 189 703 q 179 693 185 693 q 153 680 167 690 q 136 658 140 669 q 140 637 133 649 q 157 624 146 625 q 166 616 165 624 q 160 606 167 608 q 140 592 154 604 q 135 588 139 590 q 129 583 132 585 q 125 578 126 581 q 99 544 107 561 q 71 468 75 510 q 88 378 67 422 q 153 331 110 335 q 160 325 160 331 q 153 318 160 319 l 151 318 q 104 244 103 303 q 131 210 106 218 q 183 208 156 203 q 194 203 192 210 q 189 192 196 196 q 175 168 186 192 q 167 142 172 161 q 176 61 157 99 q 253 15 199 19 q 333 50 308 10 q 336 53 335 53 q 346 64 339 57 q 351 64 349 67 q 353 58 354 61 q 350 11 342 40 q 375 -25 356 -14 q 418 -28 392 -36 q 439 -18 431 -25 q 454 -1 453 -7 q 461 7 454 6 q 471 0 468 8 q 515 -37 482 -26 q 575 -37 547 -47 q 631 44 624 -21 q 628 51 628 49 q 632 58 628 57 q 650 53 636 60 q 665 49 654 51 q 699 44 685 44 q 756 68 736 44 q 772 131 776 93 q 763 157 769 146 q 744 171 758 164 q 742 173 743 172 q 739 174 740 174 q 736 180 735 175 q 742 185 738 185 l 746 185 l 750 185 m 632 228 q 649 203 640 208 q 646 197 651 200 q 639 200 642 197 q 636 199 639 200 q 631 197 632 197 q 621 193 626 197 q 606 182 610 188 q 595 165 601 176 q 585 147 589 153 q 580 145 583 144 q 576 149 576 146 l 576 150 q 567 161 572 156 q 560 167 564 163 q 557 169 558 168 q 554 171 556 169 q 551 174 553 172 q 514 188 533 186 q 442 163 472 193 q 436 159 440 158 q 432 164 432 160 q 419 225 433 204 q 388 246 407 242 q 361 240 371 238 q 357 253 353 244 l 358 254 q 381 269 363 258 q 403 288 394 278 q 415 351 426 315 q 416 356 414 354 q 419 356 418 357 q 439 349 421 354 q 454 343 444 346 q 488 336 476 335 q 522 358 511 338 q 526 374 524 367 q 526 376 526 375 q 529 379 526 379 q 531 382 529 379 l 533 381 q 532 378 532 379 q 535 353 538 365 q 557 325 540 335 q 594 321 572 317 q 601 322 597 321 q 609 323 606 322 q 615 324 613 324 q 628 325 622 325 q 629 325 628 325 q 631 325 631 325 q 638 318 638 325 q 632 306 638 317 q 628 290 631 301 q 625 257 624 272 q 632 228 625 242 m 594 200 q 618 211 607 210 q 617 213 617 211 q 614 214 615 214 q 603 254 604 229 q 608 297 603 282 q 590 294 604 296 q 542 308 563 293 q 525 333 531 317 q 500 315 514 319 q 453 317 478 307 q 433 328 443 319 l 431 329 q 424 281 436 304 q 400 254 415 265 q 428 236 418 249 q 446 179 449 213 q 469 200 456 193 q 521 208 493 213 q 569 185 550 204 q 572 182 571 183 q 576 178 574 181 q 579 175 578 176 q 594 200 583 189 z "},"7":{"ha":811,"x_min":26,"x_max":778,"o":"m 761 768 q 772 714 776 746 q 747 665 767 685 q 719 649 735 653 q 724 646 721 649 q 738 625 732 636 q 743 578 747 600 q 718 535 739 553 q 697 522 710 526 q 710 506 704 517 q 706 449 719 476 q 668 421 694 426 q 644 422 656 419 q 642 424 643 424 q 647 401 647 411 q 638 342 653 369 q 592 304 622 315 q 550 301 572 297 q 538 228 567 261 q 489 204 521 206 q 504 171 501 190 q 497 111 511 140 q 454 65 485 81 q 426 56 439 58 q 431 -1 447 28 q 394 -28 418 -22 q 354 -18 369 -33 q 307 -72 340 -57 q 213 -82 258 -97 q 176 -58 190 -75 q 161 -18 163 -42 q 171 17 161 1 q 146 17 158 13 q 110 51 119 25 q 109 81 106 67 q 122 107 113 96 q 146 124 132 118 q 135 132 142 126 q 117 163 122 143 q 133 239 104 199 q 194 281 158 272 q 233 279 217 286 q 240 339 218 308 q 279 369 257 361 q 307 371 296 374 q 300 403 299 392 q 317 442 303 424 q 349 465 328 457 q 368 469 357 469 q 358 494 363 479 q 372 551 354 524 q 418 594 390 579 q 436 601 428 600 q 426 621 429 611 q 425 657 421 640 q 403 649 414 651 q 357 660 378 646 q 342 674 346 665 q 336 654 342 664 q 317 639 328 643 q 293 633 304 633 q 250 650 265 632 q 249 653 250 651 q 247 656 247 656 q 244 653 246 656 q 243 650 243 651 q 217 631 232 636 q 156 625 189 617 q 104 660 122 633 q 96 713 86 685 q 107 729 101 722 q 86 736 96 729 q 61 779 64 750 q 76 828 58 807 q 78 829 78 828 q 81 831 79 831 q 54 844 64 835 q 40 913 26 872 q 88 961 50 946 q 157 958 124 976 q 181 924 176 947 q 210 953 190 944 q 283 963 238 965 q 382 906 360 957 q 440 932 403 928 q 482 922 468 933 q 494 907 492 915 q 539 928 513 928 q 583 908 565 929 q 588 913 586 911 q 626 932 604 926 q 711 932 675 944 q 760 882 746 919 q 756 810 774 843 q 733 786 747 794 q 742 783 740 785 q 761 768 751 779 m 749 715 q 747 756 754 736 q 725 782 740 775 q 697 778 706 774 q 697 782 693 779 q 706 785 700 783 q 715 788 713 786 q 731 803 722 790 q 743 840 740 813 q 719 901 746 881 q 639 914 692 924 q 600 901 617 911 q 583 890 589 896 q 580 887 582 889 q 576 883 578 885 q 571 879 574 881 q 568 881 568 878 q 574 896 568 886 q 532 911 556 914 q 496 885 508 908 q 490 882 494 881 q 485 889 485 883 q 479 903 485 897 q 465 912 474 910 q 447 915 457 914 q 432 914 438 915 q 386 882 399 908 q 378 878 383 876 q 369 883 372 879 q 281 939 354 933 q 182 904 204 944 q 178 903 181 901 q 176 907 175 904 q 138 939 167 932 q 107 939 122 943 q 80 924 92 935 q 65 899 68 914 q 75 858 60 875 q 93 846 81 853 q 103 843 97 844 q 119 843 108 844 q 122 840 121 842 q 121 838 122 839 q 118 836 119 836 q 117 835 118 835 l 115 835 q 96 814 103 825 q 88 781 85 799 q 100 753 90 765 q 118 738 111 742 q 140 742 129 744 q 142 740 142 742 q 140 738 142 738 q 119 714 128 735 q 115 690 114 703 q 146 654 119 668 q 203 646 174 640 q 228 658 217 649 q 239 668 231 660 q 240 669 239 668 q 242 669 242 669 q 246 688 242 678 q 247 688 246 688 q 249 686 249 688 q 250 681 249 685 q 251 679 251 681 l 251 678 q 264 663 256 668 q 294 657 278 654 q 321 671 311 658 q 322 673 321 671 q 325 676 324 675 q 329 683 326 679 q 333 692 332 688 q 333 694 333 693 q 335 699 332 699 q 342 697 339 700 q 356 688 342 697 q 369 678 365 681 q 400 674 383 672 q 428 685 413 675 q 440 694 435 689 q 450 708 447 701 q 453 709 451 710 q 456 707 456 708 q 451 686 454 692 q 444 675 449 681 l 444 671 q 444 657 444 667 q 445 650 444 654 q 446 643 446 646 q 449 629 446 640 q 461 611 451 621 q 468 601 468 604 q 474 600 472 600 q 478 597 478 597 q 478 596 478 596 q 474 592 478 592 q 449 586 465 592 q 428 574 438 581 q 394 540 407 560 q 381 499 381 521 q 392 460 381 481 q 392 457 393 458 q 390 456 392 456 q 382 458 383 457 q 372 456 374 456 q 358 449 365 453 q 333 429 342 442 q 321 396 325 417 q 322 364 317 372 q 319 356 326 357 q 303 352 314 353 q 288 349 293 351 q 261 328 272 342 q 247 299 254 319 q 249 271 242 283 q 257 261 253 267 q 254 256 258 258 q 199 257 233 269 q 157 228 176 250 q 138 172 136 203 q 147 144 139 156 q 168 129 161 129 q 174 125 172 129 q 171 118 175 121 q 131 61 122 96 q 153 31 136 39 q 185 31 167 25 q 206 40 196 38 q 208 39 207 40 q 207 36 210 38 q 189 10 196 26 q 183 -21 182 -6 q 229 -64 190 -56 q 300 -53 268 -69 q 344 1 340 -32 q 350 9 344 7 q 358 6 356 11 q 386 -9 368 -12 q 414 11 404 -6 q 415 41 422 28 q 389 57 407 54 q 383 64 383 58 q 389 71 383 69 q 407 71 397 72 q 443 83 422 72 q 476 117 464 94 q 485 163 488 138 q 469 207 483 189 q 456 213 460 210 q 457 215 456 214 q 494 221 475 214 q 522 242 513 228 q 526 310 544 268 q 528 317 525 314 q 536 321 532 321 q 583 321 558 311 q 621 351 608 331 q 626 400 632 374 q 620 419 626 404 q 615 442 614 433 q 617 443 615 443 q 636 433 628 443 q 646 432 639 432 q 660 436 651 433 q 685 451 676 440 q 692 491 696 467 q 669 519 689 515 q 667 524 667 521 q 669 528 667 528 q 678 531 669 528 q 704 551 688 533 q 722 583 719 565 q 718 621 726 601 q 710 638 714 632 q 706 643 708 639 l 701 650 l 700 650 q 699 654 696 651 l 700 654 q 701 657 700 657 q 715 667 706 660 q 729 681 724 675 q 749 715 744 694 z "},"8":{"ha":819,"x_min":40,"x_max":775,"o":"m 767 222 q 756 128 775 167 q 707 85 738 93 q 710 79 708 83 q 700 26 721 51 q 643 4 679 1 q 599 25 617 7 q 571 -17 588 1 q 531 -49 554 -36 q 427 -86 482 -76 q 317 -82 372 -96 q 226 -26 263 -65 q 199 36 199 3 q 146 15 176 15 q 68 56 96 14 q 54 154 40 97 q 92 222 64 197 q 68 246 76 231 q 63 292 57 268 q 76 316 67 306 q 98 333 85 326 q 125 339 111 339 q 139 421 108 385 q 181 447 156 440 q 171 456 176 450 q 150 538 142 488 q 101 553 124 535 q 71 613 72 575 q 90 680 69 647 q 142 725 110 713 q 122 779 122 758 q 150 833 124 813 q 187 847 165 846 q 225 838 208 849 q 232 888 218 863 q 296 936 251 919 q 389 944 342 954 q 447 911 431 935 q 512 938 475 933 q 581 928 549 942 q 633 881 622 911 q 628 832 642 856 q 668 815 653 835 q 674 757 689 786 q 679 754 675 756 q 714 736 699 746 q 757 679 747 719 q 750 609 765 644 q 704 554 735 574 q 706 512 711 533 q 690 474 701 490 q 650 438 675 449 q 697 403 679 428 q 710 358 711 382 q 703 336 707 346 q 696 328 699 331 q 694 328 694 328 q 731 304 715 321 q 767 222 761 272 m 738 147 q 742 222 747 179 q 722 279 739 251 q 681 321 706 307 q 678 322 678 322 q 657 329 665 328 q 658 333 656 331 q 676 332 664 333 q 678 333 678 332 q 678 335 678 333 q 681 339 681 338 q 683 343 682 340 q 685 346 683 346 q 689 360 689 354 q 681 393 690 376 q 653 418 672 406 q 628 431 640 428 q 611 428 621 428 q 610 433 606 428 q 611 436 610 435 q 621 438 614 438 q 668 481 651 453 q 683 513 679 496 q 678 549 688 540 q 674 559 674 553 q 681 568 675 565 q 724 610 708 582 q 735 669 740 639 q 706 719 728 700 q 654 739 676 744 q 642 746 646 738 q 646 758 638 754 q 657 778 657 763 q 650 803 657 793 q 631 817 643 814 q 607 813 618 821 q 602 813 604 811 q 601 817 600 815 q 617 829 607 825 q 610 879 628 851 q 561 910 596 900 q 453 888 492 926 q 436 890 443 879 q 378 921 426 913 q 311 914 343 925 q 256 876 276 903 q 246 817 235 850 q 244 812 247 814 q 239 813 242 810 l 238 814 q 165 815 193 836 q 144 775 146 801 q 160 726 142 749 q 163 720 163 725 q 158 714 163 715 q 128 692 142 707 q 106 660 114 678 q 96 624 97 642 q 113 572 93 592 q 158 553 133 547 q 165 551 163 554 q 167 544 168 549 q 185 469 160 497 q 246 447 200 453 q 248 444 247 446 q 247 440 249 442 q 207 433 232 426 q 157 410 171 425 q 143 332 126 375 q 142 325 144 328 q 136 322 139 322 q 103 312 118 322 q 85 285 89 301 q 90 254 82 271 q 111 232 97 238 q 115 224 115 229 q 111 218 115 219 q 76 150 88 204 q 83 74 67 106 q 143 35 103 38 q 206 64 175 35 l 207 67 l 208 67 q 215 67 211 68 q 217 61 218 65 q 213 54 215 58 q 229 -1 213 18 q 272 -37 243 -18 q 390 -68 326 -71 q 508 -36 453 -65 q 590 44 564 -7 q 597 49 592 49 q 604 44 601 49 q 639 24 615 28 q 678 33 663 21 q 692 68 697 47 q 665 93 688 89 q 661 99 661 94 q 665 104 661 103 q 692 100 678 107 q 718 117 714 111 q 738 147 729 128 m 535 272 q 540 269 539 272 q 540 264 542 267 q 513 249 532 250 q 508 244 513 249 q 494 224 499 235 q 488 196 490 213 q 488 179 486 185 q 503 153 500 168 q 501 149 504 150 q 497 150 499 147 q 442 178 479 179 q 419 172 431 176 q 392 159 408 168 q 371 147 376 150 q 363 153 364 143 q 357 165 361 160 q 346 171 353 169 q 333 173 339 172 q 319 174 328 174 q 307 175 310 175 q 294 174 299 174 q 292 178 290 175 q 318 213 314 200 q 310 254 325 236 q 308 268 306 261 q 318 276 310 275 q 364 293 346 276 q 386 343 383 311 q 388 346 386 346 q 390 344 390 346 q 392 324 393 333 q 418 300 400 304 q 444 301 428 297 q 457 306 453 304 q 463 307 463 307 q 466 308 464 308 q 469 308 468 308 q 472 308 471 310 q 472 306 474 307 q 475 288 471 299 q 485 272 478 276 q 501 267 496 267 q 518 269 507 267 q 535 272 529 272 m 476 229 q 489 250 482 242 q 474 258 479 253 q 458 285 460 269 l 458 289 q 443 282 451 285 q 408 285 425 276 q 388 304 394 292 q 338 254 375 268 q 339 208 347 232 q 329 193 335 199 q 372 167 363 193 q 447 196 406 200 q 474 189 460 196 q 473 192 474 190 q 472 193 472 193 q 476 229 471 213 m 300 600 q 297 601 299 599 q 297 604 294 603 l 297 606 l 297 607 q 308 628 297 610 q 319 649 318 644 q 319 669 322 657 q 308 685 317 682 q 303 694 301 688 q 310 700 304 700 q 361 717 340 701 q 386 765 383 733 q 388 767 386 767 q 390 765 390 768 q 393 740 394 753 q 400 728 394 735 q 419 724 406 722 q 460 742 433 726 q 467 741 464 744 q 468 735 469 738 q 469 717 464 728 q 482 703 475 707 q 504 697 486 700 q 518 696 511 694 q 529 700 525 699 q 538 696 538 704 q 535 692 538 693 q 518 685 525 686 q 517 683 518 683 q 514 682 515 682 q 494 644 499 668 q 494 611 494 639 q 494 602 494 608 q 493 592 493 596 q 497 578 497 585 q 493 576 494 575 l 492 578 q 490 578 490 578 q 489 579 490 578 q 488 581 488 581 q 481 588 486 582 q 471 597 475 594 q 440 608 458 607 q 408 603 425 611 q 383 581 390 594 q 377 578 382 578 q 371 581 372 578 q 347 605 363 597 q 314 607 331 613 q 301 601 310 604 l 300 600 m 332 683 q 339 651 342 669 q 328 622 338 636 q 379 599 361 625 q 400 617 388 610 q 440 625 421 628 q 475 613 458 624 q 479 651 472 632 q 494 678 485 668 q 468 688 481 678 q 453 713 456 699 q 453 724 451 718 q 410 713 428 710 q 390 724 396 714 l 389 725 q 374 703 383 715 q 332 683 357 685 z "},"9":{"ha":896,"x_min":39,"x_max":856,"o":"m 532 594 q 543 593 539 594 q 544 592 544 593 q 543 590 544 590 q 540 590 543 590 q 533 589 536 589 q 531 586 533 588 l 528 583 q 522 581 526 583 q 514 576 517 578 q 490 557 496 564 q 488 556 489 557 q 486 553 486 554 q 485 551 486 553 q 485 549 485 550 q 474 518 478 536 q 471 497 471 506 q 471 481 474 489 q 465 475 471 475 q 458 481 460 475 q 454 490 457 483 q 413 506 447 501 q 381 506 393 507 q 367 499 381 506 q 343 475 358 483 q 338 476 340 474 q 338 479 336 478 q 356 546 358 521 q 349 566 354 557 q 334 581 343 575 q 315 589 325 588 q 307 597 307 589 q 313 610 307 606 q 344 666 343 629 q 314 722 344 703 q 314 726 313 724 q 317 728 315 729 q 346 707 333 721 q 350 708 347 708 q 390 724 372 710 q 408 760 407 738 q 418 769 410 768 q 429 763 426 771 q 464 722 439 736 q 489 714 478 715 q 519 717 513 710 l 522 715 q 515 707 519 710 q 508 692 514 704 q 506 684 508 689 q 504 676 504 679 q 501 644 499 658 q 510 618 503 629 q 518 604 513 611 q 526 597 518 604 q 529 596 528 597 q 531 594 529 594 q 532 594 532 594 m 501 590 q 503 592 501 592 q 504 592 504 592 q 494 603 499 596 q 481 663 476 629 q 489 690 482 676 q 494 697 490 692 q 458 701 478 694 q 422 731 436 711 q 356 692 400 689 q 364 663 363 678 q 342 603 365 629 q 372 569 363 593 q 375 521 382 546 q 377 522 376 521 q 378 522 378 522 q 421 526 396 531 q 451 517 438 524 l 451 519 q 454 539 453 532 q 475 572 460 556 q 493 586 485 582 q 500 590 499 590 q 501 590 500 590 m 833 489 q 850 390 854 438 q 815 304 844 342 q 785 275 803 288 q 797 210 814 246 q 776 188 790 197 q 747 178 763 178 q 761 136 760 160 q 739 68 765 99 q 676 32 715 38 q 633 43 650 28 q 614 -14 636 15 q 547 -53 590 -44 q 483 -54 519 -62 q 433 -21 447 -46 q 363 -53 401 -62 q 335 -26 339 -49 q 335 -24 335 -26 q 335 -19 333 -21 q 285 -35 313 -35 q 235 -19 257 -35 q 201 22 213 -4 q 196 75 190 49 q 185 72 193 74 q 160 74 176 71 q 118 93 136 79 q 90 135 97 110 q 93 183 83 160 q 168 246 111 231 q 233 233 215 257 q 273 258 249 250 q 319 264 297 267 q 368 240 347 260 q 396 194 389 221 q 454 210 426 214 q 492 188 478 207 q 496 208 492 189 q 519 247 503 231 q 590 276 547 276 q 571 354 564 310 l 571 356 q 564 358 565 358 q 553 369 556 364 q 531 343 544 354 q 483 324 510 326 q 435 335 456 322 q 415 308 428 319 q 388 292 403 297 q 354 285 372 286 q 300 306 322 285 q 278 357 278 326 q 213 346 243 342 q 156 376 178 351 q 135 435 132 401 q 143 463 135 450 q 149 471 144 468 q 85 492 117 467 q 44 571 49 521 q 61 655 39 613 q 121 721 83 697 q 101 767 101 738 q 124 832 100 801 q 188 871 150 864 q 224 871 206 874 q 250 857 238 867 q 267 900 251 878 q 332 949 293 933 q 399 951 365 961 q 451 911 433 940 q 528 947 481 951 q 572 918 563 944 q 574 886 576 904 q 633 894 594 896 q 717 867 689 892 q 750 792 749 839 q 743 743 753 768 q 728 713 739 731 q 774 697 753 713 q 806 658 796 682 q 808 600 818 631 q 782 561 799 574 q 833 489 811 539 m 826 396 q 811 485 829 440 q 789 526 806 500 q 768 557 772 551 q 763 560 765 557 q 764 567 761 564 q 788 604 783 593 q 788 649 796 628 q 713 693 771 693 q 706 697 708 693 q 706 706 703 701 q 728 789 731 740 q 703 850 726 826 q 631 872 681 869 q 593 869 608 872 q 583 867 589 869 q 572 863 578 865 q 561 861 567 861 q 561 860 561 860 q 553 859 558 857 q 550 865 549 861 q 552 879 550 869 q 554 894 554 889 q 553 908 554 899 q 518 926 547 928 q 494 920 506 925 q 474 907 483 915 q 460 888 465 899 q 450 879 457 879 q 440 888 443 879 q 398 926 429 915 q 339 925 367 938 q 284 888 307 915 q 264 829 261 860 q 260 824 264 825 q 256 826 257 822 q 250 846 251 835 q 221 850 246 847 q 193 849 206 851 q 147 824 165 843 q 125 774 128 804 q 140 728 121 736 q 147 722 146 726 q 144 713 149 717 q 89 656 100 672 q 67 581 67 619 q 97 510 68 536 q 158 479 119 488 q 161 480 160 479 q 163 482 163 481 q 167 481 165 482 q 167 478 168 479 q 157 454 161 471 q 154 431 153 443 q 176 389 157 407 q 228 367 197 371 q 285 375 260 364 q 292 374 289 376 q 294 367 294 371 q 310 322 289 339 q 360 306 332 304 q 375 310 367 306 q 378 311 375 311 q 403 329 383 314 q 421 353 417 340 q 435 358 424 364 q 518 361 482 336 q 542 395 533 374 q 549 438 551 417 q 549 439 549 438 l 553 439 q 560 394 564 417 l 561 394 q 563 388 561 390 l 563 386 q 564 385 564 386 q 565 384 564 385 q 565 382 565 383 l 567 381 q 567 380 567 381 q 569 378 568 379 q 571 378 569 378 q 572 377 571 378 q 574 375 572 376 q 574 375 574 375 q 575 374 575 375 l 576 374 q 629 401 594 410 q 631 398 631 400 q 628 396 631 396 q 599 378 608 396 q 590 340 590 361 q 613 271 592 304 q 613 264 615 268 q 606 260 610 260 q 531 233 561 265 q 510 203 518 221 q 505 186 507 197 q 500 169 503 175 q 497 166 500 167 q 493 167 494 165 q 449 190 481 189 q 396 167 425 190 q 384 165 390 163 q 378 175 378 168 q 358 219 378 200 q 314 240 339 238 q 278 235 297 243 q 253 222 260 226 q 225 200 247 217 q 222 199 224 199 q 219 201 219 200 q 225 221 221 210 q 163 221 199 236 q 115 175 128 206 q 138 110 101 138 q 169 94 150 99 q 207 93 194 89 q 214 91 211 94 q 215 83 217 88 q 219 35 211 58 q 247 -1 228 11 q 296 -13 269 -15 q 342 4 322 -11 q 351 4 347 8 q 351 -4 356 0 q 350 -6 351 -4 q 349 -7 349 -7 q 356 -29 346 -21 q 381 -35 364 -37 q 428 -1 413 -31 q 433 1 429 1 q 439 -1 438 1 q 486 -31 456 -24 q 542 -31 517 -39 q 593 -1 572 -22 q 617 54 608 15 q 622 58 618 57 q 628 57 626 60 q 649 50 644 51 q 676 51 660 49 q 721 81 703 60 q 740 134 740 104 q 719 186 740 164 q 719 194 718 190 q 725 197 721 197 q 778 219 764 194 q 775 268 792 243 q 740 258 765 264 q 737 260 738 258 q 738 264 736 263 q 797 321 771 282 q 826 396 822 356 z "},"\u0000":{"ha":0,"x_min":0,"x_max":0,"o":""},"\n":{"ha":0,"x_min":0,"x_max":0,"o":""},"\r":{"ha":0,"x_min":0,"x_max":0,"o":""}," ":{"ha":332,"x_min":0,"x_max":0,"o":""},"!":{"ha":418,"x_min":49,"x_max":360,"o":"m 304 146 q 331 132 321 144 q 343 104 342 119 q 326 43 347 64 q 303 28 318 35 q 293 26 296 26 l 296 25 q 300 10 301 17 q 281 -18 299 -10 q 242 -11 258 -29 q 226 -32 236 -25 q 175 -46 204 -50 q 132 -15 146 -40 q 125 17 124 3 q 92 26 100 8 q 96 49 85 39 q 101 53 97 50 q 89 64 94 57 q 83 108 74 83 q 113 139 92 129 q 131 144 121 144 q 124 171 122 157 q 156 215 125 203 q 208 206 185 226 q 224 169 222 192 l 226 172 l 228 175 q 260 188 242 188 q 290 175 279 189 q 293 146 299 164 l 304 146 m 311 60 q 319 99 319 71 q 299 125 318 118 q 289 126 299 125 l 276 126 l 275 126 q 261 122 268 122 l 260 122 q 258 121 260 122 q 254 119 256 119 l 251 122 l 254 124 q 256 131 253 125 l 256 129 q 256 131 256 131 l 257 132 q 261 136 257 132 q 268 142 265 140 q 272 146 272 146 q 273 148 272 147 q 275 149 274 149 q 275 151 275 150 q 275 151 275 151 q 276 153 275 151 q 276 154 276 154 l 276 158 q 276 163 276 161 l 275 164 l 274 165 l 272 167 q 269 168 271 167 q 267 168 268 168 q 266 169 267 168 q 264 169 265 169 l 263 169 q 260 169 261 169 q 256 169 258 169 l 254 168 q 247 167 251 168 q 246 166 246 167 q 246 165 246 165 q 244 165 244 165 q 242 165 243 165 q 236 161 242 164 q 228 153 231 158 q 219 142 221 147 q 215 143 218 142 q 217 157 215 150 q 208 180 217 169 q 189 193 200 190 q 165 192 178 196 q 149 169 150 186 q 158 142 147 151 q 160 132 163 138 q 151 129 157 126 q 138 126 149 131 q 124 122 132 126 q 106 106 114 117 q 101 76 96 90 q 124 61 104 67 q 127 57 126 60 q 125 51 128 54 q 118 50 122 50 q 108 43 118 50 q 106 31 101 36 q 133 36 113 22 q 141 35 138 38 q 144 29 144 33 q 144 21 144 28 q 144 11 144 14 q 153 -6 147 4 q 181 -21 163 -18 q 213 -11 199 -24 q 225 1 218 -6 q 229 10 226 4 q 233 17 232 15 q 240 20 235 21 q 247 15 246 19 l 247 6 q 272 0 257 -8 q 282 14 279 3 q 282 29 283 26 q 278 32 279 31 q 274 37 274 33 q 278 42 275 40 q 283 44 279 42 q 288 46 286 46 q 292 47 289 46 q 296 49 294 49 q 311 60 306 53 m 326 529 q 347 474 343 504 q 340 422 350 447 q 310 383 331 396 q 332 327 335 363 q 296 275 329 292 q 222 285 254 256 q 206 313 211 296 q 172 293 194 296 q 131 303 149 290 q 108 345 108 318 q 124 392 107 372 q 103 411 111 399 q 96 451 92 429 q 113 479 99 468 q 86 547 89 496 q 110 625 82 599 q 99 629 106 626 q 74 647 83 636 q 50 700 53 669 q 63 747 49 724 q 97 779 76 771 q 94 783 97 781 q 88 832 85 800 q 119 894 92 879 q 114 899 115 896 q 100 910 108 901 q 86 942 89 925 q 104 999 79 975 q 156 1016 126 1021 q 200 985 186 1011 q 218 1003 207 994 q 290 1019 247 1024 q 324 1004 313 1017 q 342 972 336 990 q 329 906 353 935 q 319 897 329 906 q 346 878 336 894 q 356 824 357 857 q 344 778 354 794 q 328 763 339 768 q 346 721 346 747 q 319 667 346 692 q 349 642 339 660 q 358 601 360 624 q 326 529 358 544 m 282 397 q 319 426 308 401 q 325 478 329 451 q 307 518 321 499 q 300 529 304 524 q 290 540 296 535 q 282 550 285 546 q 282 553 281 551 q 285 556 283 556 q 313 543 300 554 q 336 600 332 556 q 329 635 338 618 q 303 656 321 651 q 299 660 300 657 q 299 665 297 663 q 308 680 300 668 q 319 699 315 692 q 325 717 324 707 q 306 756 329 742 q 303 763 303 758 q 308 768 304 768 q 327 789 321 772 q 335 822 333 806 q 332 860 338 844 q 307 890 325 882 q 304 889 304 889 q 274 881 286 879 q 271 883 271 881 q 274 886 271 886 q 301 899 296 893 q 318 919 313 907 q 319 971 329 947 q 304 993 313 988 q 278 999 299 997 q 225 983 244 999 q 208 963 217 976 q 205 956 207 960 q 203 950 203 953 q 197 940 201 947 q 196 939 197 939 q 194 940 194 939 q 189 956 189 946 q 193 972 190 965 l 193 974 q 157 995 181 992 q 118 981 133 999 q 108 942 103 963 q 121 918 111 931 q 139 900 136 900 q 144 892 143 897 q 140 885 144 888 q 111 831 113 871 q 117 783 110 797 l 118 783 q 122 775 126 783 q 128 771 125 772 q 128 768 129 771 q 125 765 128 765 q 113 767 118 765 q 74 701 71 738 q 90 661 74 679 q 131 638 111 636 q 137 632 135 638 q 136 624 139 626 q 106 551 106 600 q 122 486 104 503 q 158 490 136 494 q 162 485 163 489 q 157 481 161 481 q 132 469 144 479 q 118 444 119 458 q 123 421 115 433 q 142 403 131 408 q 143 390 150 399 q 128 355 131 375 q 143 322 126 335 q 176 315 158 311 q 204 333 194 318 q 210 351 204 342 q 213 354 210 356 q 217 350 217 353 q 238 303 217 322 q 283 296 258 283 q 310 336 310 307 q 282 376 310 365 q 276 388 276 379 q 282 397 275 396 z "},"\"":{"ha":681,"x_min":24,"x_max":654,"o":"m 622 810 q 639 740 654 778 q 617 717 633 725 q 588 713 601 708 q 590 694 592 704 q 575 654 590 674 q 535 635 558 635 q 508 642 521 635 q 482 621 501 624 q 454 626 467 618 q 438 647 442 635 q 449 697 426 678 q 475 704 460 706 q 469 717 471 710 q 468 726 468 719 q 419 738 440 717 q 406 782 401 757 q 407 784 407 782 q 407 788 407 786 q 408 790 408 788 q 386 797 396 789 q 381 832 369 813 q 378 833 379 832 q 376 833 378 833 q 358 850 367 838 q 354 899 343 872 q 392 931 365 922 q 424 929 408 935 q 426 947 424 939 q 450 979 432 969 q 513 971 483 999 q 550 1008 526 999 q 608 994 585 1022 q 624 939 631 971 q 606 913 618 919 q 615 907 611 911 q 638 875 632 896 q 638 831 646 851 q 626 814 633 821 q 622 810 626 813 m 618 753 q 596 806 626 781 q 594 816 590 810 q 603 822 597 822 q 611 831 604 822 q 618 842 615 833 q 617 872 622 854 q 601 894 611 886 q 579 913 588 910 q 579 915 579 914 q 585 916 582 915 q 590 917 589 917 q 604 949 604 928 q 592 982 604 969 q 565 990 579 996 q 541 975 551 985 q 524 951 531 965 q 516 947 521 947 q 508 951 511 947 q 486 968 501 964 q 458 964 471 972 q 443 943 446 957 q 443 919 442 938 q 442 910 447 914 q 432 908 439 903 l 431 910 q 375 892 390 919 q 375 864 368 876 q 400 847 385 847 q 408 840 407 847 q 403 831 410 832 q 392 820 394 829 q 399 807 390 811 q 415 807 404 804 q 418 808 417 808 q 450 821 429 821 l 451 818 q 438 807 443 814 q 429 792 435 803 q 426 785 428 790 q 426 782 426 783 q 436 754 428 763 q 458 743 446 743 q 486 756 476 744 q 491 756 488 757 q 493 750 494 754 q 483 735 490 742 q 485 719 482 728 q 501 697 488 704 q 500 693 503 696 q 486 696 492 693 q 475 696 479 697 q 461 688 474 696 q 451 657 446 675 q 476 640 458 640 q 489 646 483 640 q 494 658 494 651 q 500 666 494 664 q 510 665 506 668 q 535 658 521 656 q 560 671 550 660 q 572 696 568 679 q 568 726 575 717 q 567 731 565 729 q 572 731 569 733 q 576 728 574 731 q 602 733 590 725 q 618 753 614 740 m 307 814 q 301 810 307 814 q 319 740 335 779 q 298 717 314 725 q 268 713 282 708 q 271 694 272 704 q 254 654 271 674 q 215 635 238 635 q 189 642 201 635 q 161 621 182 624 q 135 626 147 618 q 118 647 122 635 q 129 697 107 678 q 156 704 140 706 q 150 717 151 710 q 149 726 149 719 q 100 738 121 717 q 86 782 82 757 q 88 785 86 782 l 89 788 l 89 790 q 67 797 76 789 q 61 832 50 813 l 60 832 l 58 833 q 39 850 47 838 q 35 899 24 872 q 72 931 47 924 q 104 929 89 935 q 107 947 104 939 q 131 979 113 969 q 194 971 165 999 q 231 1008 207 999 q 289 994 265 1022 q 303 939 311 969 q 288 913 299 921 q 296 907 294 910 q 319 875 311 896 q 318 831 326 853 q 307 814 314 821 m 299 753 q 276 806 306 781 q 274 816 271 810 q 283 822 278 822 q 292 831 289 824 q 299 842 296 833 q 297 872 303 854 q 283 894 292 886 q 260 913 269 910 q 260 915 260 914 q 266 916 263 915 q 271 917 269 917 q 285 949 285 928 q 272 982 285 969 q 253 991 264 990 q 233 985 242 992 q 217 969 224 978 q 204 951 210 961 q 197 947 201 947 q 189 951 192 947 q 167 968 182 964 q 139 964 151 972 q 124 943 126 957 q 124 919 122 938 q 122 910 128 914 q 113 908 119 903 l 111 910 q 56 892 71 919 q 57 864 49 876 q 81 847 65 847 q 89 840 88 847 q 83 831 90 832 q 72 820 74 829 q 79 807 71 811 q 94 807 85 804 q 99 808 97 808 q 131 821 110 821 l 132 818 q 118 807 124 814 q 110 792 115 803 q 107 785 108 790 q 107 782 107 783 q 117 754 108 763 q 139 743 126 743 q 165 756 157 744 q 172 756 168 757 q 174 750 175 754 q 164 735 171 743 q 164 719 163 728 q 182 697 168 704 q 181 693 183 696 q 165 696 172 693 q 156 696 161 697 q 142 688 151 696 q 132 657 126 675 q 157 640 139 640 q 169 646 164 640 q 175 658 175 651 q 181 667 176 665 q 190 665 186 668 q 216 658 201 656 q 240 671 231 660 q 253 696 250 682 q 249 726 256 717 q 248 731 246 729 q 253 731 250 733 q 256 728 254 731 q 274 729 265 726 q 290 738 283 732 q 299 753 296 744 z "},"#":{"ha":1129,"x_min":15,"x_max":1115,"o":"m 1090 679 q 1100 618 1115 656 q 1088 599 1096 607 q 1069 588 1079 592 q 1049 586 1060 585 q 1019 596 1036 586 q 1005 552 1022 574 q 965 521 988 531 q 896 522 928 506 q 869 543 881 529 l 868 544 q 838 496 864 511 q 872 417 876 461 q 857 374 871 394 q 881 369 869 375 q 899 353 893 364 q 900 351 899 351 q 906 360 901 354 q 931 381 917 375 q 961 384 944 388 q 986 367 978 381 q 983 308 1001 342 q 938 276 965 275 q 918 218 943 242 q 846 197 888 192 q 783 233 804 203 q 772 219 779 228 q 792 186 788 207 q 788 146 796 165 q 751 111 776 118 q 725 108 740 107 q 726 57 735 88 q 718 32 724 43 q 703 11 713 21 q 682 -4 693 1 q 613 -1 650 -17 q 572 46 575 14 q 536 46 556 39 q 501 99 504 60 q 514 143 500 122 q 549 171 528 164 q 539 204 538 185 q 538 203 539 203 q 522 197 524 197 q 489 201 507 194 q 464 221 472 208 q 463 223 464 222 q 461 225 463 224 q 457 221 458 222 q 422 207 442 204 q 413 178 425 190 q 406 171 411 175 q 408 169 406 171 q 410 167 410 168 q 424 133 421 154 q 397 60 428 94 q 333 32 368 28 q 325 35 329 33 q 317 3 326 17 q 269 -10 301 -18 q 231 17 246 -3 q 218 61 217 38 q 194 63 203 60 q 167 83 178 68 q 150 160 144 111 q 182 232 158 208 l 183 233 l 185 235 q 175 239 183 236 q 153 264 158 249 q 93 221 128 225 q 55 228 72 218 q 31 260 38 239 q 46 340 17 299 q 113 364 75 381 q 119 397 113 383 q 154 431 132 419 q 201 439 179 443 q 218 433 210 438 q 226 468 215 453 q 258 492 239 488 q 267 493 263 493 q 240 528 244 507 q 243 553 238 543 q 236 554 236 554 q 215 571 222 558 q 208 600 206 583 q 206 599 207 599 q 186 594 194 594 q 157 615 164 594 q 164 649 150 636 q 176 657 168 653 q 151 682 160 664 q 149 750 136 715 q 194 800 163 785 q 261 806 232 818 q 294 778 283 797 q 319 782 306 786 q 346 833 324 811 q 400 860 369 856 q 390 869 394 864 q 381 907 381 886 q 417 975 381 951 q 493 979 451 999 q 531 926 532 961 q 533 929 532 928 q 561 932 547 935 q 600 896 589 926 q 593 838 610 865 q 571 818 585 825 q 558 813 563 814 q 572 781 572 803 q 564 754 571 765 q 578 750 572 754 q 596 722 590 742 q 624 724 608 728 q 640 710 635 721 q 642 717 640 715 q 656 746 644 736 q 686 758 671 760 q 700 754 693 758 q 703 778 697 768 q 717 792 706 783 q 690 807 701 796 q 674 875 663 835 q 724 929 685 913 q 763 936 744 938 q 790 932 775 936 q 818 972 792 956 q 868 983 844 989 q 906 943 900 974 q 900 911 908 926 q 940 890 922 910 q 961 844 957 869 q 950 786 965 810 q 918 758 940 769 q 935 744 928 754 q 940 736 939 739 q 942 738 940 738 q 961 758 949 747 q 1018 771 988 778 q 1044 756 1033 768 q 1057 728 1056 743 q 1050 694 1058 710 q 1090 679 1076 694 m 1078 625 q 1074 667 1090 653 q 1026 675 1061 678 q 1019 681 1021 675 q 1021 689 1017 686 q 1035 728 1040 704 q 1007 751 1031 750 q 968 739 986 753 q 953 725 960 733 q 947 715 951 721 q 943 711 946 714 q 942 708 943 710 q 940 707 942 707 q 935 703 939 703 q 931 708 932 704 q 928 720 929 711 q 922 735 926 729 q 899 750 913 747 q 895 755 896 750 q 897 761 894 760 q 917 776 913 769 q 928 794 925 788 q 939 836 939 815 q 921 878 936 860 q 900 893 913 889 q 896 894 899 893 q 890 895 893 894 q 886 896 888 896 q 883 896 885 896 q 875 899 876 892 q 872 902 872 900 q 874 906 872 904 q 878 907 876 907 q 888 939 890 925 q 864 965 883 958 q 824 954 846 969 q 810 919 803 939 q 807 911 811 915 q 799 908 803 907 q 742 909 774 919 q 700 874 711 899 q 707 824 689 843 q 747 804 725 803 q 751 801 750 804 q 750 797 751 799 q 721 792 732 790 q 711 775 714 786 q 717 742 706 756 q 717 736 718 739 q 713 733 717 733 q 706 735 711 733 q 700 736 701 736 q 688 735 696 736 q 669 726 676 733 q 657 707 663 718 q 649 681 650 693 q 644 678 649 676 l 642 681 q 641 689 642 683 q 640 697 640 694 q 618 709 631 707 q 594 703 606 711 q 585 701 590 699 q 581 708 581 703 q 571 736 579 728 q 554 743 563 743 q 536 733 544 735 q 531 735 532 732 q 531 740 529 738 q 553 776 549 756 q 539 810 557 800 q 537 814 536 811 q 540 817 538 817 q 557 831 544 818 q 571 846 568 843 q 581 883 583 865 q 556 913 576 906 q 528 911 542 917 q 522 908 525 907 q 521 907 522 907 q 517 907 519 906 q 515 911 514 908 q 521 918 518 915 q 513 935 519 926 q 499 949 507 943 q 481 957 490 954 q 432 953 453 965 q 407 910 410 939 q 408 882 404 897 q 417 860 411 871 q 429 857 421 860 q 432 856 431 856 q 435 849 435 853 q 431 844 435 846 q 418 842 425 843 q 405 840 411 842 q 393 838 399 839 q 361 819 378 833 q 329 750 333 794 q 326 747 329 747 q 322 749 324 746 q 319 772 319 761 q 297 761 307 774 q 288 761 292 754 q 240 785 275 786 q 186 761 208 785 q 168 703 165 736 q 182 674 171 686 q 208 661 193 663 q 212 659 211 661 q 210 656 213 657 q 200 653 207 654 q 199 650 200 651 q 176 639 186 650 q 174 619 169 629 q 192 608 178 608 q 206 611 193 608 q 213 614 211 614 q 215 615 214 614 q 217 617 215 617 q 219 619 218 618 q 226 620 221 622 q 231 614 232 618 q 233 585 226 593 q 244 578 238 579 q 260 571 257 572 q 264 568 263 571 q 267 564 268 568 q 265 563 265 564 q 261 558 263 560 q 258 533 253 547 q 271 507 263 518 q 290 486 279 496 q 291 483 292 485 q 288 481 290 481 q 284 478 286 481 q 282 475 282 476 q 277 473 281 474 q 272 472 274 472 q 250 458 260 468 q 240 437 242 450 q 246 414 239 424 q 243 408 247 411 q 236 407 239 404 q 233 410 235 408 q 229 413 231 411 q 197 417 221 417 q 164 410 179 418 q 126 351 136 393 q 119 347 125 347 q 65 328 86 356 q 53 268 43 300 q 71 246 57 253 q 100 242 85 239 q 149 283 129 247 q 156 285 151 286 q 160 281 160 285 q 203 247 168 251 q 214 253 207 250 q 247 250 229 256 q 250 247 250 250 q 247 244 250 244 q 197 215 219 243 q 176 163 181 194 q 182 103 168 125 q 202 85 189 93 q 225 79 215 76 q 233 78 229 81 q 236 71 238 75 q 269 14 233 29 q 299 21 292 4 q 301 27 300 24 q 303 35 303 31 q 306 43 304 40 q 289 69 288 56 q 294 72 290 75 q 303 66 297 71 q 313 58 310 61 q 335 53 324 53 q 379 74 358 51 q 400 125 400 97 q 393 150 400 140 q 378 167 385 164 l 375 168 l 374 169 q 369 176 368 171 q 375 183 369 182 q 408 213 406 185 q 405 223 403 215 q 414 231 407 231 q 443 239 435 228 q 449 249 446 243 q 453 257 453 256 q 456 281 457 265 q 457 282 456 282 q 458 281 458 282 q 468 246 468 258 q 478 233 475 236 q 496 219 488 222 q 521 214 504 215 l 532 214 q 544 221 536 215 q 553 222 547 224 q 557 215 558 221 q 572 175 556 181 q 575 174 574 175 l 576 174 q 597 164 588 171 q 599 159 600 161 q 594 157 597 157 q 562 153 578 160 q 536 133 546 147 q 525 103 526 119 q 544 67 525 76 q 578 69 564 58 q 588 72 582 75 q 592 61 593 68 q 594 42 590 51 q 606 27 599 33 q 624 18 614 21 q 676 19 656 8 q 704 67 696 31 q 701 115 708 85 q 704 126 694 124 q 724 128 711 128 q 742 131 736 129 q 767 153 761 135 q 770 187 774 168 q 754 214 767 206 q 749 222 749 217 q 756 229 750 226 q 769 247 767 232 q 774 260 771 250 q 781 307 769 283 q 785 308 782 310 q 788 303 789 307 q 789 267 782 285 q 811 236 796 249 q 846 221 826 224 q 899 233 875 215 q 916 258 910 243 q 917 286 922 272 q 920 294 917 290 q 928 296 924 297 q 964 317 951 288 q 965 358 978 347 q 929 356 951 372 q 915 339 924 351 q 900 322 907 326 q 894 322 897 321 q 890 328 890 324 q 888 333 889 329 q 886 335 886 335 q 885 338 886 336 q 885 339 885 339 l 885 340 q 883 342 883 342 q 882 344 882 343 q 881 346 882 346 l 881 347 l 878 349 l 875 351 q 872 353 874 353 q 871 354 871 354 q 863 357 868 356 q 851 358 856 358 q 847 358 850 358 q 842 358 843 358 q 838 356 840 358 q 836 354 836 354 q 814 346 833 353 q 809 348 810 344 q 811 353 808 351 q 816 357 814 354 q 821 363 818 360 q 825 368 824 367 q 838 385 831 374 q 850 418 849 404 q 817 490 854 467 q 813 498 813 493 q 817 506 813 503 q 854 571 861 529 q 858 577 854 575 q 865 575 863 579 q 901 544 875 553 q 950 542 926 535 q 993 572 976 550 q 1003 608 1007 592 q 994 618 999 613 q 994 624 993 621 q 999 627 996 626 q 1004 626 1001 628 q 1044 608 1033 608 q 1078 625 1069 608 m 640 515 q 647 507 647 514 q 639 500 646 500 q 617 490 626 500 q 604 468 608 481 q 599 443 600 456 q 603 404 597 424 q 608 394 604 400 q 615 383 613 389 q 618 372 617 378 q 611 368 618 365 q 592 382 601 368 q 590 382 592 382 q 588 381 589 382 q 586 381 586 381 q 582 380 585 381 q 578 379 579 379 q 576 378 578 379 q 575 378 575 378 q 574 377 575 378 q 572 376 574 376 q 567 372 569 375 l 565 372 l 565 372 l 564 371 q 561 369 563 369 q 560 367 561 368 q 558 367 558 367 l 558 365 l 557 365 q 565 346 564 357 q 564 343 565 344 q 561 343 563 342 q 547 353 558 346 q 527 365 535 361 q 510 369 519 368 q 457 346 475 374 q 449 342 454 340 q 442 349 443 343 q 428 378 442 368 q 428 390 422 382 q 447 429 444 410 q 446 449 447 439 q 440 457 443 454 q 438 457 440 457 q 435 457 436 457 q 397 467 418 454 q 397 470 396 468 q 400 471 397 472 q 460 492 429 463 q 481 557 482 515 q 485 567 481 564 q 497 567 490 569 q 521 567 508 561 q 539 585 533 574 q 543 587 540 588 q 546 583 546 586 q 542 565 546 574 q 572 543 556 547 q 619 549 599 533 q 628 546 625 553 q 629 542 629 544 q 640 515 625 522 m 578 454 q 621 514 585 501 q 615 531 615 521 q 596 524 607 525 q 565 526 581 521 q 533 556 542 536 q 503 544 519 544 q 474 474 501 500 q 454 461 464 465 q 464 432 464 449 q 446 385 465 408 q 456 367 453 376 q 511 386 482 389 q 543 376 528 385 q 547 383 546 382 q 565 394 556 392 q 585 397 576 399 q 583 401 583 399 q 582 404 582 404 q 578 454 574 429 z "},"$":{"ha":853,"x_min":46,"x_max":817,"o":"m 786 289 q 797 186 815 246 q 731 106 779 128 q 653 100 686 86 q 643 56 658 75 q 585 39 621 28 q 575 28 581 32 q 572 -21 589 1 q 547 -37 563 -35 q 536 -37 543 -39 q 532 -60 535 -50 q 481 -106 518 -94 q 413 -100 444 -118 q 368 -44 376 -82 q 369 -8 364 -26 q 378 8 372 3 l 378 10 q 344 36 357 14 q 344 38 344 36 q 343 42 343 40 q 307 18 331 25 q 263 17 283 11 q 240 28 250 21 q 224 46 231 36 q 213 67 217 56 q 208 93 208 79 q 101 90 147 68 q 60 127 75 101 q 49 181 46 153 q 107 271 54 239 q 183 276 151 299 q 192 313 181 296 q 222 332 203 331 q 260 311 244 333 q 265 279 268 297 q 282 290 276 288 q 313 301 296 297 q 372 293 343 307 q 413 250 401 281 q 415 244 414 249 q 417 239 415 240 q 447 261 426 251 q 463 265 450 263 q 424 301 439 279 q 410 338 413 318 q 399 331 406 333 q 336 332 368 317 q 297 365 311 342 q 286 414 283 388 q 269 403 279 408 q 225 392 249 392 q 144 425 178 389 q 117 507 110 463 q 117 511 117 508 q 118 515 118 514 q 100 518 107 515 q 67 557 74 526 q 78 611 61 585 q 107 635 90 628 q 78 693 81 653 q 88 761 75 733 q 132 824 103 804 q 167 835 149 832 q 178 833 175 835 q 174 846 176 838 q 188 901 164 875 q 240 924 208 925 q 265 918 256 924 q 269 939 264 928 q 293 971 276 960 q 329 981 310 983 q 319 1024 321 1004 q 346 1106 319 1072 q 429 1126 378 1142 q 491 1074 472 1114 q 488 993 510 1033 q 518 993 504 1000 q 538 961 538 983 q 597 971 575 974 q 653 939 635 965 q 667 876 674 911 q 663 865 665 871 q 707 861 686 874 q 731 807 736 843 q 744 804 742 804 q 761 794 753 800 q 788 767 778 783 q 800 691 811 729 q 750 633 789 653 q 688 628 722 619 q 678 598 689 611 q 651 583 667 585 q 622 592 633 581 q 611 619 611 603 q 578 597 599 601 q 522 610 549 590 q 493 699 479 644 q 438 697 464 688 q 399 739 410 710 q 369 685 390 710 q 349 667 357 672 q 389 651 372 665 q 413 614 408 638 q 413 586 415 603 q 412 579 413 583 q 410 570 411 575 q 407 563 408 565 q 449 586 422 582 q 496 578 475 590 q 519 531 522 560 q 518 521 519 528 q 564 540 542 536 q 643 531 607 549 q 690 476 679 513 q 696 439 697 456 q 689 418 694 432 q 720 411 706 419 q 740 388 735 403 q 740 344 750 368 q 726 322 736 332 q 760 313 743 324 q 786 289 776 303 m 772 185 q 775 264 788 228 q 747 299 767 288 q 708 307 733 306 q 704 309 706 307 q 706 314 703 311 q 706 319 704 317 q 711 328 707 324 q 719 337 715 332 q 725 346 722 342 q 725 378 731 361 q 706 398 721 392 q 678 399 692 404 q 670 401 674 397 q 669 410 667 406 q 674 442 674 417 q 668 471 674 458 q 629 514 658 501 q 501 497 574 539 l 500 496 l 497 494 q 496 493 496 493 q 490 494 492 492 q 490 500 488 497 q 493 503 492 501 q 496 504 494 504 q 499 537 504 519 q 478 563 494 554 q 439 565 463 571 q 404 546 428 563 q 399 547 401 544 q 399 551 397 549 q 400 553 400 551 q 401 556 400 554 q 400 582 404 561 q 398 594 400 586 q 396 604 396 601 q 378 638 390 628 q 326 650 360 651 q 285 644 306 640 q 282 647 282 644 q 283 650 282 649 q 317 671 292 656 q 354 699 342 686 q 394 776 390 733 l 394 778 q 402 783 397 783 q 407 776 407 782 q 419 742 407 758 q 447 721 431 726 q 481 719 463 715 q 488 722 485 721 q 492 725 490 724 q 497 728 494 726 q 502 731 500 729 q 508 733 504 732 q 513 736 511 735 q 522 735 518 738 q 524 724 526 729 q 515 676 513 703 q 533 632 517 649 q 575 618 550 617 q 614 638 600 619 q 617 638 615 639 q 618 635 618 636 q 631 608 617 621 q 651 601 643 599 q 669 614 664 603 q 671 638 675 625 q 673 645 669 642 q 681 647 676 649 q 738 653 707 636 q 778 697 769 669 q 768 757 786 726 q 721 794 749 789 q 715 803 714 796 q 712 828 718 814 q 696 847 706 842 q 656 849 678 857 q 655 846 656 847 q 653 843 654 844 q 631 818 649 836 q 626 817 628 815 q 625 822 624 819 q 639 849 625 822 q 646 878 643 860 q 636 926 649 908 q 585 951 621 949 q 528 940 550 953 q 517 942 522 938 q 515 951 513 946 q 517 967 519 960 q 506 978 514 975 q 467 968 494 983 q 464 968 465 967 q 463 971 463 969 q 479 990 467 982 l 479 992 q 460 1079 493 1044 q 424 1101 444 1094 q 382 1099 403 1107 q 346 1028 350 1085 q 351 983 346 1003 q 358 963 356 967 q 365 939 364 940 q 364 936 365 938 q 361 936 363 935 q 356 941 360 939 q 350 944 351 943 q 343 953 349 946 q 338 961 339 958 q 321 961 329 963 q 299 949 308 958 q 285 924 290 940 q 283 920 283 922 q 281 915 282 918 q 281 911 281 913 l 279 910 l 278 906 q 279 890 281 900 q 274 888 278 888 q 269 889 271 888 q 233 900 263 904 q 203 881 214 894 q 210 808 181 850 q 210 807 211 808 q 207 806 210 806 q 189 817 197 808 q 142 801 164 818 q 110 750 121 786 q 131 639 83 667 q 133 633 133 638 q 129 626 133 629 q 99 603 111 621 q 88 567 86 586 q 108 536 90 544 q 125 533 114 533 q 164 557 139 558 q 166 555 165 557 q 165 551 167 553 q 138 496 135 531 q 167 436 140 461 q 232 414 193 413 q 296 443 275 417 q 303 444 299 447 q 307 438 308 442 q 308 390 300 413 q 339 354 317 367 q 376 347 354 344 q 410 364 399 350 q 431 417 413 388 q 433 415 432 417 q 444 311 413 351 q 483 279 458 293 q 511 265 504 268 q 540 256 524 263 q 543 246 546 253 q 533 242 540 239 q 507 247 531 242 q 457 243 481 251 q 415 210 433 235 q 411 196 415 210 q 405 192 410 192 q 401 197 400 193 l 401 199 q 401 200 401 199 q 400 201 400 201 q 401 206 400 203 q 401 210 401 208 q 394 235 400 222 q 380 257 389 247 q 358 272 371 267 q 313 278 338 281 q 258 258 281 274 q 252 259 256 257 q 250 264 249 261 q 225 310 250 310 q 203 294 211 310 q 197 263 196 278 q 197 258 200 260 q 190 257 193 256 q 113 244 151 275 q 74 172 74 214 q 121 106 74 122 q 217 113 163 92 q 224 111 219 114 q 226 104 228 108 q 237 64 225 83 q 269 39 249 44 q 340 65 300 31 q 353 96 342 82 q 356 97 354 97 q 357 93 357 96 q 365 46 349 69 q 399 22 374 33 q 403 17 403 21 q 401 10 404 13 q 388 -22 388 -1 q 394 -56 385 -39 q 456 -89 415 -89 q 510 -57 494 -89 q 508 1 518 -39 q 512 10 507 7 q 521 10 517 13 q 536 -19 532 -1 q 537 -20 536 -19 q 538 -21 538 -21 l 539 -21 q 546 -17 544 -18 q 556 -6 551 -12 q 554 25 565 8 q 553 33 551 29 q 560 39 556 38 q 578 50 569 42 q 581 54 579 53 q 588 65 585 58 q 592 65 588 67 q 590 53 592 57 q 629 68 615 49 q 633 115 644 86 q 634 119 632 117 q 639 122 636 122 q 678 118 671 118 q 717 126 703 119 q 772 185 756 142 z "},"%":{"ha":990,"x_min":14,"x_max":975,"o":"m 218 747 q 212 756 215 750 q 207 764 208 761 q 192 776 201 769 q 143 782 172 785 q 129 789 132 779 q 138 803 126 800 q 172 824 160 807 q 183 865 188 842 q 181 878 182 869 q 183 881 181 881 q 186 878 186 881 q 249 846 196 844 q 256 840 254 846 q 254 832 258 835 q 231 794 238 815 q 226 771 226 782 q 225 767 225 769 q 225 747 229 756 q 222 746 225 746 q 218 747 219 746 m 181 803 q 203 793 194 799 q 213 786 204 792 q 214 799 213 786 q 231 831 219 815 q 200 843 211 833 q 193 849 197 844 q 189 815 196 831 q 181 803 186 808 m 192 643 q 169 667 178 653 q 163 683 168 671 q 131 663 146 665 q 88 671 104 656 q 75 714 69 686 q 78 728 76 719 q 40 747 57 731 q 18 815 15 774 q 51 879 24 858 q 86 892 69 893 q 79 917 79 904 q 101 954 79 940 q 146 957 122 968 q 168 940 158 953 q 200 982 171 961 q 269 1000 235 1007 q 321 960 308 993 q 319 922 326 943 q 311 903 317 915 q 310 901 311 903 q 308 900 310 900 q 349 904 326 908 q 394 865 381 899 q 383 803 407 831 q 358 786 374 790 q 368 768 367 776 q 365 731 375 749 q 339 706 357 714 q 321 700 333 703 q 311 671 318 686 q 258 629 294 638 q 192 643 222 621 m 163 707 q 171 708 167 710 q 176 701 175 706 q 204 660 178 679 q 251 653 225 646 q 290 683 278 658 q 299 711 296 694 q 299 715 299 714 q 303 740 300 736 q 310 742 306 746 q 321 724 318 738 l 324 724 q 326 724 324 724 q 329 725 328 725 q 331 726 331 726 q 335 728 333 726 q 338 731 336 729 l 339 731 q 347 740 342 733 q 351 753 349 743 q 351 765 353 758 q 347 783 350 775 q 325 785 335 782 q 320 791 319 786 q 326 797 321 796 q 367 817 351 799 q 375 858 382 835 q 344 889 368 882 q 297 879 324 894 q 292 880 294 878 q 292 885 290 882 q 303 949 313 915 q 267 979 296 974 q 213 966 242 983 q 185 925 185 949 q 178 916 185 917 q 169 922 171 915 q 144 936 158 932 q 117 935 129 940 q 106 910 104 928 q 115 879 108 889 q 114 874 117 876 q 108 871 111 871 q 63 857 81 878 q 43 808 44 836 q 60 763 42 781 q 81 747 69 753 q 88 746 82 747 q 96 742 93 744 q 98 742 97 742 q 99 743 99 743 q 101 741 100 743 q 101 739 103 739 q 100 735 101 738 q 96 731 97 732 q 93 710 93 724 q 106 683 93 690 q 163 707 129 674 m 586 301 q 585 224 611 263 q 549 199 571 204 q 553 185 551 193 q 553 158 556 172 q 540 136 549 146 q 526 124 532 126 q 538 101 533 115 q 524 21 551 58 q 453 -12 494 -17 q 415 7 428 -8 q 410 -14 414 -4 q 385 -53 400 -36 q 296 -78 347 -90 q 268 -67 281 -75 q 247 -45 256 -58 q 236 -17 239 -32 q 244 38 229 14 q 207 47 221 39 q 183 75 190 60 q 181 115 176 90 q 213 176 186 150 q 236 194 219 185 q 221 235 218 213 q 236 260 224 250 q 264 272 249 271 q 257 340 242 308 q 304 375 271 371 q 281 429 285 399 q 286 489 276 460 q 331 544 300 524 q 375 564 354 560 q 361 610 354 586 q 411 646 371 643 q 401 660 407 650 q 397 704 392 683 q 417 734 401 721 q 449 751 432 747 q 425 797 432 771 q 433 864 418 832 q 478 910 446 892 q 533 913 510 928 q 554 969 529 940 q 638 1013 589 1011 q 719 975 692 1015 q 735 933 732 956 q 731 910 735 919 q 774 893 757 914 q 783 807 800 861 q 738 736 771 765 q 699 711 718 719 q 717 692 710 703 q 718 617 738 658 q 664 561 703 582 q 625 547 647 553 q 657 515 643 536 q 676 421 681 476 q 663 369 675 393 q 631 327 651 344 q 586 301 611 310 m 565 319 q 626 353 601 324 q 651 421 650 383 q 638 497 656 465 q 613 526 628 515 q 598 533 608 529 q 583 540 588 538 q 582 543 582 542 q 581 544 581 543 q 579 545 579 544 q 579 546 579 546 q 582 547 581 547 q 583 550 582 549 q 585 551 583 550 q 588 553 588 551 q 608 561 593 556 q 643 576 632 571 q 693 615 678 594 q 703 675 714 647 q 676 706 694 694 q 661 707 668 706 q 657 713 658 710 q 655 715 656 714 q 657 718 654 717 q 658 718 657 718 q 685 731 667 724 q 714 746 701 738 q 754 792 738 764 q 768 856 771 824 q 751 888 765 878 q 719 888 732 901 q 709 888 714 883 q 707 897 704 892 q 713 933 715 913 q 699 965 710 953 q 638 992 676 992 q 574 960 601 989 q 551 896 549 935 q 549 893 551 894 q 546 893 547 892 q 544 894 546 893 q 543 896 543 894 q 538 894 540 894 q 488 887 511 900 q 453 847 464 874 q 451 795 444 824 q 478 749 458 767 q 479 739 482 744 q 471 732 476 733 q 417 697 429 729 q 416 668 411 686 q 432 643 421 650 q 443 638 440 639 q 447 628 449 635 q 438 624 444 622 q 385 606 396 631 q 385 581 379 593 q 404 565 389 572 q 408 560 408 564 q 404 556 408 557 q 403 555 404 556 q 400 554 401 554 q 399 551 400 551 q 374 541 393 549 q 346 526 356 533 q 311 482 321 508 q 338 372 289 424 q 338 359 342 367 q 328 354 335 351 q 297 352 313 360 q 276 329 282 344 q 272 294 268 313 q 290 264 276 275 q 291 253 294 260 q 282 250 288 247 q 267 251 275 253 q 252 245 258 250 q 244 232 246 240 q 264 204 242 215 q 267 205 265 204 q 271 206 269 206 q 276 200 276 206 l 278 200 q 283 197 282 200 q 281 190 283 193 q 260 185 269 183 q 231 161 239 169 q 207 117 213 140 q 206 86 203 96 q 221 68 211 75 q 250 57 233 60 q 281 51 279 53 q 282 46 283 50 q 267 39 278 42 q 258 -17 250 11 q 307 -57 267 -51 q 375 -32 349 -62 q 401 38 404 0 q 408 44 401 44 q 415 39 414 44 q 433 18 419 26 q 461 10 446 10 q 507 42 490 13 q 483 146 531 85 q 483 149 482 147 q 486 150 483 150 q 515 138 500 149 q 518 140 515 139 l 519 142 q 526 149 522 143 q 531 156 531 154 q 535 164 532 157 q 535 182 538 172 q 533 188 535 185 q 532 192 532 190 q 531 196 532 193 q 500 206 514 197 q 499 211 497 208 q 504 214 500 214 q 539 217 521 211 q 565 238 557 224 q 572 271 575 253 q 558 301 569 289 q 556 313 553 307 q 565 319 558 319 m 944 233 q 974 167 975 210 q 940 100 972 124 q 901 88 922 88 q 908 74 906 82 q 901 37 914 54 q 868 17 889 19 q 828 26 843 11 q 822 33 826 28 q 779 -8 810 6 q 718 -15 749 -22 q 668 16 688 -8 q 654 69 649 40 q 638 65 646 65 q 610 83 618 67 q 613 118 601 103 q 619 125 614 119 q 597 140 606 131 q 592 200 578 167 q 623 235 601 221 q 667 247 644 250 q 668 306 656 275 q 722 353 683 343 q 789 335 763 364 q 803 301 801 319 q 864 319 826 322 q 898 295 890 317 q 893 254 906 274 q 944 233 924 253 m 931 118 q 954 168 954 136 q 931 222 954 200 q 876 236 907 243 q 867 240 871 235 q 868 250 864 246 q 881 285 885 265 q 850 301 878 301 q 801 286 821 301 q 797 278 799 281 q 796 278 797 278 q 794 278 794 278 l 793 276 q 790 276 792 275 q 789 278 789 276 q 792 285 790 281 q 786 301 788 299 q 771 321 781 313 q 726 328 751 336 q 690 292 700 318 q 685 263 685 276 q 685 250 685 260 q 686 235 686 240 q 681 229 686 229 q 617 199 631 222 q 613 158 604 181 q 644 136 622 136 q 649 132 649 136 q 646 126 650 128 q 644 124 646 125 q 626 93 619 110 q 665 97 635 75 q 676 97 671 101 q 678 86 681 92 q 672 49 667 67 q 694 19 678 32 q 728 4 710 7 q 782 16 757 0 q 818 60 807 32 q 824 63 821 63 q 827 65 825 65 q 829 61 829 64 l 829 60 q 829 56 831 57 l 829 54 q 831 53 831 54 q 832 50 831 53 q 833 46 833 47 q 843 36 836 40 q 858 35 851 33 l 861 35 q 864 35 863 35 q 865 35 864 35 q 867 36 865 36 l 868 36 q 875 40 871 38 q 876 41 875 40 q 878 42 878 42 l 879 43 q 882 46 882 46 l 883 47 q 885 50 885 49 q 888 53 886 51 l 888 54 q 888 56 888 56 q 888 57 888 57 l 888 60 q 889 63 889 60 l 889 67 q 888 69 889 68 q 888 72 888 71 l 888 74 l 886 76 l 886 75 q 886 78 886 76 q 885 81 886 79 q 883 82 885 81 l 883 82 q 878 89 881 85 q 874 92 875 92 q 874 100 871 96 q 874 101 874 101 q 875 107 872 106 q 889 108 878 108 q 903 107 900 107 q 931 118 919 107 m 838 153 q 841 142 844 149 q 831 136 838 135 q 778 132 808 142 q 742 106 751 124 q 736 104 739 103 q 733 108 733 106 q 738 118 735 113 q 738 133 736 122 q 739 151 739 143 q 726 176 738 169 q 723 186 721 179 q 732 193 725 193 q 767 204 754 196 q 785 233 785 217 q 788 237 785 236 q 792 235 790 238 q 792 230 792 233 q 793 225 793 226 q 797 201 793 225 q 804 181 799 193 q 838 153 814 165 m 801 153 q 803 153 801 153 q 789 171 793 161 q 781 194 782 183 l 779 193 q 751 178 769 183 q 753 176 751 176 q 760 156 757 168 q 758 139 761 146 q 765 142 761 140 q 771 144 768 143 q 801 153 786 150 z "},"&":{"ha":896,"x_min":42,"x_max":858,"o":"m 850 90 q 828 22 857 51 q 753 6 797 -8 q 708 49 718 17 q 653 53 686 36 q 619 93 628 65 q 575 51 604 65 q 504 36 538 35 q 472 44 485 38 q 415 -7 461 11 q 315 -12 371 -24 q 228 36 261 -1 q 199 99 199 69 q 163 85 185 86 q 103 110 122 82 q 82 181 82 136 q 94 235 82 211 q 70 251 79 239 q 63 279 61 263 q 78 314 65 301 q 86 321 82 318 q 60 354 69 331 q 53 426 42 393 q 85 471 61 453 q 138 492 110 489 q 151 533 133 513 q 193 561 168 554 q 179 585 183 568 q 181 624 176 594 q 115 651 143 626 q 82 713 88 676 q 101 779 76 751 q 128 800 113 793 q 119 842 117 813 q 136 886 121 865 q 174 916 150 906 q 219 922 197 926 q 258 985 228 958 q 326 1019 289 1011 q 419 1013 383 1031 q 453 981 442 1003 q 508 997 471 993 q 571 997 544 1003 q 617 967 600 989 q 631 939 628 953 q 631 922 632 933 q 663 908 651 918 q 679 868 682 892 q 675 854 678 860 q 713 839 693 856 q 740 790 736 819 q 735 735 743 765 q 708 692 728 706 q 729 632 732 663 q 696 572 726 590 q 631 565 667 556 q 621 568 626 567 q 606 542 618 554 q 586 529 599 536 q 601 521 596 525 q 622 489 618 508 q 667 472 651 488 q 669 469 667 472 q 719 485 689 490 q 747 533 719 518 q 819 533 785 556 q 851 478 849 514 q 826 417 854 439 q 792 401 813 404 q 785 401 789 401 q 793 390 790 396 q 794 350 804 369 q 763 319 783 331 q 729 313 746 311 q 726 288 732 303 q 714 263 721 271 q 710 257 714 263 q 736 251 725 258 q 753 217 753 239 q 825 197 800 226 q 836 158 838 181 q 831 138 836 146 q 824 126 828 133 q 832 122 828 125 q 850 90 846 111 m 760 25 q 812 36 792 17 q 829 82 832 56 q 796 121 825 111 q 793 123 793 121 q 796 125 793 125 q 808 128 803 128 l 808 129 q 815 160 818 144 q 807 183 813 175 q 779 197 799 193 q 743 192 763 200 q 733 195 738 190 q 731 206 729 200 q 726 238 736 226 q 703 249 715 249 q 699 249 703 249 q 697 247 699 247 q 696 246 696 247 q 685 240 689 242 q 678 240 681 240 q 674 240 678 240 l 674 240 q 672 242 672 240 q 672 244 672 243 l 674 244 q 682 253 674 247 q 693 260 692 258 q 708 282 703 269 q 714 307 715 297 q 710 315 714 313 q 692 324 703 318 q 675 332 681 329 q 674 334 674 332 q 675 336 674 336 q 725 332 724 332 q 761 347 746 333 q 774 363 769 354 q 775 377 776 369 q 764 393 774 385 q 757 401 758 400 q 749 410 749 408 q 753 418 743 418 q 754 418 753 418 q 758 418 757 418 q 796 422 778 415 q 824 444 814 428 q 821 501 839 474 q 795 520 813 515 q 763 518 778 525 q 739 472 736 507 q 734 463 739 465 q 724 463 729 461 q 675 461 700 475 q 681 424 685 444 q 679 423 681 422 q 678 425 678 424 q 651 458 678 446 q 611 467 636 467 q 600 478 601 467 q 592 498 600 490 q 576 508 583 506 q 554 513 568 510 q 547 521 547 514 q 551 532 546 528 q 583 556 571 546 q 596 569 593 564 q 599 577 597 572 q 601 582 601 582 q 593 607 599 586 q 594 610 592 610 q 599 610 597 611 q 618 594 600 606 q 638 586 629 588 q 681 592 661 581 q 707 633 704 604 q 685 686 711 674 q 680 696 679 689 q 685 706 681 703 q 717 782 719 728 q 701 822 717 804 q 665 842 686 840 q 657 836 661 839 q 651 837 653 835 q 650 843 649 839 q 651 890 668 874 q 636 899 644 897 q 632 899 635 899 q 628 899 629 899 q 631 906 629 901 q 626 899 629 901 l 625 899 q 614 899 619 896 q 608 908 608 901 q 608 922 607 911 q 607 935 608 932 q 596 958 606 946 q 558 978 582 972 q 504 981 538 983 q 472 975 483 979 q 465 972 469 975 q 457 969 460 971 q 457 949 460 958 q 455 947 457 947 q 453 949 453 947 q 403 994 433 983 q 326 994 372 1007 q 268 963 294 988 q 240 908 242 939 q 238 901 240 904 q 233 897 236 899 q 226 897 229 896 q 184 896 206 904 q 151 869 163 888 q 136 833 140 853 q 136 819 136 828 q 136 804 136 810 q 161 806 149 808 q 163 803 163 806 q 161 801 163 801 q 117 767 133 794 q 107 713 101 740 q 138 665 114 685 q 190 643 161 646 q 201 633 201 643 q 199 617 200 631 q 199 594 197 603 q 208 567 200 581 q 208 564 208 565 q 240 558 226 567 q 241 556 242 557 q 238 554 240 554 q 181 535 210 558 q 165 485 151 513 q 164 472 168 478 q 151 468 160 467 q 122 464 138 471 q 93 444 106 457 q 76 418 81 432 q 81 364 69 394 q 93 342 86 351 q 101 335 94 340 q 108 325 107 329 q 106 315 113 318 q 100 315 103 315 q 89 303 92 307 q 83 282 85 292 q 90 260 82 269 q 110 254 97 251 q 121 250 117 256 q 121 239 125 244 q 104 188 104 214 q 115 133 106 153 q 151 108 128 110 q 204 124 185 106 q 208 124 206 125 q 210 121 210 124 q 210 119 210 121 q 251 42 201 82 q 321 11 278 19 q 399 14 364 3 q 460 64 444 29 q 471 69 464 75 q 567 74 506 44 q 604 103 594 88 q 610 117 608 110 q 614 136 613 125 q 617 153 615 147 q 619 154 617 154 q 621 153 621 154 q 625 107 632 131 q 661 71 636 81 q 686 65 672 67 q 708 68 704 64 q 715 72 710 72 q 722 67 721 71 q 760 25 728 33 m 628 899 q 625 899 626 897 q 626 900 626 899 q 628 899 628 900 m 465 372 q 538 357 497 353 q 540 355 539 357 q 540 351 540 353 q 515 339 533 342 q 503 318 510 333 q 496 292 497 306 q 497 254 494 278 q 511 218 499 242 q 510 213 513 215 q 506 210 508 210 q 501 213 503 210 q 497 218 499 215 q 494 222 496 219 q 490 225 492 224 q 488 226 489 226 q 474 239 479 236 q 435 247 458 247 q 376 218 386 246 q 367 211 374 213 q 357 217 360 210 q 321 246 347 239 q 279 243 306 250 q 277 241 278 242 q 275 239 276 240 q 251 231 264 231 q 249 233 250 231 q 250 236 249 235 q 265 254 257 242 q 276 274 272 264 q 289 314 288 296 q 289 344 290 332 q 274 369 286 358 q 271 378 269 374 q 278 385 272 383 q 313 432 311 394 q 306 463 310 439 q 308 466 306 465 q 310 464 310 467 q 347 421 324 431 q 417 429 385 407 q 428 428 421 432 q 433 418 435 425 q 443 392 433 406 q 465 372 453 379 m 493 332 q 499 338 494 333 q 453 353 478 338 q 413 400 422 371 q 340 403 376 385 q 325 414 332 407 q 301 372 324 385 q 313 314 314 353 q 294 258 311 282 q 294 258 294 258 q 293 257 293 257 q 328 263 311 267 q 367 240 351 258 q 435 267 389 267 q 478 258 460 268 q 479 297 474 275 q 493 332 482 318 m 465 811 l 465 813 q 467 814 465 813 q 465 811 467 814 m 532 789 q 540 782 538 789 q 536 771 543 775 q 499 724 504 747 q 496 686 493 701 q 503 667 497 668 q 510 656 510 664 q 503 647 510 649 q 480 632 490 644 q 465 607 469 619 q 461 565 456 575 q 457 563 460 563 q 446 586 447 569 l 444 588 q 441 593 443 589 q 438 599 439 597 q 418 617 428 611 q 386 624 407 624 q 365 622 369 625 q 356 623 360 619 q 353 631 353 626 q 353 649 354 635 q 347 668 351 661 q 329 681 343 675 q 315 685 321 685 l 314 685 q 308 681 311 682 q 298 674 304 678 q 288 668 292 669 q 283 669 285 667 q 284 672 282 671 q 291 677 286 674 q 299 683 296 681 q 308 700 303 689 q 318 729 315 714 q 311 771 325 763 q 307 782 304 775 q 318 788 310 789 q 361 804 339 782 q 385 849 383 825 q 387 850 386 850 q 388 849 388 850 q 388 847 388 847 q 389 846 389 847 q 396 824 389 836 q 408 811 400 814 q 419 809 413 807 q 431 813 426 811 q 442 819 435 815 q 451 825 449 824 q 462 824 457 828 q 467 814 467 819 l 465 813 q 463 808 465 810 q 465 811 465 810 q 465 810 465 811 q 465 807 465 808 q 467 800 467 801 q 468 797 467 800 q 469 794 469 794 q 478 785 472 789 q 524 789 493 772 q 532 789 528 790 m 493 761 q 494 762 493 761 q 496 763 494 763 q 465 774 476 763 q 450 799 460 779 q 449 801 450 799 q 401 799 418 786 q 388 818 392 806 q 388 817 388 817 q 372 789 383 803 q 346 768 361 774 q 338 767 342 768 q 342 728 347 749 q 324 692 338 708 q 357 679 346 693 q 367 656 364 669 q 368 643 368 650 q 383 644 374 644 q 425 639 407 646 q 450 619 440 632 q 482 660 460 644 q 476 718 469 679 q 493 761 481 744 z "},"'":{"ha":361,"x_min":24,"x_max":335,"o":"m 301 810 q 319 740 335 778 q 298 717 314 725 q 268 713 282 708 q 271 694 271 706 q 254 654 271 674 q 215 635 239 635 q 189 642 201 635 q 161 621 182 624 q 135 626 147 618 q 117 647 122 635 q 129 697 107 678 q 156 704 140 706 q 150 717 151 710 q 149 726 149 719 q 100 738 121 717 q 86 782 82 757 q 87 784 86 782 q 88 788 88 786 q 89 790 89 788 q 67 797 75 789 q 61 832 49 811 q 59 833 60 832 q 57 833 58 833 q 39 850 47 838 q 35 899 24 872 q 72 931 46 922 q 104 929 88 935 q 107 947 104 939 q 131 979 113 969 q 193 971 164 999 q 231 1008 207 999 q 289 994 265 1022 q 303 939 310 971 q 286 913 299 919 q 296 907 292 911 q 318 875 311 896 q 318 831 326 851 q 307 814 314 821 q 301 810 306 813 m 299 753 q 276 806 306 781 q 274 816 271 810 q 283 822 276 822 q 292 831 285 822 q 299 842 296 836 q 297 872 303 854 q 282 894 290 886 q 260 913 268 910 q 260 915 260 914 q 265 916 263 915 q 271 917 268 917 q 285 948 285 928 q 272 982 285 968 q 246 990 260 996 q 222 975 232 985 q 204 951 211 965 q 197 947 201 947 q 189 951 192 947 q 167 968 182 964 q 139 964 151 972 q 122 943 128 957 q 124 919 122 938 q 122 910 128 914 q 113 908 119 904 l 111 910 q 56 892 71 919 q 56 864 49 876 q 81 847 65 847 q 89 840 88 847 q 83 831 90 832 q 72 820 74 829 q 79 807 71 811 q 94 807 85 804 q 99 808 96 808 q 131 821 110 821 l 132 818 q 118 807 124 814 q 110 792 114 803 q 107 785 108 790 l 107 782 q 115 754 110 761 q 139 743 125 743 q 165 756 157 744 q 171 756 168 757 q 174 750 174 754 q 163 735 171 742 q 164 719 163 729 q 182 697 168 703 q 183 694 183 697 q 181 693 182 692 q 165 696 172 693 q 156 696 160 697 q 140 688 153 696 q 132 657 126 675 q 157 640 139 640 q 165 642 161 640 q 172 649 169 644 q 175 658 175 654 q 181 666 175 664 q 190 665 186 668 q 216 658 201 656 q 240 671 231 660 q 253 696 249 679 q 249 726 256 717 q 248 731 246 729 q 253 731 250 733 q 256 728 254 731 q 282 733 269 725 q 299 753 294 740 z "},"(":{"ha":521,"x_min":38,"x_max":486,"o":"m 476 97 q 460 31 486 60 q 394 7 436 1 q 340 47 354 14 q 317 33 331 38 q 260 40 288 24 q 224 88 233 56 q 226 138 217 118 q 224 138 226 138 q 218 136 221 136 q 200 136 211 135 q 172 153 181 138 q 167 185 163 168 q 175 199 169 193 q 150 203 163 199 q 104 243 118 215 q 97 308 88 274 q 118 350 103 336 q 86 358 93 353 q 67 396 67 372 q 89 435 68 421 q 85 438 86 435 q 44 500 50 458 q 65 578 39 538 q 111 618 86 611 q 101 678 89 647 q 128 706 111 697 q 118 714 122 708 q 101 740 108 722 q 107 810 90 775 q 132 841 115 826 q 170 863 149 856 q 211 868 192 871 q 207 879 210 872 q 207 908 203 894 q 238 958 211 940 q 297 969 263 975 q 336 942 325 964 q 342 949 338 946 q 372 969 354 961 q 446 974 417 989 q 472 949 464 965 q 476 915 481 933 q 447 883 469 892 q 461 846 461 868 q 446 807 461 824 q 397 783 428 783 q 375 786 388 782 q 374 764 378 775 q 343 740 365 746 q 351 718 350 731 q 340 658 353 686 q 301 611 328 626 q 276 604 289 604 q 292 574 290 596 q 275 532 293 551 q 261 521 269 525 q 300 485 289 513 q 290 421 311 450 q 310 424 303 424 q 363 397 344 422 q 368 331 385 368 q 342 293 361 314 q 385 276 365 290 q 411 240 404 263 q 407 186 419 215 q 438 175 426 189 q 439 138 451 157 q 456 129 447 135 q 476 97 471 117 m 457 78 q 450 108 458 97 q 422 124 438 128 q 415 128 417 122 q 419 136 414 135 q 428 150 428 140 q 422 164 429 160 q 410 168 414 168 q 399 165 407 168 q 386 163 390 163 q 367 156 376 156 q 363 159 364 156 q 364 165 361 163 q 372 171 367 167 q 381 178 378 175 q 392 196 388 188 q 392 235 399 217 q 363 266 383 257 q 317 272 342 275 q 308 277 311 271 q 310 288 306 283 q 346 381 368 343 q 253 390 319 422 q 249 390 250 389 q 250 393 249 392 q 253 397 251 396 q 256 400 254 399 q 260 403 258 401 l 260 404 q 282 471 288 442 q 264 499 279 489 q 231 506 249 508 q 223 509 225 504 q 225 517 221 514 q 271 567 265 542 q 268 588 274 579 q 252 601 263 597 q 229 606 242 606 q 227 608 228 606 q 229 611 226 611 q 254 614 242 614 q 288 629 264 615 q 317 660 307 642 q 331 700 328 681 q 317 744 336 740 l 315 744 q 314 748 314 746 q 317 751 314 750 q 356 771 347 758 q 358 794 361 782 q 349 807 350 801 q 350 815 347 811 q 357 817 353 819 q 366 813 360 815 q 375 808 372 810 q 394 804 388 804 q 429 818 415 803 q 441 854 444 833 q 418 885 438 875 q 415 894 413 888 q 422 900 417 900 q 446 908 436 900 q 456 929 456 917 q 451 943 456 936 q 441 954 447 950 q 428 961 435 958 q 369 953 404 967 q 329 918 342 939 l 326 919 q 331 932 328 924 q 296 946 300 944 q 255 939 274 950 q 231 906 236 928 q 233 861 224 874 q 235 853 236 858 q 231 847 235 849 q 172 838 181 840 q 131 801 143 824 q 143 708 108 758 q 154 706 147 708 q 157 701 157 704 q 154 696 157 697 q 121 667 125 683 q 131 615 117 653 q 128 608 132 611 q 121 602 125 606 q 113 596 117 599 q 104 590 108 593 q 88 568 94 579 q 68 508 67 538 q 96 457 69 475 q 122 444 107 449 q 138 443 128 443 q 153 442 149 443 q 158 438 157 442 q 156 432 158 435 q 124 424 146 422 q 100 415 110 424 q 90 393 90 407 q 103 366 90 376 q 132 358 117 356 q 138 357 136 360 q 139 350 140 354 q 131 336 136 346 q 123 319 126 326 q 118 303 119 311 q 124 253 113 276 q 161 217 135 231 q 210 211 188 204 q 213 210 213 211 q 211 207 213 208 q 194 201 200 203 q 193 197 194 199 q 189 163 176 181 q 207 147 194 151 q 221 146 211 146 q 233 149 233 149 q 240 146 240 153 q 240 130 240 140 q 239 111 239 119 q 240 94 239 103 q 268 58 247 74 q 335 68 304 36 q 335 82 333 75 q 349 113 338 96 q 351 112 350 113 q 353 110 353 111 q 353 79 349 99 q 354 74 354 78 q 354 73 354 74 q 354 71 354 72 q 364 47 357 57 q 422 31 386 21 q 457 78 454 42 z "},")":{"ha":511,"x_min":36,"x_max":469,"o":"m 440 515 q 465 440 468 486 q 431 374 463 396 q 414 367 424 369 q 422 354 421 358 q 429 321 431 336 q 417 289 426 303 q 400 272 408 276 q 410 247 407 258 q 403 185 414 214 q 361 129 389 144 q 319 121 340 118 q 324 99 324 110 q 315 63 324 82 q 263 14 297 24 q 199 28 225 6 q 193 33 194 32 q 160 -3 185 8 q 111 -6 136 -15 q 76 38 79 6 q 85 69 74 56 q 47 99 58 75 q 49 149 36 124 q 96 185 64 179 q 124 181 111 186 q 144 238 122 219 q 179 251 160 251 q 183 251 182 251 q 178 310 168 282 q 197 342 182 326 q 231 360 213 357 q 225 367 226 364 q 217 385 218 374 q 218 425 211 406 q 253 471 229 454 q 236 483 244 475 q 218 518 221 497 q 228 564 214 544 q 225 563 226 564 q 197 565 213 561 q 154 603 168 575 q 175 697 131 653 q 142 711 156 699 q 115 756 119 729 q 122 797 113 776 q 110 794 110 794 q 78 813 89 796 q 75 854 64 832 q 43 890 50 864 q 44 932 38 911 q 67 967 50 953 q 104 983 83 981 q 161 968 135 988 q 181 929 182 950 q 233 947 201 946 q 288 938 265 949 q 331 878 326 918 q 322 840 333 858 q 349 821 343 840 q 339 779 356 800 q 357 778 349 779 q 401 743 386 771 q 396 632 432 693 q 426 622 413 632 q 446 594 440 611 q 444 558 451 578 q 422 529 438 538 q 440 515 432 524 m 417 392 q 442 440 440 408 q 425 500 444 476 q 400 517 415 510 q 386 522 393 521 q 381 524 386 522 q 374 526 375 525 q 372 532 371 528 q 404 536 382 542 q 428 586 431 565 q 411 610 425 601 q 382 615 397 619 q 374 618 378 614 q 374 626 371 622 q 388 726 407 682 q 354 758 376 749 q 331 763 343 764 q 319 760 326 763 q 310 758 313 758 q 306 761 307 758 q 306 765 304 764 q 321 776 310 774 q 332 810 335 792 q 328 818 331 815 q 321 821 325 821 q 313 819 317 821 q 305 816 310 818 q 297 814 300 814 q 287 819 290 811 q 290 831 283 828 l 292 831 q 294 833 292 832 q 297 835 296 835 q 307 853 306 842 q 307 879 310 867 q 272 919 300 907 q 213 923 243 932 q 163 890 183 914 q 159 890 161 889 q 157 894 157 892 q 171 919 161 910 l 171 921 q 154 946 174 929 q 133 957 143 954 q 86 949 107 965 q 65 904 65 932 q 74 881 65 892 q 94 871 83 869 q 103 865 101 872 q 100 853 106 857 q 91 839 92 849 q 96 824 90 829 q 136 815 110 807 q 169 831 150 828 q 173 827 172 831 q 172 824 174 824 q 145 794 156 813 q 138 760 135 776 q 157 726 140 742 q 190 711 174 711 q 196 701 200 710 q 190 690 194 699 q 183 678 185 682 q 177 667 181 674 q 173 654 174 660 q 171 642 172 649 q 171 629 169 636 q 175 617 172 622 q 192 594 181 603 q 219 581 204 585 q 249 581 233 578 q 250 581 249 581 l 251 581 q 256 579 254 582 q 254 575 257 576 l 253 575 q 238 522 233 544 q 250 497 240 508 q 275 482 265 481 q 287 476 283 483 q 283 464 290 469 q 243 418 250 443 q 240 390 238 403 q 250 357 242 363 q 247 346 257 351 q 199 300 204 329 q 201 260 194 285 q 219 224 201 256 q 218 221 219 222 q 215 219 217 219 q 196 233 204 225 q 157 221 172 239 q 144 161 138 200 q 140 151 146 154 q 129 153 135 149 q 97 159 114 164 q 72 138 81 154 q 72 101 63 119 q 103 83 82 82 q 109 78 108 83 q 106 69 110 72 q 97 35 89 58 q 125 13 103 15 q 182 50 158 6 q 181 60 181 58 q 186 85 178 79 q 188 85 188 86 q 196 64 188 85 q 214 43 203 49 q 258 36 235 28 q 297 76 285 44 q 297 133 310 107 q 297 142 294 138 q 306 144 300 147 q 341 144 325 138 q 367 165 357 151 q 383 197 378 179 q 388 243 390 221 q 369 283 386 251 q 370 290 368 286 q 376 292 372 293 q 386 288 381 292 q 399 300 396 296 q 408 319 406 308 q 406 344 410 332 q 401 356 404 350 q 397 361 401 357 l 397 363 q 397 361 397 361 q 364 368 390 361 q 362 372 361 369 q 365 374 363 375 q 394 379 372 372 q 417 392 407 383 z "},"*":{"ha":483,"x_min":29,"x_max":457,"o":"m 390 826 q 361 790 386 800 q 342 788 351 786 q 344 774 344 781 q 365 767 357 774 q 383 736 379 754 q 383 704 389 718 q 379 694 382 700 q 388 692 383 693 q 403 682 397 689 q 410 648 415 668 q 389 619 406 628 q 350 618 368 610 q 336 632 342 622 q 333 638 335 635 q 319 635 326 635 q 290 644 303 635 q 278 665 283 651 q 282 707 269 692 q 275 721 276 714 q 260 728 268 721 q 250 736 254 731 q 240 724 246 729 q 225 714 233 717 q 226 713 225 714 q 226 713 226 713 q 229 692 229 706 q 215 653 228 668 q 182 631 201 633 q 168 632 175 629 q 158 611 165 618 q 122 604 144 596 q 103 632 106 610 q 107 650 103 642 q 107 651 107 651 q 92 663 99 654 q 83 699 81 676 q 124 740 86 732 q 131 785 115 767 q 156 803 140 796 q 158 804 157 803 q 154 810 157 806 q 106 800 129 785 q 93 828 89 810 q 82 828 88 826 q 54 839 67 829 q 32 885 29 857 q 61 930 35 914 q 114 935 88 946 q 147 906 136 926 q 153 908 150 907 q 176 907 164 911 q 186 901 181 904 q 189 907 188 904 q 174 921 179 913 q 172 964 161 942 q 207 986 186 989 q 213 986 210 986 q 214 985 214 985 q 215 988 214 985 q 215 992 215 990 q 225 1007 218 1000 q 260 1018 240 1019 q 294 1003 281 1017 q 311 943 319 981 q 294 910 307 925 q 297 897 297 906 q 321 907 308 904 q 346 907 335 911 q 357 897 353 904 q 360 904 358 901 q 376 919 365 913 q 417 926 399 929 q 447 894 439 924 q 433 843 456 865 q 408 828 422 833 q 393 826 400 825 q 390 826 393 826 m 335 807 q 354 807 343 804 q 379 836 378 814 q 388 840 381 844 q 401 843 390 840 q 413 849 406 844 q 429 867 425 857 q 432 889 435 876 q 420 908 429 901 q 389 908 411 915 q 372 900 379 906 q 363 889 364 894 q 363 888 363 888 q 360 885 361 886 q 357 888 358 885 q 357 889 357 888 q 342 894 351 894 q 324 890 335 894 q 292 869 304 883 q 281 867 288 864 q 276 878 275 871 q 281 894 281 890 q 281 899 281 896 q 274 894 278 896 q 271 896 272 894 q 271 899 269 897 q 294 950 292 919 q 279 990 296 978 q 256 999 269 999 q 232 989 242 999 q 225 978 231 988 q 213 972 221 971 q 204 971 206 972 q 197 967 200 969 q 188 954 190 963 q 189 929 182 942 q 199 919 193 924 q 201 917 200 918 q 203 917 201 917 q 204 915 203 915 q 211 914 204 915 q 214 909 214 913 q 211 906 214 906 q 201 904 207 904 q 201 903 201 903 q 200 900 201 901 l 200 899 l 200 899 q 199 897 200 899 q 199 896 199 897 q 199 893 199 894 l 197 892 l 197 892 q 197 890 197 890 l 197 889 q 197 888 197 889 q 197 887 197 888 q 197 885 197 886 q 194 864 200 875 q 192 863 193 863 q 189 864 190 863 q 186 872 188 867 q 182 881 185 878 q 172 889 179 886 q 154 886 156 896 q 146 880 153 879 q 138 886 139 881 q 97 919 125 917 q 57 899 69 921 q 63 857 43 875 q 82 844 71 849 q 92 843 86 844 q 101 842 99 842 q 114 847 107 849 q 115 844 118 847 q 113 840 115 843 q 111 836 111 838 q 110 828 108 833 q 118 815 111 818 q 133 815 125 811 q 146 828 143 821 q 156 835 149 835 q 164 828 163 835 q 178 811 167 821 q 188 806 183 807 q 199 807 189 804 q 201 806 200 807 q 201 803 203 804 q 188 796 199 799 q 171 797 179 794 q 161 790 169 796 q 144 774 150 781 q 144 736 136 761 q 143 728 146 732 q 136 724 140 724 q 101 697 106 724 q 106 674 100 685 q 111 664 108 667 q 115 662 113 663 q 119 660 117 661 q 124 658 121 660 q 125 655 125 657 q 124 651 125 653 q 122 651 122 651 q 121 651 122 651 q 119 633 118 639 q 131 619 122 622 q 138 619 135 618 q 144 622 142 621 q 149 628 146 624 q 153 635 151 632 q 156 642 154 638 q 158 649 158 646 q 165 652 161 653 q 171 647 169 651 q 171 646 171 646 q 176 644 174 644 q 183 647 181 646 q 204 668 197 653 q 211 694 211 679 q 210 708 211 699 q 210 713 210 710 q 210 714 210 713 q 206 715 207 714 q 193 719 194 719 q 193 721 193 719 q 194 722 193 722 q 198 723 194 722 q 203 724 201 724 q 208 725 206 725 q 213 725 211 725 q 229 735 221 726 q 239 765 233 740 q 246 771 240 771 q 253 765 251 771 q 254 754 254 760 q 268 739 257 746 q 276 735 271 738 q 283 732 282 733 q 289 729 286 729 q 297 729 290 728 q 299 729 299 731 q 299 726 300 728 q 290 724 297 725 q 283 721 289 724 q 285 718 285 719 q 294 713 288 715 q 299 708 297 711 q 297 703 300 706 q 292 694 293 699 q 292 683 290 690 q 299 663 293 672 q 304 657 301 658 q 317 651 310 653 q 328 651 322 650 q 335 653 331 651 q 340 656 339 656 q 345 655 343 657 q 347 650 347 653 q 350 644 349 649 l 350 643 q 351 642 350 643 q 353 639 351 640 l 354 638 q 356 636 354 636 l 357 635 l 358 635 q 363 633 360 633 q 364 633 364 633 q 365 633 364 633 q 368 633 367 633 q 371 633 369 633 q 374 633 372 633 q 379 635 378 633 l 381 635 l 382 636 q 385 638 383 636 q 392 644 389 640 q 396 656 394 650 q 389 676 397 668 q 379 683 385 679 q 376 685 378 683 q 372 686 374 686 q 372 686 372 686 q 363 683 368 683 q 360 688 360 683 q 363 692 360 689 q 365 697 365 696 q 368 708 367 701 q 368 732 369 721 q 354 753 365 744 q 335 757 349 758 q 328 760 331 757 q 326 768 325 764 q 331 789 332 781 q 311 807 315 793 q 313 811 311 810 q 317 812 314 813 q 322 810 319 811 q 328 808 325 810 q 335 807 332 807 z "},"+":{"ha":600,"x_min":25,"x_max":576,"o":"m 538 538 q 565 513 556 531 q 572 475 575 494 q 556 440 569 456 q 524 419 543 424 q 488 424 506 414 q 471 435 479 426 q 468 407 475 421 q 429 376 457 385 q 372 382 396 365 q 368 372 371 379 q 419 340 400 374 q 418 257 443 300 q 344 215 393 215 q 294 240 306 215 q 263 219 282 222 q 214 239 232 214 q 203 280 200 257 q 222 317 206 303 q 210 332 214 324 q 203 375 199 351 q 208 393 204 385 q 126 378 163 361 q 106 421 104 390 q 69 419 88 413 q 52 428 60 422 q 39 442 44 435 q 30 460 33 450 q 26 479 26 469 q 37 517 25 499 q 68 543 49 535 q 99 549 81 550 q 129 538 118 549 q 167 583 136 572 q 211 585 188 593 q 208 596 208 592 q 211 628 204 614 q 238 653 221 647 q 224 674 229 661 q 224 749 207 711 q 239 768 229 760 q 260 781 249 776 q 285 783 272 785 q 332 750 318 781 q 364 754 351 756 q 397 728 389 753 q 386 678 406 699 q 369 665 381 672 q 386 656 375 664 q 408 622 403 644 q 404 578 414 601 q 403 576 404 578 q 403 574 403 575 q 450 567 425 578 q 485 544 475 557 q 492 528 490 536 q 538 538 511 549 m 551 472 q 535 521 561 503 q 493 517 513 535 q 492 513 493 514 q 490 513 492 513 l 490 514 q 488 511 489 513 q 482 514 485 508 q 486 521 485 519 q 485 523 486 521 q 482 526 483 525 q 471 535 475 532 q 446 551 460 546 q 406 560 424 561 q 376 546 392 558 q 369 546 372 543 q 368 553 367 549 q 378 563 372 560 q 379 569 378 565 q 382 574 381 571 q 385 579 383 576 q 388 583 386 582 q 392 617 394 601 q 376 644 389 631 q 364 653 372 647 q 360 656 364 653 q 354 660 356 658 l 353 660 q 339 660 353 660 q 338 662 338 660 q 339 664 338 664 q 346 668 342 665 q 349 670 347 669 q 353 672 350 671 q 357 675 356 674 q 371 690 365 681 q 374 721 381 707 q 331 726 364 739 q 317 735 321 724 q 281 758 307 758 q 244 735 254 758 q 243 683 235 711 q 256 661 246 671 q 278 649 256 661 q 279 644 279 647 q 278 642 279 642 q 260 640 271 636 q 258 640 258 640 q 229 614 235 635 q 238 567 224 586 q 237 558 240 563 q 229 556 233 554 q 175 558 193 567 q 153 542 168 557 q 136 521 142 529 q 128 519 133 517 q 101 528 117 529 q 72 519 85 528 q 51 479 49 506 q 71 444 51 456 q 110 440 90 432 q 138 460 118 458 q 140 458 140 460 q 139 454 140 456 q 125 419 125 449 q 146 393 125 397 q 188 397 165 389 q 224 421 210 406 q 231 422 226 425 q 233 415 235 419 q 225 349 215 372 q 243 332 231 336 q 269 333 253 328 q 274 331 272 333 q 276 326 276 329 q 247 308 271 310 q 228 288 233 299 q 231 253 219 269 q 260 233 242 233 q 280 241 271 235 q 292 256 289 247 q 297 260 293 260 q 303 256 301 260 q 322 236 306 242 q 353 233 338 231 q 401 269 386 239 q 401 329 417 299 q 353 357 388 356 q 343 351 346 353 q 336 351 342 351 l 329 351 q 319 356 321 353 q 319 357 318 357 q 328 363 319 357 q 335 368 331 364 q 339 371 336 369 q 341 372 340 372 q 342 372 342 372 l 342 374 q 342 374 342 374 q 344 375 343 375 l 346 376 l 347 378 l 351 382 l 351 383 q 352 384 351 383 q 353 385 353 385 q 356 390 354 388 q 358 400 357 397 l 358 401 l 358 406 q 358 407 357 407 q 358 421 360 415 q 360 425 357 424 q 364 425 363 426 q 375 400 374 413 q 418 396 397 392 q 450 414 440 400 q 458 449 464 432 q 460 451 458 450 q 464 450 461 451 q 515 438 478 428 q 551 472 544 444 z "},",":{"ha":354,"x_min":31,"x_max":342,"o":"m 263 -19 q 289 -14 276 -21 q 306 7 301 -7 q 283 58 313 33 q 281 69 278 64 q 290 76 283 75 q 299 83 290 76 q 306 96 303 90 q 303 126 310 107 q 289 149 299 139 q 267 165 275 164 q 267 169 267 168 q 272 169 269 169 q 278 169 275 169 q 292 202 292 182 q 279 235 292 222 q 263 244 271 243 q 247 242 254 246 q 233 233 240 239 q 219 219 225 226 q 211 206 214 213 q 203 201 208 201 q 196 206 199 201 q 173 221 188 217 q 144 218 158 225 q 129 194 133 210 q 131 172 128 188 q 129 164 135 168 q 119 163 125 157 q 118 164 119 163 q 63 144 76 174 q 64 117 54 129 q 88 100 74 101 q 95 93 94 100 q 89 85 96 86 q 79 74 81 82 q 86 61 78 65 q 101 61 92 58 q 106 63 104 63 q 138 75 117 75 q 139 74 139 75 q 139 71 139 72 q 125 61 129 67 q 117 46 118 51 q 114 39 114 43 l 114 33 q 122 8 117 15 q 146 -3 133 -4 q 172 8 163 -1 q 178 9 175 11 q 181 4 181 7 q 169 -12 178 -4 q 171 -26 169 -18 q 189 -49 175 -43 q 190 -52 190 -50 q 188 -54 189 -54 q 172 -50 181 -54 q 161 -50 165 -49 q 147 -60 156 -53 q 139 -90 132 -72 q 164 -107 146 -108 q 177 -101 172 -106 q 182 -87 182 -96 q 188 -80 182 -82 q 197 -82 193 -78 q 222 -88 208 -90 q 246 -76 236 -86 q 258 -50 256 -67 q 254 -19 263 -31 q 255 -16 253 -18 q 260 -15 257 -14 q 261 -17 260 -17 q 263 -19 263 -18 m 314 68 q 308 64 311 65 q 326 -6 342 32 q 313 -24 322 -17 q 294 -34 304 -32 q 275 -33 285 -36 q 278 -51 278 -43 q 261 -92 276 -75 q 222 -111 244 -111 q 196 -104 208 -112 q 168 -125 188 -124 q 159 -126 164 -126 q 150 -124 154 -125 q 142 -120 146 -122 q 134 -115 138 -118 q 128 -107 131 -111 q 124 -99 126 -103 q 136 -50 114 -68 q 163 -42 146 -40 q 157 -29 157 -35 q 156 -21 156 -24 q 107 -8 129 -31 q 93 35 89 11 q 94 42 93 38 q 96 43 96 43 q 74 50 82 43 q 67 86 56 65 q 64 88 67 86 q 46 104 53 92 q 42 151 31 126 q 79 185 53 176 q 111 183 96 189 q 114 201 111 190 q 138 233 121 224 q 200 225 171 251 q 238 261 213 253 q 296 249 272 276 q 310 193 317 222 q 293 167 306 175 q 303 161 299 164 q 325 129 318 149 q 325 85 333 104 q 314 68 321 75 z "},"-":{"ha":463,"x_min":21,"x_max":435,"o":"m 411 494 q 431 464 426 483 q 426 428 435 444 q 401 399 419 410 q 364 390 383 389 q 324 415 338 393 q 301 384 318 396 q 264 371 285 372 q 211 390 232 368 q 208 386 210 388 q 178 369 197 371 q 147 376 161 368 q 131 403 135 386 q 103 388 122 393 q 42 401 63 375 q 36 464 21 428 q 51 489 42 479 q 65 497 57 493 q 53 510 57 503 q 44 540 44 526 q 76 597 43 576 q 144 599 113 619 q 167 568 164 588 q 240 606 197 603 q 300 569 283 607 q 340 590 317 586 q 385 582 363 593 q 415 540 411 568 q 404 499 418 515 q 408 496 406 497 q 411 494 410 494 m 406 433 q 410 457 411 443 q 400 478 408 471 q 358 482 383 492 q 352 483 354 481 q 351 488 350 485 q 383 503 361 504 q 391 537 394 518 q 372 564 388 556 q 334 568 353 574 q 304 546 315 563 q 294 542 300 540 q 286 550 288 543 q 266 579 285 569 q 228 583 247 589 q 206 575 215 581 q 183 558 196 569 q 164 543 169 546 q 157 544 160 540 q 156 550 154 547 q 156 552 156 551 q 158 554 157 553 q 128 581 151 575 q 86 572 104 586 q 69 538 69 560 q 85 501 69 514 q 83 490 92 496 q 57 459 65 481 q 58 418 49 438 q 100 406 69 401 q 135 428 125 410 q 136 429 136 429 q 139 433 138 431 q 143 435 140 436 q 144 431 146 433 q 144 425 144 428 q 150 400 143 411 q 151 399 150 400 q 154 396 153 397 l 156 394 q 159 392 158 393 q 161 392 160 392 q 165 390 163 392 q 168 389 168 390 l 171 389 l 175 389 q 176 390 176 389 q 176 390 176 390 q 181 390 179 390 q 182 392 181 390 q 184 392 183 392 q 186 393 185 393 q 188 393 186 393 l 188 394 l 189 396 q 190 397 189 397 q 192 401 190 399 q 193 404 193 403 q 194 404 193 404 q 194 406 194 404 q 194 407 194 406 q 194 408 194 408 q 197 416 196 411 q 200 421 199 421 q 204 429 201 428 q 207 429 206 429 q 208 428 208 429 q 214 417 213 424 q 215 411 215 414 q 240 396 224 400 q 269 393 257 392 q 298 410 285 397 q 317 439 311 424 q 321 443 318 443 q 326 440 324 443 q 364 413 340 415 q 406 433 392 410 z "},".":{"ha":329,"x_min":18,"x_max":293,"o":"m 240 83 q 256 94 249 86 q 264 133 265 106 q 243 160 263 153 q 233 161 236 161 l 221 161 l 219 161 q 206 157 213 157 q 202 155 204 156 q 199 154 200 154 q 197 154 197 153 q 196 157 196 156 l 199 158 q 200 164 197 160 q 201 165 200 165 q 203 167 201 165 q 204 169 203 168 q 206 169 206 169 q 213 176 208 172 q 218 181 214 178 q 218 183 218 182 q 219 185 219 183 q 221 188 221 186 q 221 189 221 189 l 221 190 l 221 192 l 221 193 q 221 195 221 194 q 221 197 221 196 q 220 198 221 197 q 219 199 219 199 l 219 200 l 218 201 q 215 203 217 203 l 214 203 l 213 203 q 210 204 211 204 l 208 204 l 204 204 q 200 204 201 204 l 199 204 q 195 202 197 203 q 193 201 193 201 l 192 201 l 190 200 q 188 199 190 200 q 182 196 183 197 q 172 188 176 193 q 164 178 165 181 q 162 176 164 175 q 160 178 160 176 q 163 192 161 186 q 153 215 161 204 q 134 228 146 225 q 110 226 122 231 q 94 203 96 221 q 104 176 92 186 q 104 167 107 172 q 96 164 101 163 q 82 161 96 164 q 69 157 74 160 q 51 140 57 150 q 46 113 42 124 q 68 96 50 101 q 72 92 71 96 q 69 88 72 89 q 63 85 67 86 q 54 76 63 83 q 50 67 46 71 q 79 69 57 57 q 85 70 82 72 q 89 64 89 68 q 90 55 90 61 q 90 46 89 49 q 97 29 92 38 q 125 14 107 15 q 157 24 143 13 q 169 36 165 31 q 174 43 171 38 q 178 51 176 49 q 185 55 181 56 q 192 50 190 54 q 192 40 192 46 q 218 35 203 25 q 226 49 224 39 q 226 64 229 61 q 224 65 225 64 q 222 67 222 65 q 219 71 218 67 q 222 76 219 75 q 229 79 225 76 l 232 81 q 236 82 233 81 q 240 83 239 83 m 238 181 q 249 181 243 182 q 260 178 254 181 q 269 174 265 176 q 276 167 272 171 q 282 158 279 163 q 286 149 285 154 q 289 139 288 143 q 272 78 292 99 q 247 64 261 68 q 239 61 247 63 l 240 60 q 244 44 246 51 q 225 17 244 25 q 188 24 203 7 q 172 3 182 13 q 119 -11 150 -15 q 76 19 90 -6 q 71 50 68 36 q 36 61 46 43 q 40 83 31 74 q 46 88 44 86 q 33 99 38 92 q 29 142 18 118 q 57 174 38 164 q 75 181 67 178 q 68 206 68 190 q 100 250 69 238 q 153 240 131 261 q 168 204 168 226 q 171 206 169 204 q 174 208 172 208 q 205 222 186 221 q 236 210 224 224 q 238 181 244 199 z "},"/":{"ha":619,"x_min":25,"x_max":593,"o":"m 543 863 q 581 810 569 840 q 581 750 593 779 q 536 711 567 717 q 528 710 531 710 q 538 692 533 703 q 538 642 546 667 q 485 590 525 601 q 503 530 507 564 q 479 467 500 496 q 414 419 453 431 q 418 413 417 415 q 428 385 428 400 q 399 340 426 353 q 388 336 396 339 q 394 282 401 307 q 361 246 389 253 q 347 243 354 243 q 349 242 347 243 q 350 240 350 240 q 361 215 357 229 q 360 154 368 185 q 333 107 353 125 q 297 85 318 90 q 303 65 301 76 q 283 8 307 33 q 221 -19 256 -22 q 181 4 192 -17 q 161 -11 168 -7 q 126 -22 143 -21 q 64 0 92 -25 q 42 64 36 28 q 60 103 44 89 q 39 135 47 115 q 33 207 25 169 q 51 248 39 228 q 81 284 63 268 q 121 306 100 300 q 108 350 110 328 q 124 407 107 379 q 161 440 139 431 q 190 447 176 447 l 189 450 l 186 451 q 165 482 174 464 q 158 553 153 511 q 196 632 165 601 q 253 658 221 657 q 246 686 246 674 q 256 725 244 707 q 304 757 274 753 q 297 772 300 767 q 299 832 288 803 q 342 878 310 863 q 372 888 358 886 q 358 908 363 896 q 365 956 349 936 q 413 972 382 979 q 439 956 426 968 q 469 999 439 983 q 553 992 510 1018 q 583 921 592 968 q 568 883 581 900 q 543 863 563 878 m 564 767 q 522 856 572 807 q 519 863 519 858 q 524 869 519 868 q 561 917 550 882 q 546 971 572 951 q 483 982 515 993 q 450 940 457 974 q 449 939 450 939 q 447 936 449 936 q 443 938 444 936 q 443 939 443 938 q 422 951 433 946 q 397 953 410 956 q 379 940 385 951 q 377 918 374 931 q 387 896 381 906 q 401 879 393 886 q 403 873 404 876 q 397 869 401 869 q 350 857 372 869 q 321 821 328 844 q 317 776 314 801 q 336 733 319 764 q 336 730 338 732 q 333 728 335 728 q 313 743 325 732 q 275 714 286 732 q 267 683 268 701 q 275 654 265 665 q 276 644 279 650 q 268 638 274 639 q 208 608 231 633 q 183 546 189 586 q 186 490 179 519 q 210 444 193 461 q 213 444 213 444 q 217 440 217 443 q 216 438 217 439 q 214 436 215 436 q 213 436 214 436 q 144 397 164 426 q 132 351 132 376 q 146 304 132 325 q 149 293 151 299 q 139 286 146 288 q 87 256 110 283 q 57 199 64 229 q 61 140 51 167 q 69 124 64 132 q 83 107 75 117 q 93 93 90 97 q 94 88 96 90 q 89 86 92 86 q 74 92 81 88 q 68 83 69 86 q 61 60 63 72 q 78 16 58 35 q 125 -1 99 -3 q 178 24 161 0 q 185 26 181 26 q 192 21 190 26 q 215 1 199 4 q 246 6 231 -1 q 271 25 261 14 q 281 64 283 44 q 263 100 278 83 q 263 106 261 103 q 267 107 264 108 q 293 93 283 104 q 339 156 329 122 q 343 210 349 182 q 331 249 338 238 q 322 256 325 251 q 321 260 319 257 q 325 263 322 264 q 358 267 343 258 q 375 293 372 275 q 367 332 376 313 q 342 361 356 357 q 340 366 339 363 q 343 369 340 369 q 375 353 363 365 q 378 354 376 354 q 407 381 403 357 q 404 403 410 393 q 397 413 403 408 q 394 417 396 415 q 358 422 375 415 q 356 428 354 424 q 360 432 357 432 q 457 475 419 433 q 478 512 471 492 q 482 554 486 532 q 460 589 478 576 q 456 596 456 592 q 461 601 457 600 q 518 647 506 613 q 508 714 531 681 q 488 729 497 719 q 489 733 485 732 l 492 733 q 503 728 496 731 q 506 728 503 729 q 507 728 506 728 q 536 732 521 725 q 564 767 560 740 z "},":":{"ha":350,"x_min":36,"x_max":311,"o":"m 267 385 q 294 372 283 383 q 307 343 304 360 q 290 282 310 303 q 265 268 279 272 q 257 267 260 267 q 258 264 257 265 q 263 249 264 257 q 243 221 263 229 q 206 229 221 211 q 190 207 200 217 q 138 194 168 189 q 94 225 108 199 q 89 256 86 242 q 54 265 64 246 q 60 288 49 279 q 65 292 61 289 q 51 303 56 296 q 47 347 36 322 q 75 378 54 368 q 93 385 85 382 q 86 411 86 394 q 118 454 88 442 q 171 444 147 465 q 188 408 186 431 q 192 414 190 413 q 222 428 203 426 q 254 415 242 429 q 256 385 263 401 q 267 385 261 386 m 274 299 q 282 338 283 310 q 261 364 282 357 q 251 365 258 365 q 246 366 250 365 q 239 367 242 367 q 238 366 239 367 q 238 365 238 365 q 224 361 229 361 q 220 360 222 361 q 217 358 218 358 q 215 358 215 357 q 214 361 214 360 l 215 363 l 217 363 q 218 369 215 365 l 218 368 q 219 371 218 369 l 221 372 l 224 374 q 231 381 226 376 q 236 385 232 382 q 236 389 236 388 l 238 390 q 239 392 239 390 q 239 394 239 393 l 239 396 l 239 397 q 239 399 239 399 q 239 401 239 400 l 238 403 l 238 404 l 235 406 l 236 406 q 234 406 235 406 q 233 407 233 407 l 232 407 q 231 408 231 408 q 229 408 231 408 q 228 408 228 408 l 226 408 l 222 408 l 218 408 l 217 408 q 213 406 215 407 q 211 406 211 406 l 210 406 l 208 406 q 206 404 206 404 q 203 402 204 403 q 200 400 201 401 q 190 392 196 399 q 182 382 185 386 q 178 383 181 381 q 181 396 178 390 q 163 427 179 415 q 128 432 146 439 q 112 408 114 425 q 122 381 110 390 q 122 372 125 376 q 114 368 119 367 q 100 367 114 368 q 88 363 93 365 q 69 344 75 356 q 64 317 60 329 q 86 301 68 304 q 90 297 89 300 q 88 292 90 293 q 81 289 86 290 q 72 281 81 289 q 68 271 64 276 q 97 275 75 261 q 101 276 99 276 q 106 273 104 275 q 107 269 107 271 q 108 260 108 267 q 108 250 107 253 q 115 233 110 242 q 143 218 125 219 q 175 228 161 217 q 188 240 181 232 q 192 249 189 243 q 196 256 194 254 q 203 259 199 260 q 210 254 208 258 q 210 244 210 251 q 236 239 221 229 q 244 253 242 243 q 244 268 247 265 q 242 269 243 268 q 240 271 240 269 q 238 276 238 272 q 240 281 238 279 q 246 283 243 281 l 250 285 q 258 288 256 286 q 274 299 268 293 m 65 636 q 51 647 57 640 q 47 692 36 668 q 75 722 56 713 q 93 729 85 726 q 86 756 86 739 q 118 799 88 786 q 171 789 147 810 q 188 753 186 775 q 192 758 190 757 q 222 772 203 771 q 254 760 242 774 q 256 729 263 747 q 267 729 261 731 q 294 715 283 728 q 307 688 304 703 q 290 626 310 647 q 265 613 279 617 q 257 611 263 611 q 258 608 257 610 q 263 593 264 600 q 243 565 263 574 q 206 574 221 556 q 190 551 200 561 q 138 539 168 533 q 94 569 108 543 q 89 600 86 586 q 54 610 64 590 q 60 632 49 622 q 65 636 63 635 m 69 689 q 64 661 60 672 q 86 644 68 649 q 90 641 89 644 q 88 636 90 638 q 81 633 86 635 q 72 625 81 633 q 68 615 64 621 q 97 619 75 606 q 107 613 106 625 q 107 603 107 610 q 108 594 107 597 q 115 578 110 586 q 143 563 125 564 q 175 572 161 561 q 188 585 181 576 q 192 592 189 588 q 196 600 194 597 q 203 603 199 604 q 210 599 208 603 q 210 589 210 596 q 236 583 221 574 q 244 597 242 588 q 244 613 247 610 q 242 613 243 613 q 240 615 240 614 q 237 620 236 617 q 240 625 238 624 q 245 627 242 625 q 250 629 249 629 q 254 631 251 629 q 258 632 257 632 q 274 643 268 636 q 282 682 282 654 q 261 708 282 701 q 251 710 258 710 q 246 710 250 710 q 239 711 242 711 q 238 710 239 711 q 238 710 238 710 q 224 706 229 706 q 217 703 219 704 q 215 703 215 701 q 214 706 214 704 q 216 706 215 706 q 217 707 217 707 q 218 714 215 710 l 218 713 q 219 715 218 714 l 221 715 l 224 718 q 231 725 226 721 q 236 729 232 726 q 238 733 238 732 l 238 735 q 239 736 239 735 q 239 738 239 738 l 239 740 l 239 742 q 239 744 239 743 q 239 746 239 744 l 238 747 l 238 749 l 236 750 q 234 751 235 750 q 233 751 233 751 l 232 751 q 231 753 232 751 q 228 753 229 753 l 226 753 l 222 753 l 218 753 l 217 753 q 213 751 215 751 q 211 750 211 750 l 210 750 l 208 750 q 207 749 208 750 q 206 747 206 749 q 203 747 204 747 q 200 744 201 746 q 190 738 193 740 q 182 726 185 732 q 178 728 181 725 q 181 740 178 735 q 163 772 179 760 q 128 775 146 783 q 112 752 114 769 q 122 725 110 735 q 122 716 125 721 q 114 713 119 711 q 100 711 114 713 q 88 706 93 710 q 69 689 75 700 z "},";":{"ha":383,"x_min":36,"x_max":347,"o":"m 81 636 q 67 647 71 640 q 63 692 53 668 q 90 722 71 713 q 108 729 100 726 q 101 756 100 740 q 133 799 104 786 q 186 789 164 810 q 201 753 201 775 q 207 758 203 754 q 238 772 219 771 q 269 760 257 774 q 271 729 278 747 q 283 729 276 731 q 310 715 299 728 q 322 688 321 703 q 306 626 326 647 q 282 613 294 617 q 272 611 278 611 q 274 608 272 610 q 279 593 279 600 q 258 565 278 574 q 221 574 236 556 q 206 551 217 561 q 153 539 183 533 q 110 569 124 543 q 104 600 103 586 q 71 610 79 592 q 75 632 64 622 q 81 636 79 635 m 85 689 q 81 661 75 672 q 103 644 83 649 q 106 641 106 644 q 103 636 106 638 q 97 633 100 635 q 88 625 96 633 q 83 615 79 621 q 113 619 90 606 q 124 613 121 625 q 124 594 124 597 q 131 578 125 586 q 158 563 140 564 q 190 572 178 561 q 203 585 199 579 q 211 600 204 588 q 219 603 214 604 q 225 599 225 603 q 225 589 226 594 q 250 583 238 574 q 260 597 257 588 q 260 613 263 610 q 256 615 258 614 q 253 620 253 617 q 257 625 253 624 q 260 626 258 625 q 265 629 264 629 q 269 631 267 629 q 274 632 272 632 q 289 643 282 636 q 297 682 299 654 q 276 708 297 701 q 267 710 274 710 q 261 710 265 710 q 256 711 257 711 q 253 710 254 711 q 253 710 253 710 q 240 706 244 706 q 239 706 239 706 q 232 703 233 703 q 230 703 231 701 q 231 706 229 704 l 232 707 q 235 714 231 710 l 235 713 q 235 715 235 714 l 236 715 q 239 718 236 715 q 242 722 240 719 q 246 725 244 724 q 251 729 247 726 l 251 731 l 253 733 l 254 735 q 254 736 254 735 q 256 738 254 738 l 256 740 l 256 742 q 255 744 256 743 q 254 746 254 744 q 253 747 254 747 l 253 749 l 251 750 q 250 751 251 750 q 249 751 249 751 l 247 751 q 246 753 246 751 q 243 753 244 753 l 242 753 l 239 753 l 235 753 l 232 753 q 229 751 231 751 q 226 750 228 750 l 225 750 q 224 750 225 750 q 221 748 222 749 q 217 746 219 747 l 215 744 q 206 738 208 740 q 197 726 200 732 q 195 725 197 725 q 193 728 193 725 q 196 740 194 738 q 178 772 196 760 q 143 775 161 783 q 128 752 129 769 q 138 725 126 735 q 138 716 140 721 q 129 713 135 711 q 117 711 129 713 q 103 706 108 710 q 85 689 90 700 m 314 268 q 332 199 347 236 q 310 174 325 183 q 281 171 294 165 q 283 153 283 161 q 267 113 282 131 q 228 93 250 94 q 201 100 213 93 q 174 79 193 82 q 147 84 160 76 q 129 106 135 92 q 142 156 119 135 q 168 163 153 164 q 163 175 164 168 q 161 185 161 178 q 113 196 133 175 q 99 239 94 217 q 100 246 99 242 q 101 247 100 246 q 101 249 101 247 q 79 254 88 247 q 74 290 63 269 q 72 291 72 290 q 69 292 71 292 q 51 308 60 296 q 47 356 36 331 q 85 389 58 382 q 117 389 100 393 q 119 406 117 394 q 143 438 125 428 q 206 429 176 457 q 243 467 218 456 q 301 453 278 481 q 315 397 322 428 q 299 371 311 378 q 308 365 303 369 q 331 333 324 354 q 331 289 339 310 q 319 272 326 279 q 317 271 319 272 q 314 268 315 269 m 289 263 q 287 274 283 268 q 296 281 290 281 q 304 289 299 282 q 311 300 308 294 q 308 331 315 313 q 294 353 304 343 q 272 369 282 368 q 271 372 271 371 q 272 374 271 374 q 283 374 276 374 q 297 406 297 386 q 285 439 297 426 q 258 449 272 454 q 234 433 244 443 q 217 410 224 422 q 209 406 214 406 q 201 410 204 406 q 178 426 193 422 q 151 422 164 431 q 135 399 139 414 q 136 376 133 392 q 135 368 140 372 q 125 367 132 361 q 124 368 124 368 q 68 349 82 376 q 69 321 60 335 q 93 306 79 306 q 101 297 100 304 q 96 289 103 290 q 85 278 86 286 q 92 265 83 269 q 107 265 97 261 q 111 267 108 265 q 143 279 122 279 q 144 278 144 279 q 144 276 144 276 q 131 265 136 272 q 122 251 129 264 q 119 243 121 249 q 119 238 119 240 q 128 213 121 221 q 151 201 139 200 q 178 213 168 203 q 183 213 181 215 q 186 208 186 211 q 175 193 183 200 l 175 192 q 176 178 175 188 q 194 156 181 161 q 193 150 196 154 q 178 156 183 151 q 167 154 169 156 q 153 144 160 151 q 144 115 138 132 q 169 97 151 97 q 183 104 178 99 q 188 117 188 110 q 193 124 188 122 q 203 122 199 126 q 228 116 214 114 q 253 128 243 118 q 265 154 261 139 q 261 185 268 176 q 261 189 257 188 l 265 189 q 268 185 267 188 q 295 190 283 183 q 311 211 307 197 q 289 263 318 239 z "},"<":{"ha":592,"x_min":26,"x_max":575,"o":"m 486 825 q 481 834 481 828 q 488 842 482 840 q 533 876 518 849 q 533 932 549 904 q 488 957 517 963 q 447 924 461 953 q 440 920 444 919 q 436 925 436 921 q 387 935 414 938 q 343 913 360 932 q 326 867 326 894 q 342 818 329 833 q 343 810 346 815 q 336 807 340 806 q 301 810 321 813 q 272 793 282 806 q 258 763 263 783 q 258 740 257 749 q 264 729 263 735 q 257 724 264 724 q 204 735 228 739 q 158 710 176 729 q 136 660 139 690 q 154 608 133 629 q 156 601 157 606 q 150 596 154 597 q 111 567 121 586 q 103 513 103 554 q 101 510 103 511 q 97 511 99 510 q 88 525 90 515 q 78 519 86 524 q 64 511 69 517 q 51 482 50 499 q 69 458 54 468 q 82 450 75 453 q 100 449 93 444 q 105 449 103 450 q 107 444 107 447 q 105 431 107 440 q 103 418 103 422 q 104 392 100 406 q 132 347 111 363 q 244 354 171 318 q 250 349 249 356 q 222 322 242 332 q 215 292 215 294 q 225 250 213 268 q 257 222 235 232 q 279 214 264 218 q 286 213 281 214 q 296 211 292 213 q 299 213 296 211 q 307 212 303 215 q 308 204 311 208 q 295 166 296 186 q 308 129 294 146 q 343 114 322 115 q 361 114 353 111 q 367 115 364 114 q 372 117 371 115 q 378 117 375 117 q 382 110 383 117 q 381 108 382 110 q 379 106 381 107 q 379 100 379 104 q 379 94 379 96 q 382 78 379 85 q 406 53 389 63 q 475 46 444 31 q 507 97 508 60 q 494 131 506 114 q 485 142 492 138 q 469 150 472 150 q 468 151 468 150 q 469 154 468 153 q 488 156 488 156 q 490 155 488 156 q 492 154 492 154 q 494 165 493 158 q 497 178 496 172 q 499 189 499 185 q 489 233 500 215 q 472 253 483 244 q 447 267 461 263 q 421 268 433 271 q 410 272 414 267 q 411 283 407 278 q 424 319 424 299 q 411 354 424 340 q 379 372 400 368 q 365 374 378 375 q 351 374 353 374 q 344 374 349 374 q 342 378 340 375 q 343 381 342 379 q 345 385 344 383 q 347 390 346 388 q 349 394 347 392 q 350 399 350 396 q 354 421 354 408 q 333 464 354 446 q 279 486 314 481 q 246 489 279 488 q 215 493 225 489 q 214 497 214 494 q 215 500 214 499 q 225 506 218 503 q 239 519 233 511 q 249 539 244 526 l 244 543 q 240 547 242 546 q 239 551 238 549 q 243 553 240 554 q 251 550 246 551 q 257 549 256 549 q 269 546 261 547 q 294 550 278 546 q 317 557 308 551 q 333 571 325 563 q 350 611 347 588 q 350 639 351 619 q 344 661 349 656 q 346 665 344 663 q 363 650 357 661 q 363 649 363 650 q 364 647 364 647 q 367 647 367 647 q 379 650 372 647 q 382 651 381 650 q 385 651 383 651 l 388 651 q 390 653 390 653 q 392 655 390 654 q 394 657 394 656 l 396 658 q 397 660 397 658 q 399 660 397 660 l 399 661 l 400 664 q 401 671 401 668 q 403 686 403 675 q 400 697 403 693 q 394 701 399 700 l 393 703 l 390 704 q 390 707 388 706 l 389 708 q 388 714 386 710 q 394 717 390 718 q 447 710 418 706 q 493 736 476 714 q 509 783 510 754 q 486 825 508 811 m 438 936 q 483 975 446 968 q 549 949 522 985 q 557 874 574 913 q 513 831 543 844 q 531 780 531 810 q 514 726 531 750 q 472 694 499 704 q 419 692 444 683 q 419 665 422 681 q 403 638 418 647 q 375 631 390 628 q 369 631 371 631 q 371 624 371 626 q 332 539 378 569 q 283 528 306 522 q 278 528 281 528 q 272 530 275 529 q 267 531 269 531 q 261 533 264 532 q 251 510 260 519 l 251 508 l 256 508 q 294 507 271 510 q 356 475 333 499 q 378 415 381 450 q 371 393 376 406 q 386 392 376 393 q 429 365 411 388 q 438 288 458 329 q 468 281 454 288 q 507 247 492 271 q 521 197 521 225 q 504 147 521 168 q 528 113 522 136 q 511 43 536 69 q 443 18 486 14 q 375 50 399 21 q 360 83 361 67 q 360 94 358 89 q 339 93 347 93 q 293 115 310 94 q 275 156 278 132 q 285 199 272 181 q 274 197 278 197 q 247 204 258 199 q 204 240 217 215 q 194 296 190 265 q 200 314 197 308 q 118 329 153 303 q 83 389 89 351 q 85 422 81 406 q 89 436 89 433 q 81 435 83 435 q 57 440 68 435 q 31 478 35 453 q 50 526 26 506 q 72 538 61 535 q 83 538 75 538 q 92 578 81 558 q 132 610 106 604 q 111 664 111 636 q 140 729 111 701 q 208 760 169 758 q 238 754 225 760 q 236 767 236 763 q 256 810 238 792 q 297 832 272 828 q 311 832 304 832 q 310 835 311 832 q 301 867 303 847 q 324 929 300 903 q 380 956 346 953 q 438 936 414 958 z "},"=":{"ha":665,"x_min":32,"x_max":628,"o":"m 606 364 q 621 326 621 351 q 589 272 621 293 q 526 263 560 251 q 496 286 507 271 q 480 267 489 275 q 459 257 471 260 q 435 256 447 254 q 403 274 417 258 q 400 277 401 275 q 399 279 399 279 q 371 260 390 264 q 326 282 343 257 q 300 260 315 265 q 249 257 278 249 q 210 278 225 263 q 181 246 200 260 q 115 239 150 225 q 78 287 85 253 q 94 343 71 321 q 90 344 93 343 q 85 347 88 346 q 74 357 81 350 q 56 386 60 369 q 76 447 46 422 q 147 458 107 472 q 183 425 176 446 q 281 461 214 461 q 344 440 318 460 q 369 411 361 429 q 415 436 388 438 q 444 422 435 436 q 450 413 449 418 q 488 450 458 433 q 560 458 521 467 q 614 414 603 447 q 615 381 621 397 q 606 364 613 374 m 600 324 q 586 353 603 343 q 581 360 582 356 q 586 368 581 365 q 596 389 594 374 q 592 413 597 404 q 547 439 579 435 q 494 431 519 444 q 457 392 468 417 q 451 389 456 388 q 447 393 447 390 q 447 398 447 394 q 447 401 447 401 q 435 414 442 410 q 414 419 424 419 q 378 390 389 418 q 369 383 375 385 q 363 388 364 382 q 342 414 356 403 q 313 431 329 425 q 281 439 297 438 q 224 429 253 439 q 182 400 196 419 q 176 399 179 397 q 174 404 172 400 q 176 411 175 408 q 138 436 165 431 q 93 426 110 442 q 81 390 75 411 q 90 369 82 379 q 108 351 101 353 q 111 340 118 349 q 99 294 94 321 q 129 260 104 268 q 174 268 150 253 q 190 285 182 272 q 197 294 193 288 q 193 301 196 296 q 192 324 190 308 q 194 326 192 325 q 197 324 196 326 q 210 304 199 314 q 213 301 211 303 q 216 298 214 300 q 219 296 218 296 q 253 279 236 283 q 292 280 272 275 q 321 300 313 285 q 333 300 325 310 q 365 281 349 279 q 382 287 374 281 q 392 300 390 293 q 393 306 392 303 l 394 308 q 399 310 396 313 q 404 301 403 306 l 406 300 q 410 296 406 300 q 413 292 411 294 q 417 288 415 290 q 421 285 419 286 q 451 278 435 275 q 478 299 471 283 q 483 333 488 317 q 486 339 483 338 q 490 338 489 340 q 500 308 500 324 q 574 288 539 269 q 600 324 597 301 m 79 589 q 58 603 63 600 q 42 635 44 618 q 65 707 32 676 q 139 725 99 736 q 189 676 174 717 q 204 697 197 690 q 263 724 229 719 q 339 713 306 731 q 365 690 354 704 q 369 682 368 685 q 417 707 385 708 q 444 696 432 706 q 461 672 457 686 q 474 686 467 681 q 544 718 506 717 q 599 685 586 718 q 600 653 606 668 q 593 636 597 644 l 592 635 q 610 623 601 633 q 619 601 618 613 q 594 535 626 558 q 529 533 561 510 q 507 565 513 547 q 506 565 507 565 q 506 564 506 564 q 497 539 500 546 q 456 510 481 514 q 404 526 424 506 q 394 540 397 532 q 365 519 385 521 q 335 542 344 519 q 325 528 331 533 q 283 504 308 508 q 232 514 258 500 q 208 536 219 521 q 165 503 199 513 q 110 504 132 494 q 65 549 72 514 q 79 589 63 574 m 83 688 q 67 639 63 667 q 76 613 69 626 q 94 597 83 599 q 99 591 99 596 q 96 583 100 586 q 85 567 88 578 q 86 547 82 556 q 124 521 93 526 q 199 554 176 511 q 203 557 200 557 q 211 551 211 561 q 240 532 224 540 q 278 524 260 521 q 310 542 297 526 q 322 556 315 547 q 332 571 332 571 q 333 572 332 572 q 336 571 335 572 q 342 559 336 571 q 354 543 349 547 q 367 540 360 539 q 389 563 381 544 q 393 576 390 569 q 397 578 394 579 q 399 576 399 578 q 406 554 399 567 q 418 538 410 546 q 456 532 435 525 q 482 554 469 538 q 493 572 492 568 q 496 576 494 574 q 497 581 497 579 q 501 585 499 582 q 504 589 503 588 q 506 591 504 590 q 508 590 508 592 q 515 583 511 588 q 522 574 518 578 q 528 566 525 571 q 535 558 532 561 q 544 553 539 556 q 553 549 549 550 q 563 547 557 547 q 574 550 568 547 q 599 586 596 557 q 598 597 599 592 q 595 609 597 603 q 589 618 593 615 q 578 619 585 621 q 569 623 572 618 q 571 631 567 628 q 581 654 579 639 q 579 676 582 669 q 540 696 569 699 q 488 671 515 694 q 463 624 463 650 q 460 621 463 622 q 456 624 457 619 q 453 654 449 638 q 417 683 439 681 q 394 675 406 685 q 376 653 382 665 q 369 649 375 649 q 363 656 363 649 q 344 682 363 664 q 318 697 333 693 q 260 699 292 706 q 217 679 235 693 q 199 661 206 671 q 194 652 197 658 q 188 643 190 646 q 182 644 183 638 q 185 668 179 654 q 181 669 182 668 q 133 700 168 693 q 83 688 106 707 z "},">":{"ha":604,"x_min":21,"x_max":581,"o":"m 513 456 q 544 485 536 461 q 538 529 554 510 q 494 546 524 546 q 486 551 489 546 q 486 560 483 556 q 483 599 493 574 q 460 629 475 619 q 414 644 439 643 q 374 643 386 646 q 369 640 372 642 q 365 636 367 638 q 360 638 363 635 q 361 642 358 640 q 361 643 361 642 q 363 646 360 646 q 364 647 363 647 q 365 647 365 647 q 392 736 400 692 q 367 774 385 761 q 346 783 357 779 q 321 785 325 788 q 313 785 317 782 q 310 793 308 789 q 299 860 325 835 q 265 876 286 874 q 246 876 256 876 q 233 875 243 875 q 228 874 231 871 q 226 874 228 874 q 225 874 225 874 l 224 875 q 224 876 224 875 q 226 878 225 878 q 206 935 233 913 q 158 944 186 950 q 117 921 129 938 q 107 879 104 903 q 113 860 107 871 q 124 846 118 850 q 129 844 126 844 q 133 843 132 843 q 136 839 136 842 q 133 835 136 836 l 132 835 l 131 833 q 125 829 128 831 q 117 824 121 828 q 106 807 111 818 l 104 806 q 104 803 104 804 q 104 803 104 803 q 103 800 103 801 q 103 797 103 799 q 101 793 101 796 q 100 788 100 790 l 100 786 l 100 785 q 100 779 100 782 l 100 774 q 100 769 100 772 q 119 735 103 749 q 156 722 135 722 q 164 724 160 722 q 171 724 167 724 q 176 725 175 725 q 183 727 179 726 q 189 728 186 728 q 200 731 196 731 q 202 730 201 731 q 203 728 203 729 q 193 715 201 724 q 188 708 192 711 q 181 682 183 697 q 186 643 176 661 q 213 619 194 626 q 244 611 235 608 q 247 613 246 613 q 249 614 249 613 l 250 614 q 257 612 254 617 q 257 604 260 607 q 247 558 239 583 q 283 522 254 538 q 342 506 311 508 q 371 507 358 504 q 399 513 394 511 q 401 510 401 513 q 426 508 410 511 q 429 503 432 507 l 425 501 q 411 496 421 500 q 399 490 401 492 q 386 483 394 489 l 385 482 q 382 481 383 481 q 378 476 379 478 l 376 474 q 375 472 376 474 q 374 471 375 471 q 372 467 372 468 l 371 465 q 371 463 371 464 q 369 460 371 463 l 368 457 l 368 456 l 368 451 l 368 447 q 369 443 369 446 l 369 442 q 369 436 369 439 l 369 433 l 369 432 l 369 426 q 365 419 369 422 q 358 419 361 417 q 356 422 357 421 q 353 423 354 422 q 352 426 353 424 q 350 428 351 428 l 349 431 q 349 432 349 431 q 276 422 307 447 q 253 386 260 410 q 250 340 246 356 q 248 331 253 335 q 238 329 243 326 q 210 322 222 340 q 204 283 201 306 q 199 276 204 278 q 192 276 194 274 q 143 275 168 288 q 106 239 118 263 q 93 190 94 221 q 96 157 93 168 q 97 150 100 154 q 99 146 97 149 q 100 140 100 143 q 99 138 101 139 q 96 138 97 136 q 89 146 94 140 q 74 132 82 140 q 61 111 65 124 q 56 64 50 86 q 94 38 63 36 q 121 44 107 38 q 140 61 140 56 q 146 67 142 65 q 154 65 150 68 q 211 46 176 43 q 268 71 246 49 q 285 123 288 92 q 261 171 283 154 q 261 175 260 172 q 265 178 263 178 q 294 157 283 172 q 303 160 297 158 q 311 163 308 161 q 332 181 325 169 q 339 238 349 203 q 341 244 339 240 q 346 247 343 247 q 381 249 363 244 q 415 265 400 254 q 439 289 431 275 q 453 343 454 314 q 436 394 451 372 q 436 399 435 397 q 435 400 435 399 q 435 405 433 403 q 440 406 438 407 q 446 401 444 401 q 453 400 451 400 l 454 400 q 456 400 454 400 l 458 400 l 464 400 l 467 400 q 469 400 468 400 q 469 400 469 400 q 474 401 471 400 q 475 403 475 401 q 478 404 476 403 l 479 404 q 482 408 482 407 l 483 411 q 485 414 485 413 l 486 414 l 486 415 q 486 417 486 415 q 488 422 488 421 l 489 426 l 489 429 l 488 431 l 488 432 q 485 438 485 436 q 482 438 483 438 q 481 440 481 439 q 478 443 481 440 q 458 461 463 451 q 459 467 457 464 q 464 468 461 469 q 474 462 465 467 q 486 456 482 457 q 513 456 499 451 m 507 604 q 507 567 511 589 q 556 543 536 567 q 567 478 581 514 q 515 436 553 440 q 501 438 507 436 q 504 432 503 435 l 504 431 q 507 424 506 428 q 506 408 508 415 q 486 386 499 393 q 457 382 471 378 q 474 330 472 358 q 461 278 475 301 q 410 233 442 247 q 360 229 386 224 q 350 168 369 194 q 306 139 329 142 q 308 95 313 118 q 288 56 303 72 q 211 24 257 24 q 147 46 165 22 q 140 38 144 40 q 128 26 133 31 q 93 15 111 15 q 57 24 74 14 q 33 51 40 33 q 40 122 21 85 q 61 149 50 140 q 81 157 69 156 q 69 194 69 175 q 86 258 67 229 q 132 297 103 285 q 188 297 161 310 q 201 344 186 331 q 229 353 214 354 q 231 397 225 379 q 264 444 240 429 q 321 460 290 464 q 344 451 335 457 l 344 456 q 357 488 344 474 q 332 486 342 486 q 260 508 293 488 q 222 567 225 532 q 228 593 221 581 q 204 596 214 592 q 167 628 178 604 q 160 683 153 653 q 165 697 163 692 q 149 697 154 697 q 97 722 118 699 q 75 774 76 744 q 89 825 75 801 q 103 839 96 833 q 96 843 99 842 q 79 879 83 856 q 97 939 75 913 q 164 972 119 968 q 229 943 204 975 q 239 890 246 919 q 242 892 240 892 q 267 897 256 897 q 314 878 296 897 q 332 804 347 846 q 346 807 338 807 q 376 799 363 806 q 414 749 406 782 q 408 683 424 717 q 392 658 403 672 q 419 664 404 664 q 475 646 453 663 q 507 604 497 631 z "},"?":{"ha":697,"x_min":18,"x_max":668,"o":"m 629 739 q 639 725 636 732 q 639 657 650 700 q 572 576 622 590 q 591 517 592 550 q 568 461 590 483 q 503 435 542 435 q 478 439 489 435 q 476 409 481 425 q 462 381 472 393 q 438 364 451 368 q 446 353 443 360 q 454 325 456 340 q 442 294 454 307 q 411 276 429 282 q 336 288 372 263 q 317 343 307 310 q 279 361 293 346 q 268 417 264 383 q 272 434 269 425 q 280 451 275 443 q 291 466 285 460 q 306 477 297 472 q 324 483 314 482 q 313 533 310 514 q 340 582 317 561 q 370 597 351 592 q 403 599 389 603 q 410 631 404 617 q 443 672 419 657 q 408 695 422 679 q 389 732 393 711 q 394 783 383 758 q 396 785 394 783 q 397 789 397 788 q 379 792 389 788 q 358 807 369 796 q 350 818 356 811 q 325 781 344 797 q 288 763 310 767 q 249 768 265 758 q 246 756 247 760 q 218 725 238 735 q 178 725 197 715 l 176 725 q 183 699 178 721 q 178 663 186 681 q 125 626 163 629 q 57 649 81 622 q 44 715 31 675 q 60 739 50 731 q 29 775 39 747 q 35 843 18 806 q 78 885 49 871 q 138 890 108 900 q 178 969 135 947 q 220 976 199 981 q 257 957 242 972 q 258 959 257 957 q 258 961 258 961 q 279 992 265 978 q 347 1019 310 1019 q 415 990 386 1018 q 438 960 432 974 q 443 938 442 950 q 511 936 478 958 q 535 901 531 924 q 538 903 536 901 q 542 904 540 904 q 561 904 550 906 q 597 896 575 904 q 650 850 633 879 q 661 790 667 824 q 629 739 656 756 m 615 654 q 622 703 622 683 q 615 728 622 715 q 610 733 611 732 q 607 736 608 735 q 597 742 601 740 q 596 747 596 744 q 599 751 596 750 q 607 751 603 753 q 610 753 608 753 q 639 791 633 764 q 632 840 644 818 q 590 879 618 863 q 561 889 576 886 q 546 889 556 889 q 536 889 539 889 q 525 861 535 881 q 522 863 524 861 q 518 894 525 875 q 500 921 511 913 q 469 928 486 929 q 440 915 453 926 q 432 915 436 913 q 428 922 428 917 q 399 975 424 950 q 344 997 376 997 q 292 975 315 997 q 265 943 275 961 q 264 940 265 942 q 258 924 260 932 q 256 922 258 921 q 253 925 253 922 q 254 946 253 939 q 221 958 240 957 q 188 950 201 958 q 162 917 169 939 q 158 875 154 896 q 156 865 161 868 q 144 864 151 861 q 97 866 121 875 q 60 833 72 857 q 51 787 49 817 q 75 750 53 757 q 76 749 75 750 q 85 750 82 750 q 88 748 88 750 q 88 744 89 746 q 64 703 68 735 q 79 660 58 674 q 132 650 101 644 q 164 679 154 656 q 171 707 171 694 q 165 733 169 711 q 151 754 158 740 q 153 754 151 756 q 180 740 161 743 q 211 743 199 736 q 228 765 224 750 q 231 779 231 775 q 231 785 231 781 q 232 793 232 790 q 234 797 231 796 q 240 796 238 799 q 282 782 251 775 q 315 803 300 786 q 335 835 326 815 q 340 875 344 858 q 342 877 340 876 q 344 876 343 878 q 348 866 346 872 q 351 856 350 860 q 353 854 353 856 q 356 844 353 849 q 363 836 360 839 q 364 833 363 835 q 367 831 367 831 q 371 826 368 829 q 375 824 374 824 q 378 819 378 821 l 379 818 l 381 818 l 382 817 q 383 816 382 817 q 385 814 385 815 q 388 813 385 814 q 389 813 389 813 l 389 811 q 392 811 390 811 q 394 810 393 811 q 396 810 396 810 q 397 809 396 810 q 397 808 397 808 q 407 807 404 807 q 410 804 410 806 q 433 818 419 811 q 438 817 436 819 q 438 813 440 815 q 415 778 422 800 q 413 738 407 756 q 431 703 415 718 q 468 683 447 689 q 473 676 472 682 q 469 669 474 671 q 429 624 440 653 q 426 602 426 613 q 426 578 425 592 q 428 557 428 564 q 424 553 428 554 q 419 554 421 551 q 404 582 408 565 q 350 565 376 590 q 331 529 333 549 q 339 482 326 494 q 340 474 342 478 q 336 469 339 471 q 292 421 300 463 q 293 382 286 401 q 306 361 297 371 q 325 354 315 351 q 331 353 328 356 q 332 346 333 350 q 351 303 325 318 q 403 294 376 288 q 435 325 431 301 q 435 346 438 336 q 424 361 426 361 q 419 365 419 361 q 421 369 418 368 q 457 408 450 392 q 461 446 461 424 q 443 463 454 451 q 444 467 442 464 q 449 468 446 469 q 463 461 454 464 q 467 460 465 463 l 468 458 q 512 456 488 451 q 551 474 536 460 q 570 524 571 493 q 550 575 569 556 q 547 584 546 579 q 554 590 549 589 q 615 654 600 600 m 461 144 q 487 130 476 142 q 500 101 497 118 q 483 42 503 61 q 458 26 472 31 q 450 25 454 25 q 451 22 451 24 q 457 7 457 15 q 436 -21 457 -11 q 399 -12 414 -31 q 383 -35 393 -26 q 331 -47 360 -53 q 289 -17 301 -43 q 282 14 281 -3 q 249 24 258 6 q 253 47 242 38 q 258 50 254 47 q 244 61 250 54 q 240 106 231 81 q 269 138 249 126 q 286 143 276 140 q 279 169 279 156 q 313 213 282 201 q 365 204 340 225 q 381 167 379 189 q 385 172 383 171 q 417 186 397 185 q 447 174 436 188 q 449 143 456 160 q 461 144 453 144 m 467 57 q 476 96 478 69 q 454 122 475 115 q 446 124 451 124 q 439 124 443 124 q 432 125 435 125 l 431 124 q 417 119 424 119 q 413 119 415 119 q 410 117 411 118 q 408 117 408 117 q 408 119 407 118 q 410 121 408 121 q 411 128 408 124 l 411 126 q 412 128 411 128 q 413 129 413 129 l 414 131 q 417 133 414 132 q 424 139 421 138 q 429 144 428 143 q 431 147 431 146 q 432 149 432 149 q 432 153 432 150 q 433 154 432 154 l 433 156 l 432 157 q 432 160 432 158 l 432 161 q 432 163 432 161 q 431 163 431 163 l 431 164 l 428 164 l 429 164 q 426 165 428 165 l 425 165 q 424 166 425 165 q 424 167 424 167 q 422 167 424 167 q 421 167 421 167 l 419 167 l 415 167 l 411 167 l 410 167 q 406 166 408 167 q 404 164 404 165 l 403 164 q 401 164 403 164 q 399 163 399 163 q 397 161 399 163 q 393 160 394 160 q 383 151 389 157 q 375 140 378 144 q 371 142 374 140 q 374 154 371 142 q 356 185 372 174 q 321 190 339 197 q 305 167 307 183 q 315 139 303 150 q 316 130 319 135 q 307 126 313 125 q 294 125 307 126 q 281 121 288 124 q 263 103 269 115 q 257 75 253 88 q 279 60 261 64 q 283 55 283 58 q 281 50 283 51 q 274 47 279 49 q 265 40 271 44 q 261 29 258 33 q 290 33 268 21 q 297 34 293 36 q 300 28 300 32 q 301 18 301 25 q 301 8 300 11 q 308 -7 303 0 q 336 -22 319 -22 q 368 -14 354 -25 q 381 -1 376 -7 q 385 7 383 1 q 389 15 388 13 q 397 18 392 18 q 403 13 401 18 l 403 3 q 429 -3 414 -11 q 438 11 435 1 q 438 26 440 24 q 435 28 436 28 q 433 29 433 29 q 431 34 431 31 q 433 39 431 38 q 439 42 436 40 q 443 44 442 43 q 453 46 449 46 q 467 57 463 51 z "},"@":{"ha":1118,"x_min":40,"x_max":1082,"o":"m 660 506 q 667 496 667 503 q 660 488 668 489 q 642 472 653 485 q 629 453 635 465 q 622 431 625 444 q 621 417 621 422 q 626 404 625 410 q 628 400 626 403 q 629 394 629 397 q 629 386 629 394 q 626 382 629 383 q 621 383 622 381 q 618 387 619 385 q 615 390 617 389 q 614 396 614 394 q 606 408 610 403 q 586 425 599 417 q 565 427 576 429 q 549 415 554 425 q 539 412 546 410 q 532 421 532 414 q 528 475 535 457 q 515 492 525 482 q 504 499 513 496 q 467 504 474 500 q 465 506 465 504 q 467 508 465 508 q 476 512 471 511 q 488 513 482 513 q 497 513 493 513 q 525 522 507 514 q 544 539 539 528 q 547 569 549 547 q 553 578 547 575 q 563 578 558 582 q 608 568 586 563 q 639 604 633 575 q 642 607 639 607 q 644 604 644 607 q 635 561 650 582 q 635 560 635 561 q 635 558 635 558 q 638 536 635 553 q 644 517 640 522 q 660 506 650 508 m 628 486 q 638 493 631 488 q 621 526 624 504 q 619 549 619 533 q 617 547 618 547 q 567 547 592 533 q 563 531 567 540 q 540 508 554 517 q 535 505 539 507 q 531 503 532 503 q 544 486 539 496 q 553 443 554 468 q 590 444 572 451 q 608 435 599 442 q 613 460 608 447 q 628 486 618 474 m 1075 579 q 1057 504 1081 538 q 1032 481 1044 488 q 1026 478 1029 479 q 1044 420 1051 456 q 1006 374 1038 385 q 1010 371 1007 372 l 1013 369 q 1025 357 1019 361 q 1036 322 1033 344 q 1019 251 1039 279 q 963 222 996 218 q 940 232 951 224 q 931 208 938 217 q 872 182 911 181 q 810 208 829 183 q 797 238 800 219 q 794 254 794 254 q 763 253 781 249 q 736 269 746 258 q 726 285 732 274 q 688 267 710 269 q 633 292 653 265 q 629 281 632 285 q 606 258 621 268 q 536 256 571 240 q 503 299 508 265 q 494 294 497 294 q 429 304 461 281 q 401 347 408 319 q 408 394 394 374 l 406 394 q 389 394 400 393 q 356 407 371 397 q 322 469 322 426 q 347 532 324 501 q 401 556 371 563 q 417 624 390 592 q 454 649 431 640 q 497 651 478 657 q 500 669 500 668 q 510 694 503 683 q 554 725 525 721 q 617 715 589 731 q 638 693 632 706 q 665 725 647 715 q 724 722 697 740 q 746 671 751 703 q 733 647 744 657 q 764 625 754 643 q 754 581 776 597 q 768 578 764 579 q 786 561 778 572 q 796 513 800 543 q 775 464 792 482 q 811 436 800 456 q 817 424 814 432 q 828 438 824 433 q 850 453 840 449 q 851 453 850 453 q 829 472 840 457 q 814 525 813 493 q 838 581 814 561 q 818 589 826 583 q 781 629 796 601 q 769 672 771 649 q 778 713 767 694 q 771 714 774 713 q 750 721 758 715 q 726 750 732 731 q 726 771 724 761 q 675 761 699 757 q 615 796 635 764 q 585 757 603 769 q 519 738 554 733 q 465 768 483 740 q 443 721 461 739 q 381 703 417 696 q 350 619 386 656 q 290 588 325 594 q 256 586 275 585 q 244 540 264 563 q 268 508 260 532 q 276 463 276 483 q 264 400 276 432 q 247 371 257 385 q 311 354 285 378 q 333 315 329 339 q 328 279 336 296 q 344 282 335 282 q 401 260 379 281 q 424 219 418 244 q 421 172 431 193 q 471 164 453 175 q 488 139 485 157 q 486 119 488 131 q 483 113 485 114 q 519 108 500 119 q 549 56 550 90 q 536 28 547 39 q 508 15 525 17 q 458 33 485 13 q 421 -12 447 3 q 354 -11 386 -32 q 322 50 318 11 q 323 56 322 51 q 324 61 324 60 q 317 58 322 60 q 292 56 304 56 q 244 76 265 58 q 224 158 211 106 q 149 171 186 151 q 93 225 113 190 q 78 315 71 265 q 90 360 81 338 q 94 367 92 363 q 54 390 67 367 q 56 440 42 415 q 71 461 60 451 q 86 471 76 465 q 53 523 64 489 q 47 588 43 557 q 78 656 53 629 q 115 678 94 674 q 101 717 106 693 q 115 781 96 753 q 159 813 132 804 q 211 808 186 821 q 225 833 213 825 q 263 838 240 844 q 292 913 267 878 q 354 964 318 949 q 432 968 392 979 q 474 942 460 960 q 483 956 478 949 q 553 986 517 999 q 586 950 581 976 q 650 988 608 978 q 728 989 692 997 q 795 948 768 981 q 815 876 822 915 q 895 878 854 890 q 963 833 936 867 q 985 781 979 811 q 981 725 990 751 q 982 726 981 725 q 1001 721 990 726 q 1028 693 1018 713 q 1031 654 1035 674 q 1022 636 1028 643 q 1039 631 1033 633 q 1075 579 1069 618 m 1040 514 q 1056 574 1058 539 q 1032 614 1053 599 q 985 625 1011 629 q 982 627 983 625 q 983 631 981 629 q 1003 638 992 636 q 1004 639 1004 638 q 1006 646 1006 643 q 1007 651 1006 647 q 1010 658 1008 656 q 1008 685 1013 672 q 992 704 1004 694 q 985 708 990 706 q 979 711 981 710 q 975 714 979 713 q 949 693 964 700 q 946 695 947 693 q 946 699 944 697 q 967 762 968 726 q 944 825 967 797 q 882 864 921 856 q 807 856 843 872 q 798 856 803 853 q 796 864 793 860 q 780 931 804 901 q 718 968 756 961 q 667 968 693 972 q 619 951 642 964 q 578 919 596 939 q 572 919 575 917 q 569 925 568 921 q 575 936 571 929 q 558 959 569 950 q 533 967 547 968 q 504 949 519 965 q 493 935 500 944 q 490 931 492 933 q 488 926 488 928 q 485 921 486 924 q 482 915 485 918 q 474 914 479 911 q 469 921 469 917 q 450 935 454 932 q 422 947 438 943 q 358 942 392 956 q 304 892 326 928 q 279 822 293 874 q 272 815 278 817 q 264 817 267 814 q 238 822 251 833 q 231 794 224 811 q 228 785 233 789 q 217 785 222 781 q 169 792 196 800 q 131 763 143 785 q 125 715 119 739 q 133 693 126 707 q 140 678 140 679 l 142 678 q 147 671 146 676 q 142 664 147 665 q 106 648 121 660 q 81 618 90 636 q 71 579 72 600 q 79 526 69 551 q 111 478 83 513 q 114 468 115 474 q 107 461 113 463 q 81 441 92 458 q 74 408 69 424 q 91 388 76 393 q 118 393 106 383 q 122 393 119 394 q 126 383 129 392 q 123 374 125 381 q 119 365 121 368 q 111 346 114 353 q 104 310 106 329 q 117 239 99 271 q 147 203 128 218 q 190 183 167 189 q 236 181 213 178 q 247 177 242 182 q 247 167 251 172 q 242 128 238 149 q 263 93 247 107 q 332 79 290 67 q 361 101 343 97 q 368 99 365 103 q 367 92 371 96 q 344 47 344 68 q 352 24 346 35 q 368 8 358 14 q 415 10 390 -4 q 449 49 440 24 q 453 53 450 53 q 460 51 457 54 q 503 36 481 32 q 526 58 526 39 q 510 91 528 78 q 474 97 492 104 q 470 99 471 96 q 471 103 469 101 l 472 104 q 470 111 471 107 q 469 117 469 115 q 468 124 468 119 q 468 131 468 129 q 458 150 468 146 q 406 154 435 163 q 398 156 401 153 q 396 164 394 160 q 385 243 414 214 q 342 263 369 260 q 294 254 315 265 q 290 256 293 253 q 290 260 288 258 q 317 276 303 271 q 297 339 322 315 q 265 353 285 351 q 228 344 244 354 q 218 346 222 342 q 217 356 214 350 q 238 400 217 357 q 250 442 246 422 q 250 488 254 464 q 226 525 242 526 q 217 533 218 525 q 224 543 217 542 q 246 588 250 550 q 226 592 238 589 q 224 596 224 593 q 228 599 225 599 q 329 633 294 601 q 353 672 347 649 q 351 718 360 696 q 353 734 347 726 q 368 735 360 742 q 401 726 382 725 q 433 738 419 726 q 457 793 457 756 l 457 803 l 457 811 q 458 813 457 813 q 461 821 460 815 q 464 819 463 821 q 486 774 460 796 q 533 761 506 757 q 577 782 556 765 q 610 821 599 799 q 617 825 613 825 q 624 821 621 825 q 681 782 643 783 q 749 813 706 782 q 757 813 753 817 q 758 803 761 808 q 757 801 757 801 l 757 800 q 755 795 757 799 q 751 790 753 792 q 749 785 750 788 q 747 779 747 782 q 746 756 743 768 q 765 735 751 742 q 799 725 783 725 q 804 721 803 725 q 803 714 806 717 q 791 675 789 696 q 804 635 793 654 q 835 603 815 618 q 851 590 847 593 q 853 590 853 590 q 892 585 872 597 q 892 583 893 585 q 890 581 892 581 q 851 561 869 582 q 840 521 840 547 q 849 483 840 501 q 871 457 856 471 q 872 456 871 457 q 874 456 874 456 q 875 454 875 456 q 874 451 875 453 q 865 444 872 450 q 857 439 858 442 q 840 425 846 432 q 828 407 832 417 q 827 406 828 407 q 826 406 826 406 l 826 404 q 824 399 824 401 q 823 396 824 397 q 822 393 822 394 q 819 388 821 390 q 806 351 817 365 q 802 351 804 350 q 800 356 800 353 q 800 393 803 363 q 793 425 797 418 q 779 438 788 432 q 764 445 771 443 q 747 451 757 447 q 731 456 736 454 q 726 465 725 458 q 732 471 726 471 l 743 471 q 775 514 769 482 q 775 551 781 535 q 763 569 771 561 q 744 575 754 576 q 741 577 742 575 q 742 582 740 579 q 751 598 749 586 q 749 617 753 610 q 733 631 744 626 q 710 633 721 636 q 702 637 704 632 q 706 644 700 642 q 723 675 722 654 q 706 706 724 696 q 668 703 688 715 q 636 671 649 690 q 632 669 635 668 q 631 674 629 671 l 631 675 q 597 699 617 693 q 551 699 568 706 q 528 675 539 693 q 514 639 514 649 q 504 629 514 629 q 492 630 500 629 q 479 630 485 631 q 468 628 474 629 q 436 607 447 622 q 421 536 417 585 q 419 533 422 533 q 415 533 417 532 q 407 543 411 536 q 365 518 376 531 q 346 468 346 497 q 374 422 346 435 q 399 415 383 417 q 429 410 425 408 q 435 406 433 410 q 433 397 436 401 q 419 360 417 382 q 442 324 422 338 q 504 326 472 301 q 528 360 510 349 q 533 359 531 361 q 533 353 535 357 q 524 309 522 336 q 550 276 526 282 q 597 282 574 271 q 614 296 607 288 q 626 311 626 308 q 630 317 626 315 q 636 315 633 318 q 686 288 663 285 q 722 311 703 290 q 740 343 724 329 q 746 344 743 346 q 747 338 749 342 q 742 310 740 326 q 753 285 743 293 q 803 279 769 268 q 808 278 806 279 q 812 276 810 278 q 814 271 814 274 q 818 244 813 263 q 825 224 819 231 q 868 204 838 206 q 913 222 899 203 q 921 260 921 235 q 926 267 921 267 q 935 264 931 268 q 936 261 935 261 q 947 253 940 258 q 958 247 953 249 q 971 246 964 244 q 1004 278 994 249 q 1010 328 1014 300 q 988 372 1007 356 q 985 377 985 374 q 989 382 986 381 q 1017 404 1007 389 q 1025 439 1028 419 q 1006 468 1022 450 q 1001 475 1003 472 l 1000 475 q 999 481 997 478 q 1001 486 999 483 q 1008 489 1004 489 q 1021 496 1017 493 q 1040 514 1032 503 z "},"A":{"ha":856,"x_min":25,"x_max":846,"o":"m 815 164 q 843 93 844 132 q 807 26 840 47 q 774 19 792 15 q 774 -3 778 8 q 732 -32 764 -31 q 699 -22 714 -33 q 683 8 685 -10 q 649 -12 671 -8 q 610 -6 628 -17 q 582 32 588 7 q 589 76 576 57 q 564 101 574 85 q 554 136 554 118 q 576 193 554 172 l 574 193 q 546 204 558 196 q 511 247 522 219 q 507 297 501 271 q 476 294 493 292 q 439 317 450 300 q 438 318 439 317 q 425 304 433 311 q 379 288 406 289 q 332 297 353 285 q 330 265 339 282 q 307 239 321 249 q 283 232 294 232 q 294 207 292 222 q 276 143 304 167 q 282 136 281 140 q 292 107 289 124 q 279 49 297 75 q 231 18 260 21 q 196 28 207 15 q 188 17 188 17 q 175 3 185 13 q 133 -15 154 -11 q 58 7 90 -22 q 32 75 25 36 q 61 129 38 108 q 47 146 54 135 q 35 193 33 167 q 72 263 36 240 q 64 267 67 265 q 54 278 63 268 q 40 304 46 290 q 40 367 29 336 q 76 421 50 400 q 115 442 99 439 q 99 467 107 451 q 89 538 83 501 q 124 600 97 574 q 151 619 136 611 q 157 621 153 619 q 165 626 160 625 q 153 639 156 633 q 150 690 142 660 q 175 732 156 717 q 175 732 175 732 q 161 774 157 744 q 196 815 165 804 q 193 818 194 817 q 181 856 182 833 q 199 919 178 889 q 274 960 224 953 q 353 947 318 967 q 382 921 372 938 q 386 911 386 913 q 435 938 406 940 q 464 921 454 936 q 468 906 468 914 q 525 937 488 931 q 590 929 563 943 q 626 870 625 913 q 607 796 628 828 q 626 783 618 793 q 635 761 635 772 q 619 719 636 738 q 643 718 632 722 q 681 699 663 713 q 722 628 714 671 q 706 543 732 578 q 682 524 696 531 q 714 501 704 522 q 715 463 724 483 q 693 438 711 451 q 740 423 718 439 q 769 382 761 407 q 764 317 781 350 q 746 289 760 304 q 740 285 743 286 q 774 256 764 276 q 778 213 783 236 q 768 185 774 193 q 782 185 775 186 q 815 164 803 178 m 803 50 q 821 101 822 74 q 797 151 819 129 q 774 168 785 164 q 760 174 763 174 q 756 174 758 174 q 751 175 753 175 q 747 175 749 175 q 745 178 746 176 q 747 182 744 181 q 753 185 749 183 q 753 192 753 188 q 755 201 754 196 q 756 208 756 206 q 756 240 758 229 q 717 274 750 268 q 713 277 713 274 q 715 282 713 281 q 720 287 718 283 q 725 294 722 290 q 729 300 728 299 q 743 322 738 308 q 749 372 754 349 q 719 410 742 394 q 672 426 696 426 q 670 428 671 426 q 671 431 669 429 q 686 436 679 435 q 696 493 706 468 q 653 514 688 513 l 644 514 l 643 514 l 643 515 q 640 517 640 515 q 642 521 640 519 q 669 536 668 535 q 689 561 682 549 q 697 628 706 590 q 665 682 690 661 q 635 700 650 694 q 620 705 629 701 q 607 711 611 708 q 593 707 600 707 q 592 710 590 707 q 613 749 610 739 q 611 769 615 761 q 590 774 600 785 q 575 774 583 768 q 572 788 567 781 q 600 853 597 821 q 582 910 606 894 q 507 918 551 928 q 454 875 468 910 l 453 876 q 457 890 454 885 q 454 894 456 893 q 451 901 454 896 q 443 914 447 911 q 438 917 442 915 q 432 918 436 917 q 419 917 426 919 q 396 899 406 913 q 389 886 393 894 q 389 885 389 886 q 389 883 389 883 q 385 869 386 878 q 382 868 385 868 q 379 869 379 868 q 378 888 376 879 q 376 892 376 889 q 374 899 375 896 q 371 904 372 901 q 357 918 368 907 q 321 936 343 931 q 243 924 281 944 q 206 868 211 907 q 208 836 204 849 q 215 825 211 831 q 217 823 215 825 q 219 819 218 821 q 222 817 221 818 q 231 813 225 815 q 235 805 236 811 q 228 799 235 799 q 200 792 210 797 q 185 771 188 785 q 186 753 182 761 q 199 741 190 744 q 217 738 207 738 q 219 735 218 738 q 218 733 219 733 l 217 733 q 215 731 217 731 q 185 715 199 731 q 171 685 174 704 q 172 650 165 664 q 179 638 176 642 q 193 631 182 636 q 195 626 196 629 q 192 621 194 622 q 186 619 189 619 q 180 617 183 618 q 175 617 176 617 q 165 610 171 614 q 158 606 160 607 q 136 586 147 597 q 113 535 117 561 q 122 479 108 507 q 138 454 124 474 q 153 429 151 431 q 153 426 154 428 q 150 424 153 424 q 128 432 139 428 q 110 419 122 426 q 94 407 99 411 q 64 363 72 386 q 64 311 56 338 q 75 288 67 300 q 78 281 76 286 q 83 273 81 276 q 88 268 86 269 q 90 257 99 264 q 56 190 56 224 q 65 153 56 176 q 76 139 65 153 q 88 135 83 142 q 85 124 92 129 q 61 92 69 108 q 54 57 53 76 q 72 22 56 38 q 132 6 97 -1 q 164 17 151 10 q 190 40 189 29 q 194 47 192 44 q 200 46 197 49 q 237 39 218 31 q 267 67 256 47 q 274 108 279 88 q 264 129 271 119 q 261 135 263 131 q 258 140 260 139 q 257 157 249 150 q 275 204 276 176 q 267 231 274 222 q 257 238 267 231 q 253 242 256 239 q 247 246 250 244 l 246 247 l 244 247 q 245 249 244 249 q 247 250 246 250 q 249 249 247 249 q 265 246 258 247 q 267 244 267 246 q 282 247 276 246 q 307 263 297 251 q 317 292 317 274 q 315 310 317 304 q 310 322 311 315 q 307 325 308 324 q 308 328 307 326 q 307 332 307 329 l 310 332 q 310 329 310 331 q 311 328 310 328 q 319 318 315 326 q 342 308 326 313 q 381 307 363 303 q 414 324 403 313 q 426 333 418 326 q 436 342 436 342 q 439 350 436 344 q 442 351 440 351 q 444 347 444 350 q 446 347 446 347 l 446 344 q 450 336 447 340 q 457 326 456 328 q 482 315 465 318 q 507 319 490 314 q 511 320 508 319 q 515 322 514 321 q 543 353 525 339 q 544 353 543 354 q 544 350 546 351 q 533 258 517 301 q 557 225 540 238 q 579 215 567 219 q 585 214 581 215 q 590 211 589 213 q 597 207 593 211 q 599 208 599 207 q 599 208 599 208 q 602 206 601 208 q 601 204 603 204 q 578 143 578 175 q 587 111 578 126 q 611 97 596 96 q 622 89 621 99 q 617 75 624 79 q 603 43 600 63 q 622 15 606 24 q 660 14 642 7 q 688 38 678 21 q 690 38 689 39 q 692 36 692 38 q 690 25 692 32 q 701 -2 692 10 q 728 -12 711 -14 q 751 3 746 -11 q 753 33 760 24 q 751 36 751 35 q 753 42 750 39 q 758 43 756 44 q 782 39 769 36 q 803 50 794 42 m 503 619 q 511 618 508 619 q 511 614 513 617 q 500 608 510 613 q 490 597 496 604 q 487 592 490 597 q 482 582 483 586 q 474 551 476 568 q 474 540 474 546 q 474 526 474 533 q 475 515 475 519 q 476 499 475 504 q 478 493 478 494 q 483 485 482 486 q 485 472 483 483 q 485 461 485 463 q 483 461 485 461 q 479 471 481 468 q 476 474 478 472 q 472 478 474 476 q 456 490 467 483 q 423 506 439 506 q 383 493 407 506 q 368 485 375 490 q 364 475 364 475 q 351 463 357 464 q 347 464 349 461 q 349 479 347 467 q 349 487 349 482 q 350 494 350 492 q 349 503 350 500 q 349 508 349 506 q 343 519 346 515 q 335 529 342 521 q 324 535 332 532 q 308 539 311 539 q 305 539 307 539 q 301 539 303 539 q 292 539 296 540 l 292 542 q 296 543 293 542 q 301 545 299 544 q 305 547 303 546 q 310 549 307 547 q 313 549 311 549 q 317 550 315 549 q 317 551 317 550 q 328 565 321 556 q 340 581 336 574 q 344 599 344 589 q 338 624 346 610 q 325 638 335 631 q 317 642 318 642 q 318 642 318 642 q 316 646 315 643 q 318 649 317 649 q 332 653 324 650 q 344 658 340 657 q 369 669 364 664 q 385 692 382 678 q 381 707 381 699 q 381 724 379 715 q 392 739 383 733 q 394 740 393 740 q 394 738 394 739 q 393 722 393 728 q 394 710 392 717 q 400 700 396 706 q 403 697 401 699 q 403 697 403 697 q 405 697 404 697 q 407 694 406 696 q 408 694 408 694 q 414 693 411 693 l 417 693 l 421 693 l 422 693 q 424 694 424 693 q 426 694 425 694 q 429 695 426 694 q 433 697 432 696 q 436 698 433 697 q 441 699 439 699 q 444 700 443 700 q 446 701 444 700 q 449 703 447 703 q 463 711 449 703 q 465 711 464 713 q 465 710 465 710 q 449 676 456 700 q 450 646 443 660 q 475 625 457 629 q 485 624 478 625 q 494 622 492 622 q 499 621 496 622 q 503 619 501 619 m 471 592 q 483 604 475 599 q 465 607 475 604 q 431 639 440 615 q 429 674 425 656 q 399 678 413 669 q 396 681 396 679 q 388 657 393 665 q 356 633 378 640 l 354 633 q 365 601 365 619 q 359 572 367 588 q 339 547 351 556 q 361 531 353 542 q 369 504 369 518 q 372 506 371 504 q 422 526 396 525 q 456 517 438 526 q 454 554 451 531 q 471 592 457 575 z "},"":{"ha":856,"x_min":25,"x_max":846,"o":"m 815 164 q 843 93 844 132 q 807 26 840 47 q 774 19 792 15 q 774 -3 778 8 q 732 -32 764 -31 q 699 -22 714 -33 q 683 8 685 -10 q 649 -12 671 -8 q 610 -6 628 -17 q 582 32 588 7 q 589 76 576 57 q 564 101 574 85 q 554 136 554 118 q 576 193 554 172 l 574 193 q 546 204 558 196 q 511 247 522 219 q 507 297 501 271 q 476 294 493 292 q 439 317 450 300 q 438 318 439 317 q 425 304 433 311 q 379 288 406 289 q 332 297 353 285 q 330 265 339 282 q 307 239 321 249 q 283 232 294 232 q 294 207 292 222 q 276 143 304 167 q 282 136 281 140 q 292 107 289 124 q 279 49 297 75 q 231 18 260 21 q 196 28 207 15 q 188 17 188 17 q 175 3 185 13 q 133 -15 154 -11 q 58 7 90 -22 q 32 75 25 36 q 61 129 38 108 q 47 146 54 135 q 35 193 33 167 q 72 263 36 240 q 64 267 67 265 q 54 278 63 268 q 40 304 46 290 q 40 367 29 336 q 76 421 50 400 q 115 442 99 439 q 99 467 107 451 q 89 538 83 501 q 124 600 97 574 q 151 619 136 611 q 157 621 153 619 q 165 626 160 625 q 153 639 156 633 q 150 690 142 660 q 175 732 156 717 q 175 732 175 732 q 161 774 157 744 q 196 815 165 804 q 193 818 194 817 q 181 856 182 833 q 199 919 178 889 q 274 960 224 953 q 353 947 318 967 q 382 921 372 938 q 386 911 386 913 q 435 938 406 940 q 464 921 454 936 q 468 906 468 914 q 525 937 488 931 q 590 929 563 943 q 626 870 625 913 q 607 796 628 828 q 626 783 618 793 q 635 761 635 772 q 619 719 636 738 q 643 718 632 722 q 681 699 663 713 q 722 628 714 671 q 706 543 732 578 q 682 524 696 531 q 714 501 704 522 q 715 463 724 483 q 693 438 711 451 q 740 423 718 439 q 769 382 761 407 q 764 317 781 350 q 746 289 760 304 q 740 285 743 286 q 774 256 764 276 q 778 213 783 236 q 768 185 774 193 q 782 185 775 186 q 815 164 803 178 m 803 50 q 821 101 822 74 q 797 151 819 129 q 774 168 785 164 q 760 174 763 174 q 756 174 758 174 q 751 175 753 175 q 747 175 749 175 q 745 178 746 176 q 747 182 744 181 q 753 185 749 183 q 753 192 753 188 q 755 201 754 196 q 756 208 756 206 q 756 240 758 229 q 717 274 750 268 q 713 277 713 274 q 715 282 713 281 q 720 287 718 283 q 725 294 722 290 q 729 300 728 299 q 743 322 738 308 q 749 372 754 349 q 719 410 742 394 q 672 426 696 426 q 670 428 671 426 q 671 431 669 429 q 686 436 679 435 q 696 493 706 468 q 653 514 688 513 l 644 514 l 643 514 l 643 515 q 640 517 640 515 q 642 521 640 519 q 669 536 668 535 q 689 561 682 549 q 697 628 706 590 q 665 682 690 661 q 635 700 650 694 q 620 705 629 701 q 607 711 611 708 q 593 707 600 707 q 592 710 590 707 q 613 749 610 739 q 611 769 615 761 q 590 774 600 785 q 575 774 583 768 q 572 788 567 781 q 600 853 597 821 q 582 910 606 894 q 507 918 551 928 q 454 875 468 910 l 453 876 q 457 890 454 885 q 454 894 456 893 q 451 901 454 896 q 443 914 447 911 q 438 917 442 915 q 432 918 436 917 q 419 917 426 919 q 396 899 406 913 q 389 886 393 894 q 389 885 389 886 q 389 883 389 883 q 385 869 386 878 q 382 868 385 868 q 379 869 379 868 q 378 888 376 879 q 376 892 376 889 q 374 899 375 896 q 371 904 372 901 q 357 918 368 907 q 321 936 343 931 q 243 924 281 944 q 206 868 211 907 q 208 836 204 849 q 215 825 211 831 q 217 823 215 825 q 219 819 218 821 q 222 817 221 818 q 231 813 225 815 q 235 805 236 811 q 228 799 235 799 q 200 792 210 797 q 185 771 188 785 q 186 753 182 761 q 199 741 190 744 q 217 738 207 738 q 219 735 218 738 q 218 733 219 733 l 217 733 q 215 731 217 731 q 185 715 199 731 q 171 685 174 704 q 172 650 165 664 q 179 638 176 642 q 193 631 182 636 q 195 626 196 629 q 192 621 194 622 q 186 619 189 619 q 180 617 183 618 q 175 617 176 617 q 165 610 171 614 q 158 606 160 607 q 136 586 147 597 q 113 535 117 561 q 122 479 108 507 q 138 454 124 474 q 153 429 151 431 q 153 426 154 428 q 150 424 153 424 q 128 432 139 428 q 110 419 122 426 q 94 407 99 411 q 64 363 72 386 q 64 311 56 338 q 75 288 67 300 q 78 281 76 286 q 83 273 81 276 q 88 268 86 269 q 90 257 99 264 q 56 190 56 224 q 65 153 56 176 q 76 139 65 153 q 88 135 83 142 q 85 124 92 129 q 61 92 69 108 q 54 57 53 76 q 72 22 56 38 q 132 6 97 -1 q 164 17 151 10 q 190 40 189 29 q 194 47 192 44 q 200 46 197 49 q 237 39 218 31 q 267 67 256 47 q 274 108 279 88 q 264 129 271 119 q 261 135 263 131 q 258 140 260 139 q 257 157 249 150 q 275 204 276 176 q 267 231 274 222 q 257 238 267 231 q 253 242 256 239 q 247 246 250 244 l 246 247 l 244 247 q 245 249 244 249 q 247 250 246 250 q 249 249 247 249 q 265 246 258 247 q 267 244 267 246 q 282 247 276 246 q 307 263 297 251 q 317 292 317 274 q 315 310 317 304 q 310 322 311 315 q 307 325 308 324 q 308 328 307 326 q 307 332 307 329 l 310 332 q 310 329 310 331 q 311 328 310 328 q 319 318 315 326 q 342 308 326 313 q 381 307 363 303 q 414 324 403 313 q 426 333 418 326 q 436 342 436 342 q 439 350 436 344 q 442 351 440 351 q 444 347 444 350 q 446 347 446 347 l 446 344 q 450 336 447 340 q 457 326 456 328 q 482 315 465 318 q 507 319 490 314 q 511 320 508 319 q 515 322 514 321 q 543 353 525 339 q 544 353 543 354 q 544 350 546 351 q 533 258 517 301 q 557 225 540 238 q 579 215 567 219 q 585 214 581 215 q 590 211 589 213 q 597 207 593 211 q 599 208 599 207 q 599 208 599 208 q 602 206 601 208 q 601 204 603 204 q 578 143 578 175 q 587 111 578 126 q 611 97 596 96 q 622 89 621 99 q 617 75 624 79 q 603 43 600 63 q 622 15 606 24 q 660 14 642 7 q 688 38 678 21 q 690 38 689 39 q 692 36 692 38 q 690 25 692 32 q 701 -2 692 10 q 728 -12 711 -14 q 751 3 746 -11 q 753 33 760 24 q 751 36 751 35 q 753 42 750 39 q 758 43 756 44 q 782 39 769 36 q 803 50 794 42 m 503 619 q 511 618 508 619 q 511 614 513 617 q 500 608 510 613 q 490 597 496 604 q 487 592 490 597 q 482 582 483 586 q 474 551 476 568 q 474 540 474 546 q 474 526 474 533 q 475 515 475 519 q 476 499 475 504 q 478 493 478 494 q 483 485 482 486 q 485 472 483 483 q 485 461 485 463 q 483 461 485 461 q 479 471 481 468 q 476 474 478 472 q 472 478 474 476 q 456 490 467 483 q 423 506 439 506 q 383 493 407 506 q 368 485 375 490 q 364 475 364 475 q 351 463 357 464 q 347 464 349 461 q 349 479 347 467 q 349 487 349 482 q 350 494 350 492 q 349 503 350 500 q 349 508 349 506 q 343 519 346 515 q 335 529 342 521 q 324 535 332 532 q 308 539 311 539 q 305 539 307 539 q 301 539 303 539 q 292 539 296 540 l 292 542 q 296 543 293 542 q 301 545 299 544 q 305 547 303 546 q 310 549 307 547 q 313 549 311 549 q 317 550 315 549 q 317 551 317 550 q 328 565 321 556 q 340 581 336 574 q 344 599 344 589 q 338 624 346 610 q 325 638 335 631 q 317 642 318 642 q 318 642 318 642 q 316 646 315 643 q 318 649 317 649 q 332 653 324 650 q 344 658 340 657 q 369 669 364 664 q 385 692 382 678 q 381 707 381 699 q 381 724 379 715 q 392 739 383 733 q 394 740 393 740 q 394 738 394 739 q 393 722 393 728 q 394 710 392 717 q 400 700 396 706 q 403 697 401 699 q 403 697 403 697 q 405 697 404 697 q 407 694 406 696 q 408 694 408 694 q 414 693 411 693 l 417 693 l 421 693 l 422 693 q 424 694 424 693 q 426 694 425 694 q 429 695 426 694 q 433 697 432 696 q 436 698 433 697 q 441 699 439 699 q 444 700 443 700 q 446 701 444 700 q 449 703 447 703 q 463 711 449 703 q 465 711 464 713 q 465 710 465 710 q 449 676 456 700 q 450 646 443 660 q 475 625 457 629 q 485 624 478 625 q 494 622 492 622 q 499 621 496 622 q 503 619 501 619 m 471 592 q 483 604 475 599 q 465 607 475 604 q 431 639 440 615 q 429 674 425 656 q 399 678 413 669 q 396 681 396 679 q 388 657 393 665 q 356 633 378 640 l 354 633 q 365 601 365 619 q 359 572 367 588 q 339 547 351 556 q 361 531 353 542 q 369 504 369 518 q 372 506 371 504 q 422 526 396 525 q 456 517 438 526 q 454 554 451 531 q 471 592 457 575 z "},"":{"ha":856,"x_min":25,"x_max":846,"o":"m 815 164 q 843 93 844 132 q 807 26 840 47 q 774 19 792 15 q 774 -3 778 8 q 732 -32 764 -31 q 699 -22 714 -33 q 683 8 685 -10 q 649 -12 671 -8 q 610 -6 628 -17 q 582 32 588 7 q 589 76 576 57 q 564 101 574 85 q 554 136 554 118 q 576 193 554 172 l 574 193 q 546 204 558 196 q 511 247 522 219 q 507 297 501 271 q 476 294 493 292 q 439 317 450 300 q 438 318 439 317 q 425 304 433 311 q 379 288 406 289 q 332 297 353 285 q 330 265 339 282 q 307 239 321 249 q 283 232 294 232 q 294 207 292 222 q 276 143 304 167 q 282 136 281 140 q 292 107 289 124 q 279 49 297 75 q 231 18 260 21 q 196 28 207 15 q 188 17 188 17 q 175 3 185 13 q 133 -15 154 -11 q 58 7 90 -22 q 32 75 25 36 q 61 129 38 108 q 47 146 54 135 q 35 193 33 167 q 72 263 36 240 q 64 267 67 265 q 54 278 63 268 q 40 304 46 290 q 40 367 29 336 q 76 421 50 400 q 115 442 99 439 q 99 467 107 451 q 89 538 83 501 q 124 600 97 574 q 151 619 136 611 q 157 621 153 619 q 165 626 160 625 q 153 639 156 633 q 150 690 142 660 q 175 732 156 717 q 175 732 175 732 q 161 774 157 744 q 196 815 165 804 q 193 818 194 817 q 181 856 182 833 q 199 919 178 889 q 274 960 224 953 q 353 947 318 967 q 382 921 372 938 q 386 911 386 913 q 435 938 406 940 q 464 921 454 936 q 468 906 468 914 q 525 937 488 931 q 590 929 563 943 q 626 870 625 913 q 607 796 628 828 q 626 783 618 793 q 635 761 635 772 q 619 719 636 738 q 643 718 632 722 q 681 699 663 713 q 722 628 714 671 q 706 543 732 578 q 682 524 696 531 q 714 501 704 522 q 715 463 724 483 q 693 438 711 451 q 740 423 718 439 q 769 382 761 407 q 764 317 781 350 q 746 289 760 304 q 740 285 743 286 q 774 256 764 276 q 778 213 783 236 q 768 185 774 193 q 782 185 775 186 q 815 164 803 178 m 803 50 q 821 101 822 74 q 797 151 819 129 q 774 168 785 164 q 760 174 763 174 q 756 174 758 174 q 751 175 753 175 q 747 175 749 175 q 745 178 746 176 q 747 182 744 181 q 753 185 749 183 q 753 192 753 188 q 755 201 754 196 q 756 208 756 206 q 756 240 758 229 q 717 274 750 268 q 713 277 713 274 q 715 282 713 281 q 720 287 718 283 q 725 294 722 290 q 729 300 728 299 q 743 322 738 308 q 749 372 754 349 q 719 410 742 394 q 672 426 696 426 q 670 428 671 426 q 671 431 669 429 q 686 436 679 435 q 696 493 706 468 q 653 514 688 513 l 644 514 l 643 514 l 643 515 q 640 517 640 515 q 642 521 640 519 q 669 536 668 535 q 689 561 682 549 q 697 628 706 590 q 665 682 690 661 q 635 700 650 694 q 620 705 629 701 q 607 711 611 708 q 593 707 600 707 q 592 710 590 707 q 613 749 610 739 q 611 769 615 761 q 590 774 600 785 q 575 774 583 768 q 572 788 567 781 q 600 853 597 821 q 582 910 606 894 q 507 918 551 928 q 454 875 468 910 l 453 876 q 457 890 454 885 q 454 894 456 893 q 451 901 454 896 q 443 914 447 911 q 438 917 442 915 q 432 918 436 917 q 419 917 426 919 q 396 899 406 913 q 389 886 393 894 q 389 885 389 886 q 389 883 389 883 q 385 869 386 878 q 382 868 385 868 q 379 869 379 868 q 378 888 376 879 q 376 892 376 889 q 374 899 375 896 q 371 904 372 901 q 357 918 368 907 q 321 936 343 931 q 243 924 281 944 q 206 868 211 907 q 208 836 204 849 q 215 825 211 831 q 217 823 215 825 q 219 819 218 821 q 222 817 221 818 q 231 813 225 815 q 235 805 236 811 q 228 799 235 799 q 200 792 210 797 q 185 771 188 785 q 186 753 182 761 q 199 741 190 744 q 217 738 207 738 q 219 735 218 738 q 218 733 219 733 l 217 733 q 215 731 217 731 q 185 715 199 731 q 171 685 174 704 q 172 650 165 664 q 179 638 176 642 q 193 631 182 636 q 195 626 196 629 q 192 621 194 622 q 186 619 189 619 q 180 617 183 618 q 175 617 176 617 q 165 610 171 614 q 158 606 160 607 q 136 586 147 597 q 113 535 117 561 q 122 479 108 507 q 138 454 124 474 q 153 429 151 431 q 153 426 154 428 q 150 424 153 424 q 128 432 139 428 q 110 419 122 426 q 94 407 99 411 q 64 363 72 386 q 64 311 56 338 q 75 288 67 300 q 78 281 76 286 q 83 273 81 276 q 88 268 86 269 q 90 257 99 264 q 56 190 56 224 q 65 153 56 176 q 76 139 65 153 q 88 135 83 142 q 85 124 92 129 q 61 92 69 108 q 54 57 53 76 q 72 22 56 38 q 132 6 97 -1 q 164 17 151 10 q 190 40 189 29 q 194 47 192 44 q 200 46 197 49 q 237 39 218 31 q 267 67 256 47 q 274 108 279 88 q 264 129 271 119 q 261 135 263 131 q 258 140 260 139 q 257 157 249 150 q 275 204 276 176 q 267 231 274 222 q 257 238 267 231 q 253 242 256 239 q 247 246 250 244 l 246 247 l 244 247 q 245 249 244 249 q 247 250 246 250 q 249 249 247 249 q 265 246 258 247 q 267 244 267 246 q 282 247 276 246 q 307 263 297 251 q 317 292 317 274 q 315 310 317 304 q 310 322 311 315 q 307 325 308 324 q 308 328 307 326 q 307 332 307 329 l 310 332 q 310 329 310 331 q 311 328 310 328 q 319 318 315 326 q 342 308 326 313 q 381 307 363 303 q 414 324 403 313 q 426 333 418 326 q 436 342 436 342 q 439 350 436 344 q 442 351 440 351 q 444 347 444 350 q 446 347 446 347 l 446 344 q 450 336 447 340 q 457 326 456 328 q 482 315 465 318 q 507 319 490 314 q 511 320 508 319 q 515 322 514 321 q 543 353 525 339 q 544 353 543 354 q 544 350 546 351 q 533 258 517 301 q 557 225 540 238 q 579 215 567 219 q 585 214 581 215 q 590 211 589 213 q 597 207 593 211 q 599 208 599 207 q 599 208 599 208 q 602 206 601 208 q 601 204 603 204 q 578 143 578 175 q 587 111 578 126 q 611 97 596 96 q 622 89 621 99 q 617 75 624 79 q 603 43 600 63 q 622 15 606 24 q 660 14 642 7 q 688 38 678 21 q 690 38 689 39 q 692 36 692 38 q 690 25 692 32 q 701 -2 692 10 q 728 -12 711 -14 q 751 3 746 -11 q 753 33 760 24 q 751 36 751 35 q 753 42 750 39 q 758 43 756 44 q 782 39 769 36 q 803 50 794 42 m 503 619 q 511 618 508 619 q 511 614 513 617 q 500 608 510 613 q 490 597 496 604 q 487 592 490 597 q 482 582 483 586 q 474 551 476 568 q 474 540 474 546 q 474 526 474 533 q 475 515 475 519 q 476 499 475 504 q 478 493 478 494 q 483 485 482 486 q 485 472 483 483 q 485 461 485 463 q 483 461 485 461 q 479 471 481 468 q 476 474 478 472 q 472 478 474 476 q 456 490 467 483 q 423 506 439 506 q 383 493 407 506 q 368 485 375 490 q 364 475 364 475 q 351 463 357 464 q 347 464 349 461 q 349 479 347 467 q 349 487 349 482 q 350 494 350 492 q 349 503 350 500 q 349 508 349 506 q 343 519 346 515 q 335 529 342 521 q 324 535 332 532 q 308 539 311 539 q 305 539 307 539 q 301 539 303 539 q 292 539 296 540 l 292 542 q 296 543 293 542 q 301 545 299 544 q 305 547 303 546 q 310 549 307 547 q 313 549 311 549 q 317 550 315 549 q 317 551 317 550 q 328 565 321 556 q 340 581 336 574 q 344 599 344 589 q 338 624 346 610 q 325 638 335 631 q 317 642 318 642 q 318 642 318 642 q 316 646 315 643 q 318 649 317 649 q 332 653 324 650 q 344 658 340 657 q 369 669 364 664 q 385 692 382 678 q 381 707 381 699 q 381 724 379 715 q 392 739 383 733 q 394 740 393 740 q 394 738 394 739 q 393 722 393 728 q 394 710 392 717 q 400 700 396 706 q 403 697 401 699 q 403 697 403 697 q 405 697 404 697 q 407 694 406 696 q 408 694 408 694 q 414 693 411 693 l 417 693 l 421 693 l 422 693 q 424 694 424 693 q 426 694 425 694 q 429 695 426 694 q 433 697 432 696 q 436 698 433 697 q 441 699 439 699 q 444 700 443 700 q 446 701 444 700 q 449 703 447 703 q 463 711 449 703 q 465 711 464 713 q 465 710 465 710 q 449 676 456 700 q 450 646 443 660 q 475 625 457 629 q 485 624 478 625 q 494 622 492 622 q 499 621 496 622 q 503 619 501 619 m 471 592 q 483 604 475 599 q 465 607 475 604 q 431 639 440 615 q 429 674 425 656 q 399 678 413 669 q 396 681 396 679 q 388 657 393 665 q 356 633 378 640 l 354 633 q 365 601 365 619 q 359 572 367 588 q 339 547 351 556 q 361 531 353 542 q 369 504 369 518 q 372 506 371 504 q 422 526 396 525 q 456 517 438 526 q 454 554 451 531 q 471 592 457 575 z "},"":{"ha":856,"x_min":25,"x_max":846,"o":"m 815 164 q 843 93 844 132 q 807 26 840 47 q 774 19 792 15 q 774 -3 778 8 q 732 -32 764 -31 q 699 -22 714 -33 q 683 8 685 -10 q 649 -12 671 -8 q 610 -6 628 -17 q 582 32 588 7 q 589 76 576 57 q 564 101 574 85 q 554 136 554 118 q 576 193 554 172 l 574 193 q 546 204 558 196 q 511 247 522 219 q 507 297 501 271 q 476 294 493 292 q 439 317 450 300 q 438 318 439 317 q 425 304 433 311 q 379 288 406 289 q 332 297 353 285 q 330 265 339 282 q 307 239 321 249 q 283 232 294 232 q 294 207 292 222 q 276 143 304 167 q 282 136 281 140 q 292 107 289 124 q 279 49 297 75 q 231 18 260 21 q 196 28 207 15 q 188 17 188 17 q 175 3 185 13 q 133 -15 154 -11 q 58 7 90 -22 q 32 75 25 36 q 61 129 38 108 q 47 146 54 135 q 35 193 33 167 q 72 263 36 240 q 64 267 67 265 q 54 278 63 268 q 40 304 46 290 q 40 367 29 336 q 76 421 50 400 q 115 442 99 439 q 99 467 107 451 q 89 538 83 501 q 124 600 97 574 q 151 619 136 611 q 157 621 153 619 q 165 626 160 625 q 153 639 156 633 q 150 690 142 660 q 175 732 156 717 q 175 732 175 732 q 161 774 157 744 q 196 815 165 804 q 193 818 194 817 q 181 856 182 833 q 199 919 178 889 q 274 960 224 953 q 353 947 318 967 q 382 921 372 938 q 386 911 386 913 q 435 938 406 940 q 464 921 454 936 q 468 906 468 914 q 525 937 488 931 q 590 929 563 943 q 626 870 625 913 q 607 796 628 828 q 626 783 618 793 q 635 761 635 772 q 619 719 636 738 q 643 718 632 722 q 681 699 663 713 q 722 628 714 671 q 706 543 732 578 q 682 524 696 531 q 714 501 704 522 q 715 463 724 483 q 693 438 711 451 q 740 423 718 439 q 769 382 761 407 q 764 317 781 350 q 746 289 760 304 q 740 285 743 286 q 774 256 764 276 q 778 213 783 236 q 768 185 774 193 q 782 185 775 186 q 815 164 803 178 m 803 50 q 821 101 822 74 q 797 151 819 129 q 774 168 785 164 q 760 174 763 174 q 756 174 758 174 q 751 175 753 175 q 747 175 749 175 q 745 178 746 176 q 747 182 744 181 q 753 185 749 183 q 753 192 753 188 q 755 201 754 196 q 756 208 756 206 q 756 240 758 229 q 717 274 750 268 q 713 277 713 274 q 715 282 713 281 q 720 287 718 283 q 725 294 722 290 q 729 300 728 299 q 743 322 738 308 q 749 372 754 349 q 719 410 742 394 q 672 426 696 426 q 670 428 671 426 q 671 431 669 429 q 686 436 679 435 q 696 493 706 468 q 653 514 688 513 l 644 514 l 643 514 l 643 515 q 640 517 640 515 q 642 521 640 519 q 669 536 668 535 q 689 561 682 549 q 697 628 706 590 q 665 682 690 661 q 635 700 650 694 q 620 705 629 701 q 607 711 611 708 q 593 707 600 707 q 592 710 590 707 q 613 749 610 739 q 611 769 615 761 q 590 774 600 785 q 575 774 583 768 q 572 788 567 781 q 600 853 597 821 q 582 910 606 894 q 507 918 551 928 q 454 875 468 910 l 453 876 q 457 890 454 885 q 454 894 456 893 q 451 901 454 896 q 443 914 447 911 q 438 917 442 915 q 432 918 436 917 q 419 917 426 919 q 396 899 406 913 q 389 886 393 894 q 389 885 389 886 q 389 883 389 883 q 385 869 386 878 q 382 868 385 868 q 379 869 379 868 q 378 888 376 879 q 376 892 376 889 q 374 899 375 896 q 371 904 372 901 q 357 918 368 907 q 321 936 343 931 q 243 924 281 944 q 206 868 211 907 q 208 836 204 849 q 215 825 211 831 q 217 823 215 825 q 219 819 218 821 q 222 817 221 818 q 231 813 225 815 q 235 805 236 811 q 228 799 235 799 q 200 792 210 797 q 185 771 188 785 q 186 753 182 761 q 199 741 190 744 q 217 738 207 738 q 219 735 218 738 q 218 733 219 733 l 217 733 q 215 731 217 731 q 185 715 199 731 q 171 685 174 704 q 172 650 165 664 q 179 638 176 642 q 193 631 182 636 q 195 626 196 629 q 192 621 194 622 q 186 619 189 619 q 180 617 183 618 q 175 617 176 617 q 165 610 171 614 q 158 606 160 607 q 136 586 147 597 q 113 535 117 561 q 122 479 108 507 q 138 454 124 474 q 153 429 151 431 q 153 426 154 428 q 150 424 153 424 q 128 432 139 428 q 110 419 122 426 q 94 407 99 411 q 64 363 72 386 q 64 311 56 338 q 75 288 67 300 q 78 281 76 286 q 83 273 81 276 q 88 268 86 269 q 90 257 99 264 q 56 190 56 224 q 65 153 56 176 q 76 139 65 153 q 88 135 83 142 q 85 124 92 129 q 61 92 69 108 q 54 57 53 76 q 72 22 56 38 q 132 6 97 -1 q 164 17 151 10 q 190 40 189 29 q 194 47 192 44 q 200 46 197 49 q 237 39 218 31 q 267 67 256 47 q 274 108 279 88 q 264 129 271 119 q 261 135 263 131 q 258 140 260 139 q 257 157 249 150 q 275 204 276 176 q 267 231 274 222 q 257 238 267 231 q 253 242 256 239 q 247 246 250 244 l 246 247 l 244 247 q 245 249 244 249 q 247 250 246 250 q 249 249 247 249 q 265 246 258 247 q 267 244 267 246 q 282 247 276 246 q 307 263 297 251 q 317 292 317 274 q 315 310 317 304 q 310 322 311 315 q 307 325 308 324 q 308 328 307 326 q 307 332 307 329 l 310 332 q 310 329 310 331 q 311 328 310 328 q 319 318 315 326 q 342 308 326 313 q 381 307 363 303 q 414 324 403 313 q 426 333 418 326 q 436 342 436 342 q 439 350 436 344 q 442 351 440 351 q 444 347 444 350 q 446 347 446 347 l 446 344 q 450 336 447 340 q 457 326 456 328 q 482 315 465 318 q 507 319 490 314 q 511 320 508 319 q 515 322 514 321 q 543 353 525 339 q 544 353 543 354 q 544 350 546 351 q 533 258 517 301 q 557 225 540 238 q 579 215 567 219 q 585 214 581 215 q 590 211 589 213 q 597 207 593 211 q 599 208 599 207 q 599 208 599 208 q 602 206 601 208 q 601 204 603 204 q 578 143 578 175 q 587 111 578 126 q 611 97 596 96 q 622 89 621 99 q 617 75 624 79 q 603 43 600 63 q 622 15 606 24 q 660 14 642 7 q 688 38 678 21 q 690 38 689 39 q 692 36 692 38 q 690 25 692 32 q 701 -2 692 10 q 728 -12 711 -14 q 751 3 746 -11 q 753 33 760 24 q 751 36 751 35 q 753 42 750 39 q 758 43 756 44 q 782 39 769 36 q 803 50 794 42 m 503 619 q 511 618 508 619 q 511 614 513 617 q 500 608 510 613 q 490 597 496 604 q 487 592 490 597 q 482 582 483 586 q 474 551 476 568 q 474 540 474 546 q 474 526 474 533 q 475 515 475 519 q 476 499 475 504 q 478 493 478 494 q 483 485 482 486 q 485 472 483 483 q 485 461 485 463 q 483 461 485 461 q 479 471 481 468 q 476 474 478 472 q 472 478 474 476 q 456 490 467 483 q 423 506 439 506 q 383 493 407 506 q 368 485 375 490 q 364 475 364 475 q 351 463 357 464 q 347 464 349 461 q 349 479 347 467 q 349 487 349 482 q 350 494 350 492 q 349 503 350 500 q 349 508 349 506 q 343 519 346 515 q 335 529 342 521 q 324 535 332 532 q 308 539 311 539 q 305 539 307 539 q 301 539 303 539 q 292 539 296 540 l 292 542 q 296 543 293 542 q 301 545 299 544 q 305 547 303 546 q 310 549 307 547 q 313 549 311 549 q 317 550 315 549 q 317 551 317 550 q 328 565 321 556 q 340 581 336 574 q 344 599 344 589 q 338 624 346 610 q 325 638 335 631 q 317 642 318 642 q 318 642 318 642 q 316 646 315 643 q 318 649 317 649 q 332 653 324 650 q 344 658 340 657 q 369 669 364 664 q 385 692 382 678 q 381 707 381 699 q 381 724 379 715 q 392 739 383 733 q 394 740 393 740 q 394 738 394 739 q 393 722 393 728 q 394 710 392 717 q 400 700 396 706 q 403 697 401 699 q 403 697 403 697 q 405 697 404 697 q 407 694 406 696 q 408 694 408 694 q 414 693 411 693 l 417 693 l 421 693 l 422 693 q 424 694 424 693 q 426 694 425 694 q 429 695 426 694 q 433 697 432 696 q 436 698 433 697 q 441 699 439 699 q 444 700 443 700 q 446 701 444 700 q 449 703 447 703 q 463 711 449 703 q 465 711 464 713 q 465 710 465 710 q 449 676 456 700 q 450 646 443 660 q 475 625 457 629 q 485 624 478 625 q 494 622 492 622 q 499 621 496 622 q 503 619 501 619 m 471 592 q 483 604 475 599 q 465 607 475 604 q 431 639 440 615 q 429 674 425 656 q 399 678 413 669 q 396 681 396 679 q 388 657 393 665 q 356 633 378 640 l 354 633 q 365 601 365 619 q 359 572 367 588 q 339 547 351 556 q 361 531 353 542 q 369 504 369 518 q 372 506 371 504 q 422 526 396 525 q 456 517 438 526 q 454 554 451 531 q 471 592 457 575 z "},"":{"ha":856,"x_min":25,"x_max":846,"o":"m 815 164 q 843 93 844 132 q 807 26 840 47 q 774 19 792 15 q 774 -3 778 8 q 732 -32 764 -31 q 699 -22 714 -33 q 683 8 685 -10 q 649 -12 671 -8 q 610 -6 628 -17 q 582 32 588 7 q 589 76 576 57 q 564 101 574 85 q 554 136 554 118 q 576 193 554 172 l 574 193 q 546 204 558 196 q 511 247 522 219 q 507 297 501 271 q 476 294 493 292 q 439 317 450 300 q 438 318 439 317 q 425 304 433 311 q 379 288 406 289 q 332 297 353 285 q 330 265 339 282 q 307 239 321 249 q 283 232 294 232 q 294 207 292 222 q 276 143 304 167 q 282 136 281 140 q 292 107 289 124 q 279 49 297 75 q 231 18 260 21 q 196 28 207 15 q 188 17 188 17 q 175 3 185 13 q 133 -15 154 -11 q 58 7 90 -22 q 32 75 25 36 q 61 129 38 108 q 47 146 54 135 q 35 193 33 167 q 72 263 36 240 q 64 267 67 265 q 54 278 63 268 q 40 304 46 290 q 40 367 29 336 q 76 421 50 400 q 115 442 99 439 q 99 467 107 451 q 89 538 83 501 q 124 600 97 574 q 151 619 136 611 q 157 621 153 619 q 165 626 160 625 q 153 639 156 633 q 150 690 142 660 q 175 732 156 717 q 175 732 175 732 q 161 774 157 744 q 196 815 165 804 q 193 818 194 817 q 181 856 182 833 q 199 919 178 889 q 274 960 224 953 q 353 947 318 967 q 382 921 372 938 q 386 911 386 913 q 435 938 406 940 q 464 921 454 936 q 468 906 468 914 q 525 937 488 931 q 590 929 563 943 q 626 870 625 913 q 607 796 628 828 q 626 783 618 793 q 635 761 635 772 q 619 719 636 738 q 643 718 632 722 q 681 699 663 713 q 722 628 714 671 q 706 543 732 578 q 682 524 696 531 q 714 501 704 522 q 715 463 724 483 q 693 438 711 451 q 740 423 718 439 q 769 382 761 407 q 764 317 781 350 q 746 289 760 304 q 740 285 743 286 q 774 256 764 276 q 778 213 783 236 q 768 185 774 193 q 782 185 775 186 q 815 164 803 178 m 803 50 q 821 101 822 74 q 797 151 819 129 q 774 168 785 164 q 760 174 763 174 q 756 174 758 174 q 751 175 753 175 q 747 175 749 175 q 745 178 746 176 q 747 182 744 181 q 753 185 749 183 q 753 192 753 188 q 755 201 754 196 q 756 208 756 206 q 756 240 758 229 q 717 274 750 268 q 713 277 713 274 q 715 282 713 281 q 720 287 718 283 q 725 294 722 290 q 729 300 728 299 q 743 322 738 308 q 749 372 754 349 q 719 410 742 394 q 672 426 696 426 q 670 428 671 426 q 671 431 669 429 q 686 436 679 435 q 696 493 706 468 q 653 514 688 513 l 644 514 l 643 514 l 643 515 q 640 517 640 515 q 642 521 640 519 q 669 536 668 535 q 689 561 682 549 q 697 628 706 590 q 665 682 690 661 q 635 700 650 694 q 620 705 629 701 q 607 711 611 708 q 593 707 600 707 q 592 710 590 707 q 613 749 610 739 q 611 769 615 761 q 590 774 600 785 q 575 774 583 768 q 572 788 567 781 q 600 853 597 821 q 582 910 606 894 q 507 918 551 928 q 454 875 468 910 l 453 876 q 457 890 454 885 q 454 894 456 893 q 451 901 454 896 q 443 914 447 911 q 438 917 442 915 q 432 918 436 917 q 419 917 426 919 q 396 899 406 913 q 389 886 393 894 q 389 885 389 886 q 389 883 389 883 q 385 869 386 878 q 382 868 385 868 q 379 869 379 868 q 378 888 376 879 q 376 892 376 889 q 374 899 375 896 q 371 904 372 901 q 357 918 368 907 q 321 936 343 931 q 243 924 281 944 q 206 868 211 907 q 208 836 204 849 q 215 825 211 831 q 217 823 215 825 q 219 819 218 821 q 222 817 221 818 q 231 813 225 815 q 235 805 236 811 q 228 799 235 799 q 200 792 210 797 q 185 771 188 785 q 186 753 182 761 q 199 741 190 744 q 217 738 207 738 q 219 735 218 738 q 218 733 219 733 l 217 733 q 215 731 217 731 q 185 715 199 731 q 171 685 174 704 q 172 650 165 664 q 179 638 176 642 q 193 631 182 636 q 195 626 196 629 q 192 621 194 622 q 186 619 189 619 q 180 617 183 618 q 175 617 176 617 q 165 610 171 614 q 158 606 160 607 q 136 586 147 597 q 113 535 117 561 q 122 479 108 507 q 138 454 124 474 q 153 429 151 431 q 153 426 154 428 q 150 424 153 424 q 128 432 139 428 q 110 419 122 426 q 94 407 99 411 q 64 363 72 386 q 64 311 56 338 q 75 288 67 300 q 78 281 76 286 q 83 273 81 276 q 88 268 86 269 q 90 257 99 264 q 56 190 56 224 q 65 153 56 176 q 76 139 65 153 q 88 135 83 142 q 85 124 92 129 q 61 92 69 108 q 54 57 53 76 q 72 22 56 38 q 132 6 97 -1 q 164 17 151 10 q 190 40 189 29 q 194 47 192 44 q 200 46 197 49 q 237 39 218 31 q 267 67 256 47 q 274 108 279 88 q 264 129 271 119 q 261 135 263 131 q 258 140 260 139 q 257 157 249 150 q 275 204 276 176 q 267 231 274 222 q 257 238 267 231 q 253 242 256 239 q 247 246 250 244 l 246 247 l 244 247 q 245 249 244 249 q 247 250 246 250 q 249 249 247 249 q 265 246 258 247 q 267 244 267 246 q 282 247 276 246 q 307 263 297 251 q 317 292 317 274 q 315 310 317 304 q 310 322 311 315 q 307 325 308 324 q 308 328 307 326 q 307 332 307 329 l 310 332 q 310 329 310 331 q 311 328 310 328 q 319 318 315 326 q 342 308 326 313 q 381 307 363 303 q 414 324 403 313 q 426 333 418 326 q 436 342 436 342 q 439 350 436 344 q 442 351 440 351 q 444 347 444 350 q 446 347 446 347 l 446 344 q 450 336 447 340 q 457 326 456 328 q 482 315 465 318 q 507 319 490 314 q 511 320 508 319 q 515 322 514 321 q 543 353 525 339 q 544 353 543 354 q 544 350 546 351 q 533 258 517 301 q 557 225 540 238 q 579 215 567 219 q 585 214 581 215 q 590 211 589 213 q 597 207 593 211 q 599 208 599 207 q 599 208 599 208 q 602 206 601 208 q 601 204 603 204 q 578 143 578 175 q 587 111 578 126 q 611 97 596 96 q 622 89 621 99 q 617 75 624 79 q 603 43 600 63 q 622 15 606 24 q 660 14 642 7 q 688 38 678 21 q 690 38 689 39 q 692 36 692 38 q 690 25 692 32 q 701 -2 692 10 q 728 -12 711 -14 q 751 3 746 -11 q 753 33 760 24 q 751 36 751 35 q 753 42 750 39 q 758 43 756 44 q 782 39 769 36 q 803 50 794 42 m 503 619 q 511 618 508 619 q 511 614 513 617 q 500 608 510 613 q 490 597 496 604 q 487 592 490 597 q 482 582 483 586 q 474 551 476 568 q 474 540 474 546 q 474 526 474 533 q 475 515 475 519 q 476 499 475 504 q 478 493 478 494 q 483 485 482 486 q 485 472 483 483 q 485 461 485 463 q 483 461 485 461 q 479 471 481 468 q 476 474 478 472 q 472 478 474 476 q 456 490 467 483 q 423 506 439 506 q 383 493 407 506 q 368 485 375 490 q 364 475 364 475 q 351 463 357 464 q 347 464 349 461 q 349 479 347 467 q 349 487 349 482 q 350 494 350 492 q 349 503 350 500 q 349 508 349 506 q 343 519 346 515 q 335 529 342 521 q 324 535 332 532 q 308 539 311 539 q 305 539 307 539 q 301 539 303 539 q 292 539 296 540 l 292 542 q 296 543 293 542 q 301 545 299 544 q 305 547 303 546 q 310 549 307 547 q 313 549 311 549 q 317 550 315 549 q 317 551 317 550 q 328 565 321 556 q 340 581 336 574 q 344 599 344 589 q 338 624 346 610 q 325 638 335 631 q 317 642 318 642 q 318 642 318 642 q 316 646 315 643 q 318 649 317 649 q 332 653 324 650 q 344 658 340 657 q 369 669 364 664 q 385 692 382 678 q 381 707 381 699 q 381 724 379 715 q 392 739 383 733 q 394 740 393 740 q 394 738 394 739 q 393 722 393 728 q 394 710 392 717 q 400 700 396 706 q 403 697 401 699 q 403 697 403 697 q 405 697 404 697 q 407 694 406 696 q 408 694 408 694 q 414 693 411 693 l 417 693 l 421 693 l 422 693 q 424 694 424 693 q 426 694 425 694 q 429 695 426 694 q 433 697 432 696 q 436 698 433 697 q 441 699 439 699 q 444 700 443 700 q 446 701 444 700 q 449 703 447 703 q 463 711 449 703 q 465 711 464 713 q 465 710 465 710 q 449 676 456 700 q 450 646 443 660 q 475 625 457 629 q 485 624 478 625 q 494 622 492 622 q 499 621 496 622 q 503 619 501 619 m 471 592 q 483 604 475 599 q 465 607 475 604 q 431 639 440 615 q 429 674 425 656 q 399 678 413 669 q 396 681 396 679 q 388 657 393 665 q 356 633 378 640 l 354 633 q 365 601 365 619 q 359 572 367 588 q 339 547 351 556 q 361 531 353 542 q 369 504 369 518 q 372 506 371 504 q 422 526 396 525 q 456 517 438 526 q 454 554 451 531 q 471 592 457 575 z "},"":{"ha":856,"x_min":25,"x_max":846,"o":"m 815 164 q 843 93 844 132 q 807 26 840 47 q 774 19 792 15 q 774 -3 778 8 q 732 -32 764 -31 q 699 -22 714 -33 q 683 8 685 -10 q 649 -12 671 -8 q 610 -6 628 -17 q 582 32 588 7 q 589 76 576 57 q 564 101 574 85 q 554 136 554 118 q 576 193 554 172 l 574 193 q 546 204 558 196 q 511 247 522 219 q 507 297 501 271 q 476 294 493 292 q 439 317 450 300 q 438 318 439 317 q 425 304 433 311 q 379 288 406 289 q 332 297 353 285 q 330 265 339 282 q 307 239 321 249 q 283 232 294 232 q 294 207 292 222 q 276 143 304 167 q 282 136 281 140 q 292 107 289 124 q 279 49 297 75 q 231 18 260 21 q 196 28 207 15 q 188 17 188 17 q 175 3 185 13 q 133 -15 154 -11 q 58 7 90 -22 q 32 75 25 36 q 61 129 38 108 q 47 146 54 135 q 35 193 33 167 q 72 263 36 240 q 64 267 67 265 q 54 278 63 268 q 40 304 46 290 q 40 367 29 336 q 76 421 50 400 q 115 442 99 439 q 99 467 107 451 q 89 538 83 501 q 124 600 97 574 q 151 619 136 611 q 157 621 153 619 q 165 626 160 625 q 153 639 156 633 q 150 690 142 660 q 175 732 156 717 q 175 732 175 732 q 161 774 157 744 q 196 815 165 804 q 193 818 194 817 q 181 856 182 833 q 199 919 178 889 q 274 960 224 953 q 353 947 318 967 q 382 921 372 938 q 386 911 386 913 q 435 938 406 940 q 464 921 454 936 q 468 906 468 914 q 525 937 488 931 q 590 929 563 943 q 626 870 625 913 q 607 796 628 828 q 626 783 618 793 q 635 761 635 772 q 619 719 636 738 q 643 718 632 722 q 681 699 663 713 q 722 628 714 671 q 706 543 732 578 q 682 524 696 531 q 714 501 704 522 q 715 463 724 483 q 693 438 711 451 q 740 423 718 439 q 769 382 761 407 q 764 317 781 350 q 746 289 760 304 q 740 285 743 286 q 774 256 764 276 q 778 213 783 236 q 768 185 774 193 q 782 185 775 186 q 815 164 803 178 m 803 50 q 821 101 822 74 q 797 151 819 129 q 774 168 785 164 q 760 174 763 174 q 756 174 758 174 q 751 175 753 175 q 747 175 749 175 q 745 178 746 176 q 747 182 744 181 q 753 185 749 183 q 753 192 753 188 q 755 201 754 196 q 756 208 756 206 q 756 240 758 229 q 717 274 750 268 q 713 277 713 274 q 715 282 713 281 q 720 287 718 283 q 725 294 722 290 q 729 300 728 299 q 743 322 738 308 q 749 372 754 349 q 719 410 742 394 q 672 426 696 426 q 670 428 671 426 q 671 431 669 429 q 686 436 679 435 q 696 493 706 468 q 653 514 688 513 l 644 514 l 643 514 l 643 515 q 640 517 640 515 q 642 521 640 519 q 669 536 668 535 q 689 561 682 549 q 697 628 706 590 q 665 682 690 661 q 635 700 650 694 q 620 705 629 701 q 607 711 611 708 q 593 707 600 707 q 592 710 590 707 q 613 749 610 739 q 611 769 615 761 q 590 774 600 785 q 575 774 583 768 q 572 788 567 781 q 600 853 597 821 q 582 910 606 894 q 507 918 551 928 q 454 875 468 910 l 453 876 q 457 890 454 885 q 454 894 456 893 q 451 901 454 896 q 443 914 447 911 q 438 917 442 915 q 432 918 436 917 q 419 917 426 919 q 396 899 406 913 q 389 886 393 894 q 389 885 389 886 q 389 883 389 883 q 385 869 386 878 q 382 868 385 868 q 379 869 379 868 q 378 888 376 879 q 376 892 376 889 q 374 899 375 896 q 371 904 372 901 q 357 918 368 907 q 321 936 343 931 q 243 924 281 944 q 206 868 211 907 q 208 836 204 849 q 215 825 211 831 q 217 823 215 825 q 219 819 218 821 q 222 817 221 818 q 231 813 225 815 q 235 805 236 811 q 228 799 235 799 q 200 792 210 797 q 185 771 188 785 q 186 753 182 761 q 199 741 190 744 q 217 738 207 738 q 219 735 218 738 q 218 733 219 733 l 217 733 q 215 731 217 731 q 185 715 199 731 q 171 685 174 704 q 172 650 165 664 q 179 638 176 642 q 193 631 182 636 q 195 626 196 629 q 192 621 194 622 q 186 619 189 619 q 180 617 183 618 q 175 617 176 617 q 165 610 171 614 q 158 606 160 607 q 136 586 147 597 q 113 535 117 561 q 122 479 108 507 q 138 454 124 474 q 153 429 151 431 q 153 426 154 428 q 150 424 153 424 q 128 432 139 428 q 110 419 122 426 q 94 407 99 411 q 64 363 72 386 q 64 311 56 338 q 75 288 67 300 q 78 281 76 286 q 83 273 81 276 q 88 268 86 269 q 90 257 99 264 q 56 190 56 224 q 65 153 56 176 q 76 139 65 153 q 88 135 83 142 q 85 124 92 129 q 61 92 69 108 q 54 57 53 76 q 72 22 56 38 q 132 6 97 -1 q 164 17 151 10 q 190 40 189 29 q 194 47 192 44 q 200 46 197 49 q 237 39 218 31 q 267 67 256 47 q 274 108 279 88 q 264 129 271 119 q 261 135 263 131 q 258 140 260 139 q 257 157 249 150 q 275 204 276 176 q 267 231 274 222 q 257 238 267 231 q 253 242 256 239 q 247 246 250 244 l 246 247 l 244 247 q 245 249 244 249 q 247 250 246 250 q 249 249 247 249 q 265 246 258 247 q 267 244 267 246 q 282 247 276 246 q 307 263 297 251 q 317 292 317 274 q 315 310 317 304 q 310 322 311 315 q 307 325 308 324 q 308 328 307 326 q 307 332 307 329 l 310 332 q 310 329 310 331 q 311 328 310 328 q 319 318 315 326 q 342 308 326 313 q 381 307 363 303 q 414 324 403 313 q 426 333 418 326 q 436 342 436 342 q 439 350 436 344 q 442 351 440 351 q 444 347 444 350 q 446 347 446 347 l 446 344 q 450 336 447 340 q 457 326 456 328 q 482 315 465 318 q 507 319 490 314 q 511 320 508 319 q 515 322 514 321 q 543 353 525 339 q 544 353 543 354 q 544 350 546 351 q 533 258 517 301 q 557 225 540 238 q 579 215 567 219 q 585 214 581 215 q 590 211 589 213 q 597 207 593 211 q 599 208 599 207 q 599 208 599 208 q 602 206 601 208 q 601 204 603 204 q 578 143 578 175 q 587 111 578 126 q 611 97 596 96 q 622 89 621 99 q 617 75 624 79 q 603 43 600 63 q 622 15 606 24 q 660 14 642 7 q 688 38 678 21 q 690 38 689 39 q 692 36 692 38 q 690 25 692 32 q 701 -2 692 10 q 728 -12 711 -14 q 751 3 746 -11 q 753 33 760 24 q 751 36 751 35 q 753 42 750 39 q 758 43 756 44 q 782 39 769 36 q 803 50 794 42 m 503 619 q 511 618 508 619 q 511 614 513 617 q 500 608 510 613 q 490 597 496 604 q 487 592 490 597 q 482 582 483 586 q 474 551 476 568 q 474 540 474 546 q 474 526 474 533 q 475 515 475 519 q 476 499 475 504 q 478 493 478 494 q 483 485 482 486 q 485 472 483 483 q 485 461 485 463 q 483 461 485 461 q 479 471 481 468 q 476 474 478 472 q 472 478 474 476 q 456 490 467 483 q 423 506 439 506 q 383 493 407 506 q 368 485 375 490 q 364 475 364 475 q 351 463 357 464 q 347 464 349 461 q 349 479 347 467 q 349 487 349 482 q 350 494 350 492 q 349 503 350 500 q 349 508 349 506 q 343 519 346 515 q 335 529 342 521 q 324 535 332 532 q 308 539 311 539 q 305 539 307 539 q 301 539 303 539 q 292 539 296 540 l 292 542 q 296 543 293 542 q 301 545 299 544 q 305 547 303 546 q 310 549 307 547 q 313 549 311 549 q 317 550 315 549 q 317 551 317 550 q 328 565 321 556 q 340 581 336 574 q 344 599 344 589 q 338 624 346 610 q 325 638 335 631 q 317 642 318 642 q 318 642 318 642 q 316 646 315 643 q 318 649 317 649 q 332 653 324 650 q 344 658 340 657 q 369 669 364 664 q 385 692 382 678 q 381 707 381 699 q 381 724 379 715 q 392 739 383 733 q 394 740 393 740 q 394 738 394 739 q 393 722 393 728 q 394 710 392 717 q 400 700 396 706 q 403 697 401 699 q 403 697 403 697 q 405 697 404 697 q 407 694 406 696 q 408 694 408 694 q 414 693 411 693 l 417 693 l 421 693 l 422 693 q 424 694 424 693 q 426 694 425 694 q 429 695 426 694 q 433 697 432 696 q 436 698 433 697 q 441 699 439 699 q 444 700 443 700 q 446 701 444 700 q 449 703 447 703 q 463 711 449 703 q 465 711 464 713 q 465 710 465 710 q 449 676 456 700 q 450 646 443 660 q 475 625 457 629 q 485 624 478 625 q 494 622 492 622 q 499 621 496 622 q 503 619 501 619 m 471 592 q 483 604 475 599 q 465 607 475 604 q 431 639 440 615 q 429 674 425 656 q 399 678 413 669 q 396 681 396 679 q 388 657 393 665 q 356 633 378 640 l 354 633 q 365 601 365 619 q 359 572 367 588 q 339 547 351 556 q 361 531 353 542 q 369 504 369 518 q 372 506 371 504 q 422 526 396 525 q 456 517 438 526 q 454 554 451 531 q 471 592 457 575 z "}}}
